<svg id="Layer_2" data-name="Layer 2" xmlns="http://www.w3.org/2000/svg" viewBox="0 0 1450 768"><defs><style>.cls-1{fill:#1e1e1e;}.cls-2{fill:#3c7ede;}.cls-3{fill:#e6303d;}.cls-4{fill:#7f7f7f;}</style></defs><title>graph</title><rect class="cls-1" x="183.49" y="199.64" width="1" height="451"/><rect class="cls-1" x="310.16" y="199.64" width="1" height="451"/><rect class="cls-1" x="403.49" y="199.64" width="1" height="451"/><rect class="cls-1" x="541.49" y="199.64" width="1" height="451"/><rect class="cls-1" x="756.16" y="278.33" width="1" height="372.31"/><rect class="cls-1" x="969.49" y="199.64" width="1" height="451"/><rect class="cls-1" x="1106.83" y="199.64" width="1" height="451"/><rect class="cls-1" x="1200.16" y="199.64" width="1" height="451"/><rect class="cls-1" x="1328.83" y="199.64" width="1" height="451"/><polygon class="cls-2" points="1391.98 318.28 104.99 318.28 104.99 296.28 1391.98 296.28 1401.99 307.28 1391.98 318.28"/><polygon class="cls-3" points="194.03 318.28 104.99 318.28 104.99 296.28 194.03 296.28 204.03 307.28 194.03 318.28"/><path class="cls-3" d="M54.9,303.18H48.8v4h5.41v2.55H48.8V314h6.1v2.62H45.58V300.55H54.9Z"/><path class="cls-3" d="M64,311.23l-3.15,5.41H57.17l5.06-8.1-5.13-8h3.71L64.28,306l3.13-5.38H71l-5,8.08,5.13,8h-3.7Z"/><path class="cls-3" d="M72.52,300.58H76L78.8,313l3.27-12.47h3.59L88.74,313l2.85-12.4h3.47l-4.49,16.06h-3.8l-3-11.44-3.15,11.44-3.77,0Z"/><polygon class="cls-2" points="1389.98 358.95 195.06 358.95 195.06 336.95 1389.98 336.95 1401.99 347.95 1389.98 358.95"/><polygon class="cls-3" points="284.1 358.95 104.99 358.95 104.99 336.95 284.1 336.95 294.11 347.95 284.1 358.95"/><path class="cls-3" d="M45.58,341.24H55.5v2.6H48.8V348h5.13v2.55H48.8v6.79H45.58Z"/><path class="cls-3" d="M65.13,341a7.57,7.57,0,0,1,7.55,5.2H69a4,4,0,0,0-3.87-2.3c-2.81,0-4.81,2-4.81,5.32s2,5.32,4.81,5.32A4,4,0,0,0,69,352.24h3.71a7.54,7.54,0,0,1-7.55,5.2,8.2,8.2,0,0,1,0-16.41Z"/><path class="cls-3" d="M85.29,354.24h-6.4l-1.06,3.06H74.45l5.78-16.08H84l5.78,16.08H86.34Zm-3.2-9.3-2.32,6.72h4.65Z"/><polygon class="cls-2" points="1391.98 399.61 104.99 399.61 104.99 377.61 1391.98 377.61 1401.99 388.61 1391.98 399.61"/><polygon class="cls-3" points="644.39 399.61 104.99 399.61 104.99 377.61 644.39 377.61 654.39 388.61 644.39 399.61"/><path class="cls-3" d="M45.58,381.91H55.5v2.6H48.8v4.12h5.13v2.55H48.8V398H45.58Z"/><path class="cls-3" d="M65.23,398.13a8.23,8.23,0,1,1,8.21-8.24A8.07,8.07,0,0,1,65.23,398.13Zm0-2.88c2.9,0,4.9-2.09,4.9-5.36s-2-5.32-4.9-5.32-4.92,2-4.92,5.32S62.3,395.26,65.23,395.26Z"/><path class="cls-3" d="M82.75,398H75.83V381.91h6.63c3.36,0,5.22,1.75,5.22,4.14a3.7,3.7,0,0,1-2.74,3.68A3.89,3.89,0,0,1,88,393.62C88,396.18,86.09,398,82.75,398ZM82,384.51H79v4H82c1.52,0,2.39-.69,2.39-2S83.51,384.51,82,384.51Zm.23,6.51H79v4.33h3.25c1.56,0,2.48-.76,2.48-2.12S83.79,391,82.23,391Z"/><polygon class="cls-2" points="1391.98 440.28 104.99 440.28 104.99 418.28 1391.98 418.28 1401.99 429.28 1391.98 440.28"/><polygon class="cls-3" points="824.53 440.28 104.99 440.28 104.99 418.28 824.53 418.28 834.54 429.28 824.53 440.28"/><path class="cls-3" d="M52.94,422.37a7.57,7.57,0,0,1,7.55,5.2H56.79a4,4,0,0,0-3.87-2.3c-2.81,0-4.81,2-4.81,5.32s2,5.32,4.81,5.32a4,4,0,0,0,3.87-2.32h3.71a7.54,7.54,0,0,1-7.55,5.2,8.2,8.2,0,0,1,0-16.41Z"/><path class="cls-3" d="M63.25,422.58h9.92v2.6h-6.7v4.12H71.6v2.55H66.47v6.79H63.25Z"/><path class="cls-3" d="M81.47,422.58c3.87,0,5.8,2.23,5.8,4.92a4.64,4.64,0,0,1-3.66,4.63l3.84,6.51H83.72l-3.54-6.26H78.66v6.26H75.44V422.58Zm-.11,2.67H78.66V430h2.69c1.79,0,2.6-.94,2.6-2.39S83.15,425.25,81.35,425.25Z"/><polygon class="cls-2" points="1391.98 480.95 104.99 480.95 104.99 458.95 1391.98 458.95 1401.99 469.95 1391.98 480.95"/><polygon class="cls-3" points="824.53 480.95 104.99 480.95 104.99 458.95 824.53 458.95 834.54 469.95 824.53 480.95"/><path class="cls-3" d="M52.94,463a7.57,7.57,0,0,1,7.55,5.2H56.79a4,4,0,0,0-3.87-2.3c-2.81,0-4.81,2-4.81,5.32s2,5.32,4.81,5.32a4,4,0,0,0,3.87-2.32h3.71a7.54,7.54,0,0,1-7.55,5.2,8.2,8.2,0,0,1,0-16.41Z"/><path class="cls-3" d="M63.25,463.24h3.22v16.06H63.25Z"/><path class="cls-3" d="M69.64,463.24h9.92v2.6h-6.7V470H78v2.55H72.86v6.79H69.64Z"/><polygon class="cls-2" points="1391.98 521.61 104.99 521.61 104.99 499.61 1391.98 499.61 1401.99 510.61 1391.98 521.61"/><polygon class="cls-3" points="950.63 521.61 104.99 521.61 104.99 499.61 950.63 499.61 960.64 510.61 950.63 521.61"/><path class="cls-3" d="M52.94,503.7a7.57,7.57,0,0,1,7.55,5.2H56.79a4,4,0,0,0-3.87-2.3c-2.81,0-4.81,2-4.81,5.32s2,5.32,4.81,5.32a4,4,0,0,0,3.87-2.32h3.71a7.54,7.54,0,0,1-7.55,5.2,8.2,8.2,0,0,1,0-16.41Z"/><path class="cls-3" d="M69.16,513.81H66.47V520H63.25V503.91h5.91c3.87,0,5.8,2.19,5.8,5C75,511.32,73.3,513.81,69.16,513.81Zm-.14-2.6c1.82,0,2.62-.9,2.62-2.32s-.81-2.35-2.62-2.35H66.47v4.67Z"/><path class="cls-3" d="M76.38,503.91H88.16v2.6H83.88V520H80.66V506.51H76.38Z"/><polygon class="cls-2" points="1391.98 562.28 104.99 562.28 104.99 540.28 1391.98 540.28 1401.99 551.28 1391.98 562.28"/><polygon class="cls-3" points="954.63 562.28 104.99 562.28 104.99 540.28 954.63 540.28 964.64 551.28 954.63 562.28"/><path class="cls-3" d="M52.94,544.37a7.57,7.57,0,0,1,7.55,5.2H56.79a4,4,0,0,0-3.87-2.3c-2.81,0-4.81,2-4.81,5.32s2,5.32,4.81,5.32a4,4,0,0,0,3.87-2.32h3.71a7.54,7.54,0,0,1-7.55,5.2,8.2,8.2,0,0,1,0-16.41Z"/><path class="cls-3" d="M63.25,544.58h3.22v16.06H63.25Z"/><path class="cls-3" d="M75.55,554.47H72.86v6.17H69.64V544.58h5.91c3.87,0,5.8,2.19,5.8,5C81.35,552,79.7,554.47,75.55,554.47Zm-.14-2.6c1.82,0,2.62-.9,2.62-2.32s-.8-2.35-2.62-2.35H72.86v4.67Z"/><polygon class="cls-2" points="1391.98 602.95 104.99 602.95 104.99 580.95 1391.98 580.95 1401.99 591.95 1391.98 602.95"/><polygon class="cls-3" points="954.63 602.95 104.99 602.95 104.99 580.95 954.63 580.95 964.64 591.95 954.63 602.95"/><polygon class="cls-3" points="1391.98 602.95 1072.77 602.95 1082.77 592.95 1072.77 580.95 1391.98 580.95 1401.99 591.95 1391.98 602.95"/><path class="cls-3" d="M59.66,593.3c0,4.86-3.34,8-8.47,8H45.58V585.24h5.61C56.33,585.24,59.66,588.42,59.66,593.3Zm-8.58,5.27c3.38,0,5.29-1.93,5.29-5.27S54.46,588,51.08,588H48.8v10.61Z"/><path class="cls-3" d="M76.15,593.3c0,4.86-3.34,8-8.47,8H62.07V585.24h5.61C72.82,585.24,76.15,588.42,76.15,593.3Zm-8.58,5.27c3.38,0,5.29-1.93,5.29-5.27S71,588,67.57,588H65.29v10.61Z"/><path class="cls-3" d="M78.52,585.24h3.22v9.94c0,2.21,1.2,3.36,3.24,3.36s3.27-1.15,3.27-3.36v-9.94H91.5v9.92c0,4.23-3,6.3-6.56,6.3s-6.42-2.07-6.42-6.3Z"/><polygon class="cls-3" points="1391.98 643.61 104.99 643.61 104.99 621.61 1391.98 621.61 1401.99 632.61 1391.98 643.61"/><path class="cls-3" d="M59.66,634c0,4.85-3.34,8-8.47,8H45.58V625.91h5.61C56.33,625.91,59.66,629.09,59.66,634Zm-8.58,5.27c3.38,0,5.29-1.93,5.29-5.27s-1.91-5.34-5.29-5.34H48.8v10.61Z"/><path class="cls-3" d="M76.15,634c0,4.85-3.34,8-8.47,8H62.07V625.91h5.61C72.82,625.91,76.15,629.09,76.15,634Zm-8.58,5.27c3.38,0,5.29-1.93,5.29-5.27s-1.91-5.34-5.29-5.34H65.29v10.61Z"/><path class="cls-3" d="M84.48,635.81H81.79V642H78.57V625.91h5.91c3.87,0,5.8,2.19,5.8,5C90.28,633.32,88.62,635.81,84.48,635.81Zm-.14-2.6c1.82,0,2.62-.9,2.62-2.32s-.8-2.35-2.62-2.35H81.79v4.67Z"/><path class="cls-4" d="M162.37,208.58l-8.22-2.52v-6.12a.91.91,0,0,0-.51-.82l-22.19-11h0A.88.88,0,0,0,131,188a.91.91,0,0,0-.47.16h0l-15.83,11.29a.91.91,0,0,0-.38.74v7.88l-2.94-.35h-.24a1,1,0,0,0-.23.06h0l-5.35,2.37a.91.91,0,0,0-.54.83v15.27a.91.91,0,0,0,.47.8l5.36,2.94a.92.92,0,0,0,.31.1.94.94,0,0,0,.26,0l2.9-.42v1.68a.91.91,0,0,0,.47.8l15.83,8.67a1,1,0,0,0,.41.11,1,1,0,0,0,.35-.06h0l22.19-8.44,8.86-3.37a.91.91,0,0,0,.59-.85V209.45A.9.9,0,0,0,162.37,208.58Zm-54.83,13.94a.3.3,0,0,1-.12.24.31.31,0,0,1-.18.06h-.08l-1-.28a.31.31,0,0,1-.22-.29V219.4a.31.31,0,0,1,.1-.23.3.3,0,0,1,.23-.08l1,.1a.31.31,0,0,1,.28.3v3h0Zm0-6a.31.31,0,0,1-.28.3l-1,.08h0a.3.3,0,0,1-.3-.3v-2.83a.3.3,0,0,1,.23-.29l1-.27a.3.3,0,0,1,.26.05.3.3,0,0,1,.12.24v3h0Zm3,6.86a.3.3,0,0,1-.3.3h-.08l-1.39-.39a.3.3,0,0,1-.22-.29v-3.3a.3.3,0,0,1,.1-.23.3.3,0,0,1,.23-.08l1.39.14a.3.3,0,0,1,.28.3v3.55h0Zm0-7.1a.31.31,0,0,1-.28.3l-1.39.11h0a.3.3,0,0,1-.3-.3v-3.3a.31.31,0,0,1,.23-.3l1.39-.37a.3.3,0,0,1,.26.05.31.31,0,0,1,.12.24Zm7.62,9.22a.31.31,0,0,1-.3.3h-.08l-1.8-.5a.3.3,0,0,1-.22-.29v-4.6a.3.3,0,0,1,.1-.23.31.31,0,0,1,.23-.08l1.8.18a.3.3,0,0,1,.28.3v4.92Zm0-9.85a.3.3,0,0,1-.28.3l-1.8.15h0a.3.3,0,0,1-.21-.08.31.31,0,0,1-.1-.22v-4.6a.3.3,0,0,1,.23-.29l1.8-.47a.31.31,0,0,1,.38.29v4.93Zm0-9.85a.3.3,0,0,1-.18.28l-1.8.79-.12,0a.31.31,0,0,1-.17,0,.31.31,0,0,1-.14-.26V202a.3.3,0,0,1,.14-.26l1.8-1.12a.3.3,0,0,1,.47.26v4.92Zm4.48,20.94a.31.31,0,0,1-.3.3h-.08l-2.41-.67a.3.3,0,0,1-.22-.29v-5.3a.31.31,0,0,1,.1-.23.31.31,0,0,1,.23-.08l2.41.23a.3.3,0,0,1,.27.3v5.73Zm0-11.46a.3.3,0,0,1-.28.3l-2.41.2h0a.31.31,0,0,1-.3-.31v-5.3a.3.3,0,0,1,.23-.29l2.41-.63a.3.3,0,0,1,.26.05.3.3,0,0,1,.12.24v5.73h0Zm0-11.46a.3.3,0,0,1-.18.28L120,205.13a.29.29,0,0,1-.12,0,.3.3,0,0,1-.3-.3v-5.3a.3.3,0,0,1,.14-.26l2.41-1.5a.3.3,0,0,1,.47.26v5.73h0Zm6.23,24.65a.33.33,0,0,1-.1.24.43.43,0,0,1-.31.11h0a20.86,20.86,0,0,1-3.39-1,.3.3,0,0,1-.2-.29v-6.24a.31.31,0,0,1,.1-.23.3.3,0,0,1,.23-.08l3.39.33a.31.31,0,0,1,.28.3C128.83,221.65,128.83,228.14,128.83,228.43Zm0-13.7a.3.3,0,0,1-.28.3l-3.39.28h0a.31.31,0,0,1-.3-.31v-6.24a.3.3,0,0,1,.23-.29l3.39-.89a.3.3,0,0,1,.26.05.3.3,0,0,1,.12.24v6.86h0Zm0-13.7a.3.3,0,0,1-.18.28l-3.39,1.5a.29.29,0,0,1-.12,0,.31.31,0,0,1-.17,0,.3.3,0,0,1-.14-.26v-6.24A.31.31,0,0,1,125,196l3.39-2.11a.3.3,0,0,1,.47.26V201Zm13.48-3.42a.31.31,0,0,1,.42-.28l3.62,1.57a.31.31,0,0,1,.18.28v5.41a.31.31,0,0,1-.3.3h-.09l-3.62-1.11a.3.3,0,0,1-.21-.29v-5.86Zm0,11.72a.3.3,0,0,1,.36-.3l3.62.66a.3.3,0,0,1,.25.3v5.46a.31.31,0,0,1-.3.31h0l-3.62-.26a.3.3,0,0,1-.28-.3v-5.86Zm-9.42-15.79a.3.3,0,0,1,.42-.28l5.14,2.22a.31.31,0,0,1,.18.28v6.39a.31.31,0,0,1-.3.3h-.09l-5.14-1.58a.3.3,0,0,1-.21-.29v-7Zm0,21.11v-7a.3.3,0,0,1,.36-.3l5.14.94a.31.31,0,0,1,.25.3v6.39a.31.31,0,0,1-.3.3h0l-5.14-.29A.31.31,0,0,1,132.89,214.64Zm10,21a.3.3,0,0,1-.2.28L136,238.53l-.11,0a.31.31,0,0,1-.17-.05.3.3,0,0,1-.13-.25V221.5a.3.3,0,0,1,.28-.3l6.73-.46a.3.3,0,0,1,.23.08.3.3,0,0,1,.1.22v14.65ZM151,232.6a.3.3,0,0,1-.2.28l-4.49,1.71-.11,0a.31.31,0,0,1-.17-.05.31.31,0,0,1-.13-.25V220.8a.3.3,0,0,1,.28-.3l4.49-.3a.3.3,0,0,1,.32.3Zm1.3-16.88a.31.31,0,0,1-.3.3h0l-2.69-.15a.3.3,0,0,1-.29-.3v-5a.3.3,0,0,1,.36-.3l2.69.49a.3.3,0,0,1,.25.3v4.68Zm0-9.37a.31.31,0,0,1-.3.3h-.09l-2.69-.82a.3.3,0,0,1-.21-.29v-5a.31.31,0,0,1,.14-.25.3.3,0,0,1,.29,0l2.69,1.16a.31.31,0,0,1,.18.28v4.68h0Zm5.37,17.7a.3.3,0,0,1-.25.3l-2,.38h-.06a.3.3,0,0,1-.3-.3v-4.26a.3.3,0,0,1,.28-.3l2-.13a.31.31,0,0,1,.23.08.3.3,0,0,1,.1.22v4h0Zm0-8a.3.3,0,0,1-.3.3h0l-2-.11a.3.3,0,0,1-.29-.3v-4.26a.3.3,0,0,1,.11-.23.31.31,0,0,1,.25-.07l2,.36a.31.31,0,0,1,.25.3v4Zm3.3,7.39a.3.3,0,0,1-.25.3l-1.56.3h-.06a.3.3,0,0,1-.3-.3v-3.79a.3.3,0,0,1,.28-.3l1.56-.11a.31.31,0,0,1,.23.08.31.31,0,0,1,.1.22v3.6Zm0-7.2a.31.31,0,0,1-.1.22.3.3,0,0,1-.21.08h0l-1.56-.09a.3.3,0,0,1-.29-.3v-3.75a.3.3,0,0,1,.35-.3l1.56.24a.3.3,0,0,1,.26.3v3.6h0Z"/><path class="cls-1" d="M116,264c-2.33,0-4.12-1.27-4.12-3.34h2a1.87,1.87,0,0,0,2.08,1.73c1.34,0,2.1-.72,2.1-1.71,0-2.82-6.19-1-6.19-5.28,0-2,1.63-3.32,4-3.32,2.23,0,3.81,1.17,4,3.17h-2.11a1.82,1.82,0,0,0-2-1.54c-1.11,0-2,.5-2,1.63,0,2.63,6.17,1,6.17,5.25C120.06,262.37,118.64,264,116,264Z"/><path class="cls-1" d="M126.3,264.08a4.48,4.48,0,0,1-4.61-4.78,4.42,4.42,0,0,1,4.61-4.76,4.31,4.31,0,0,1,4.49,4.54,6,6,0,0,1-.07.94h-7.06a2.54,2.54,0,0,0,2.63,2.45,2.24,2.24,0,0,0,2.18-1.29h2.06A4.22,4.22,0,0,1,126.3,264.08Zm-2.62-5.6h5.11a2.4,2.4,0,0,0-2.58-2.33A2.52,2.52,0,0,0,123.69,258.48Z"/><path class="cls-1" d="M132.68,251.52h1.91v12.41h-1.91Z"/><path class="cls-1" d="M137.1,251.52H139v12.41H137.1Z"/><path class="cls-1" d="M145.51,264.08a4.48,4.48,0,0,1-4.61-4.78,4.42,4.42,0,0,1,4.61-4.76,4.31,4.31,0,0,1,4.49,4.54,5.85,5.85,0,0,1-.07.94h-7.06a2.54,2.54,0,0,0,2.63,2.45,2.24,2.24,0,0,0,2.18-1.29h2.06A4.22,4.22,0,0,1,145.51,264.08Zm-2.62-5.6H148a2.4,2.4,0,0,0-2.58-2.33A2.52,2.52,0,0,0,142.89,258.48Z"/><path class="cls-1" d="M153.79,263.93h-1.91v-9.24h1.91V256a3,3,0,0,1,2.77-1.49v2h-.49c-1.41,0-2.28.59-2.28,2.55Z"/><path class="cls-1" d="M212.63,252.27h8.13v1.56h-3.1v10.1h-1.91v-10.1h-3.12Z"/><path class="cls-1" d="M224.61,263.93H222.7v-9.24h1.91V256a3,3,0,0,1,2.77-1.49v2h-.49c-1.41,0-2.28.59-2.28,2.55Z"/><path class="cls-1" d="M237.5,263.93h-1.91v-1.11a3.44,3.44,0,0,1-2.73,1.24,3.61,3.61,0,0,1-3.81-3.94v-5.43h1.89v5.15c0,1.69.92,2.57,2.31,2.57s2.33-.87,2.33-2.57v-5.15h1.91Z"/><path class="cls-1" d="M243.91,254.54a4,4,0,0,1,4.26,3.07h-2.06a2.16,2.16,0,0,0-2.2-1.46c-1.54,0-2.57,1.14-2.57,3.15s1,3.17,2.57,3.17a2.11,2.11,0,0,0,2.2-1.46h2.06a4.15,4.15,0,0,1-4.26,3.07,4.78,4.78,0,0,1,0-9.54Z"/><path class="cls-1" d="M250.08,251.52H252v7.21l3.35-4H258l-4.26,4.63,4.26,4.61h-2.58L252,260v4h-1.91Z"/><path class="cls-1" d="M259.12,252.24a1.22,1.22,0,1,1,1.22,1.22A1.21,1.21,0,0,1,259.12,252.24Zm.25,2.45h1.91v9.24h-1.91Z"/><path class="cls-1" d="M270.36,258.76c0-1.69-.92-2.57-2.31-2.57s-2.33.87-2.33,2.57v5.17H263.8v-9.24h1.91v1.06a3.56,3.56,0,0,1,2.75-1.21,3.6,3.6,0,0,1,3.79,3.94v5.45h-1.9Z"/><path class="cls-1" d="M278.41,254.54a3.91,3.91,0,0,1,3.2,1.49v-1.34h1.93v9.39a4.19,4.19,0,0,1-4.51,4.41c-2.47,0-4.29-1.22-4.53-3.27h1.9a2.58,2.58,0,0,0,2.63,1.61,2.46,2.46,0,0,0,2.58-2.75v-1.54a4,4,0,0,1-3.2,1.54c-2.43,0-4.36-2-4.36-4.81A4.4,4.4,0,0,1,278.41,254.54Zm.4,1.66a2.83,2.83,0,0,0-2.8,3.07,2.91,2.91,0,0,0,2.8,3.15,3.13,3.13,0,0,0,0-6.22Z"/><path class="cls-1" d="M220.11,272.4h8.13V274h-3.1v10.1h-1.91V274h-3.12Z"/><path class="cls-1" d="M234.18,284.21a4.5,4.5,0,0,1-4.63-4.78,4.71,4.71,0,1,1,9.42,0A4.63,4.63,0,0,1,234.18,284.21Zm0-1.66a2.85,2.85,0,0,0,2.83-3.12,2.8,2.8,0,0,0-2.78-3.1c-1.44,0-2.73,1-2.73,3.1S232.73,282.55,234.18,282.55Z"/><path class="cls-1" d="M249.25,279.33h-2.11v4.73h-1.91V272.4h4c2.77,0,4.13,1.58,4.13,3.47C253.38,277.53,252.29,279.33,249.25,279.33Zm0-1.56c1.49,0,2.16-.72,2.16-1.9s-.67-1.91-2.16-1.91h-2.11v3.81Z"/><path class="cls-1" d="M259.22,284.21a4.51,4.51,0,0,1-4.63-4.78,4.71,4.71,0,1,1,9.42,0A4.63,4.63,0,0,1,259.22,284.21Zm0-1.66a2.85,2.85,0,0,0,2.83-3.12,2.8,2.8,0,0,0-2.78-3.1c-1.44,0-2.73,1-2.73,3.1S257.77,282.55,259.22,282.55Z"/><path class="cls-1" d="M267.82,284.06h-1.91v-9.24h1.91v1.34a3,3,0,0,1,2.77-1.49v2h-.49c-1.41,0-2.28.59-2.28,2.55Z"/><path class="cls-1" d="M272.65,276.38h-1.09v-1.56h1.09v-2.3h1.93v2.3h2.25v1.56h-2.25v5.11c0,.69.27,1,1.07,1h1.17v1.59h-1.51c-1.64,0-2.67-.69-2.67-2.57Z"/><path class="cls-1" d="M338.06,252.12a5.56,5.56,0,0,1,5.42,3.5h-2.3a3.26,3.26,0,0,0-3.12-1.83c-2.31,0-4,1.64-4,4.28s1.68,4.29,4,4.29a3.26,3.26,0,0,0,3.12-1.83h2.3a5.54,5.54,0,0,1-5.42,3.49,6,6,0,0,1,0-11.91Z"/><path class="cls-1" d="M349.43,254.54a3.93,3.93,0,0,1,3.2,1.49v-1.34h1.93v9.24h-1.93v-1.37a4,4,0,0,1-3.24,1.53c-2.4,0-4.33-2-4.33-4.81A4.4,4.4,0,0,1,349.43,254.54Zm.4,1.66a2.83,2.83,0,0,0-2.8,3.07,2.91,2.91,0,0,0,2.8,3.15,3.13,3.13,0,0,0,0-6.22Z"/><path class="cls-1" d="M359,263.93h-1.91v-9.24H359V256a3,3,0,0,1,2.77-1.49v2h-.49c-1.41,0-2.28.59-2.28,2.55Z"/><path class="cls-1" d="M367.24,254.54a3.92,3.92,0,0,1,3.2,1.49v-1.34h1.93v9.39a4.19,4.19,0,0,1-4.51,4.41c-2.46,0-4.29-1.22-4.53-3.27h1.89a2.58,2.58,0,0,0,2.63,1.61,2.46,2.46,0,0,0,2.58-2.75v-1.54a4,4,0,0,1-3.2,1.54c-2.43,0-4.36-2-4.36-4.81A4.4,4.4,0,0,1,367.24,254.54Zm.4,1.66a2.83,2.83,0,0,0-2.8,3.07,2.91,2.91,0,0,0,2.8,3.15,3.13,3.13,0,0,0,0-6.22Z"/><path class="cls-1" d="M378.9,264.08a4.51,4.51,0,0,1-4.63-4.78,4.71,4.71,0,1,1,9.42,0A4.63,4.63,0,0,1,378.9,264.08Zm0-1.66a2.85,2.85,0,0,0,2.83-3.12,2.8,2.8,0,0,0-2.78-3.1c-1.44,0-2.73,1-2.73,3.1S377.46,262.42,378.9,262.42Z"/><path class="cls-1" d="M321.17,272.4h8.13V274h-3.1v10.1h-1.91V274h-3.12Z"/><path class="cls-1" d="M335.21,284.21a4.48,4.48,0,0,1-4.61-4.78,4.42,4.42,0,0,1,4.61-4.76,4.31,4.31,0,0,1,4.49,4.54,5.85,5.85,0,0,1-.07.94h-7.06a2.54,2.54,0,0,0,2.63,2.45,2.24,2.24,0,0,0,2.18-1.29h2.06A4.22,4.22,0,0,1,335.21,284.21Zm-2.62-5.6h5.11a2.4,2.4,0,0,0-2.58-2.33A2.52,2.52,0,0,0,332.59,278.6Z"/><path class="cls-1" d="M343.5,284.06h-1.91v-9.24h1.91v1.34a3,3,0,0,1,2.77-1.49v2h-.49c-1.41,0-2.28.59-2.28,2.55Z"/><path class="cls-1" d="M361.12,278.89c0-1.69-.92-2.57-2.31-2.57s-2.33.87-2.33,2.57v5.17h-1.9v-5.17c0-1.69-.92-2.57-2.31-2.57s-2.33.87-2.33,2.57v5.17H348v-9.24h1.91v1.06a3.52,3.52,0,0,1,2.73-1.21,3.56,3.56,0,0,1,3.32,1.83,3.79,3.79,0,0,1,7,2.11v5.45h-1.9Z"/><path class="cls-1" d="M365.2,272.37a1.22,1.22,0,1,1,1.22,1.22A1.21,1.21,0,0,1,365.2,272.37Zm.25,2.45h1.91v9.24h-1.91Z"/><path class="cls-1" d="M376.43,278.89c0-1.69-.92-2.57-2.31-2.57s-2.33.87-2.33,2.57v5.17h-1.91v-9.24h1.91v1.06a3.56,3.56,0,0,1,2.75-1.21,3.6,3.6,0,0,1,3.79,3.94v5.45h-1.89Z"/><path class="cls-1" d="M384.48,274.66a3.93,3.93,0,0,1,3.2,1.49v-1.34h1.93v9.24h-1.93v-1.37a4,4,0,0,1-3.24,1.53c-2.4,0-4.33-2-4.33-4.81A4.4,4.4,0,0,1,384.48,274.66Zm.4,1.66a2.83,2.83,0,0,0-2.8,3.07,2.91,2.91,0,0,0,2.8,3.15,3.13,3.13,0,0,0,0-6.22Z"/><path class="cls-1" d="M392.13,271.65H394v12.41h-1.91Z"/><path class="cls-1" d="M442,252.12a5.55,5.55,0,0,1,5.42,3.5h-2.3A3.26,3.26,0,0,0,442,253.8c-2.31,0-4,1.64-4,4.28s1.68,4.29,4,4.29a3.26,3.26,0,0,0,3.12-1.83h2.3A5.54,5.54,0,0,1,442,264a6,6,0,0,1,0-11.91Z"/><path class="cls-1" d="M458,263.93h-1.91v-1.11a3.44,3.44,0,0,1-2.73,1.24,3.61,3.61,0,0,1-3.81-3.94v-5.43h1.89v5.15c0,1.69.92,2.57,2.31,2.57s2.33-.87,2.33-2.57v-5.15H458Z"/><path class="cls-1" d="M463.86,264.08c-2.21,0-3.77-1.31-3.86-3h2a1.69,1.69,0,0,0,1.84,1.38c1.11,0,1.69-.47,1.69-1.11,0-1.81-5.37-.77-5.37-4.16,0-1.48,1.38-2.67,3.55-2.67s3.47,1.12,3.57,3h-1.91a1.53,1.53,0,0,0-1.73-1.36c-1,0-1.56.42-1.56,1,0,1.86,5.21.82,5.32,4.16C467.4,262.91,466,264.08,463.86,264.08Z"/><path class="cls-1" d="M469.77,256.25h-1.09v-1.56h1.09v-2.3h1.93v2.3h2.25v1.56H471.7v5.11c0,.69.27,1,1.07,1h1.17v1.59h-1.51c-1.64,0-2.67-.69-2.67-2.57Z"/><path class="cls-1" d="M479.71,264.08a4.5,4.5,0,0,1-4.63-4.78,4.71,4.71,0,1,1,9.42,0A4.63,4.63,0,0,1,479.71,264.08Zm0-1.66a2.85,2.85,0,0,0,2.83-3.12,2.8,2.8,0,0,0-2.78-3.1c-1.44,0-2.73,1-2.73,3.1S478.27,262.42,479.71,262.42Z"/><path class="cls-1" d="M499.5,258.76c0-1.69-.92-2.57-2.31-2.57s-2.33.87-2.33,2.57v5.17H493v-5.17c0-1.69-.92-2.57-2.31-2.57s-2.33.87-2.33,2.57v5.17H486.4v-9.24h1.91v1.06a3.52,3.52,0,0,1,2.73-1.21,3.56,3.56,0,0,1,3.32,1.83,3.79,3.79,0,0,1,7,2.11v5.45h-1.9Z"/><path class="cls-1" d="M507.18,264.08c-2.21,0-3.77-1.31-3.86-3h2a1.69,1.69,0,0,0,1.84,1.38c1.11,0,1.69-.47,1.69-1.11,0-1.81-5.37-.77-5.37-4.16,0-1.48,1.38-2.67,3.55-2.67s3.47,1.12,3.57,3h-1.91a1.53,1.53,0,0,0-1.73-1.36c-1,0-1.56.42-1.56,1,0,1.86,5.21.82,5.32,4.16C510.72,262.91,509.36,264.08,507.18,264.08Z"/><path class="cls-4" d="M227.4,235.49v-4.65a1.81,1.81,0,0,0-1.81-1.81h-.47v-17a.45.45,0,0,0-.2-.38l-1.15-.76a.45.45,0,0,0-.7.38v5.45l-.34-.92a3.17,3.17,0,0,0-3-2.07h-7.91a3.17,3.17,0,0,0-3,2.09l-.33.9V211.3a.45.45,0,0,0-.7-.38l-1.15.76a.45.45,0,0,0-.2.38v17H206a1.81,1.81,0,0,0-1.81,1.81v4.65h-.77a.45.45,0,0,0-.45.45v2.5a.45.45,0,0,0,.45.45h2v1.2a.9.9,0,0,0,.9.9h2.4a.9.9,0,0,0,.9-.9v-1.2H222v1.2a.9.9,0,0,0,.9.9h2.4a.9.9,0,0,0,.9-.9v-1.2h2a.45.45,0,0,0,.45-.45v-2.5a.45.45,0,0,0-.45-.45Zm-18.26-16.22h13.32v4.46H209.15Zm-.31,15h-1.55a.85.85,0,0,1-.85-.85v0a.85.85,0,0,1,.85-.85h1.55a.85.85,0,0,1,.85.85v0A.85.85,0,0,1,208.84,234.23Zm10,.25h-6.15a.9.9,0,0,1-.9-.9v-5.73a.9.9,0,0,1,.9-.9h6.15a.9.9,0,0,1,.9.9v5.73A.9.9,0,0,1,218.88,234.48Zm5.44-.25h-1.55a.85.85,0,0,1-.85-.85v0a.85.85,0,0,1,.85-.85h1.55a.85.85,0,0,1,.85.85v0A.85.85,0,0,1,224.32,234.23Zm-5.58-4h-5.89a.45.45,0,0,1-.45-.45h0a.45.45,0,0,1,.45-.45h5.89a.45.45,0,0,1,.45.45h0A.45.45,0,0,1,218.74,230.25Zm0-1.81h-5.89a.45.45,0,0,1-.45-.45h0a.45.45,0,0,1,.45-.45h5.89a.45.45,0,0,1,.45.45h0A.45.45,0,0,1,218.74,228.44Zm0,5.43h-5.89a.45.45,0,0,1-.45-.45h0a.45.45,0,0,1,.45-.45h5.89a.45.45,0,0,1,.45.45h0A.45.45,0,0,1,218.74,233.87Zm0-1.81h-5.89a.45.45,0,0,1-.45-.45h0a.45.45,0,0,1,.45-.45h5.89a.45.45,0,0,1,.45.45h0A.45.45,0,0,1,218.74,232.06Z"/><path class="cls-4" d="M242.21,231.66l1.86,3,9.25-4.44a5.79,5.79,0,0,1,5,0l9.32,4.62,2-3.14a4.07,4.07,0,0,0-1.65-6l-1.21-.65.82-7.62h1a.87.87,0,0,0,.87-.87v-5.23a.87.87,0,0,0-.87-.87h-6.1v-6.1a.87.87,0,0,0-.87-.87H261l-3.79-3v-2.2l19.18,14.39V219l-2.56,6.83a.86.86,0,0,0,0,.28s0,0,0,0v14a.87.87,0,0,0,.87.87h14a.87.87,0,0,0,.87-.87v-2.62h-6.1a.87.87,0,1,1,0-1.74h6.1V234h-4.36a.87.87,0,1,1,0-1.74h4.36v-6.1s0,0,0,0a.86.86,0,0,0,0-.28L286.82,219v-3.33h4.36a.87.87,0,0,0,.73-.39l1.74-2.62a.87.87,0,0,0,.15-.48V207a.87.87,0,0,0-.87-.87H282.71l-22.1-13.6a4.35,4.35,0,1,0-5.18,4.79v3.16l-3.79,3h-.57a.87.87,0,0,0-.87.87v6.1h-6.1a.87.87,0,0,0-.87.87v5.23a.87.87,0,0,0,.87.87h.1l.88,7.53-1.36.72a4.07,4.07,0,0,0-1.51,5.95ZM285.95,214h-2.62v-6.1h8.72V212l-1.34,2Zm-8.11,6.1h7.51l2,5.23H275.87Zm-19.55-23.15c.08,0,.15-.1.23-.15l.35-.22c.11-.08.22-.18.33-.27s.2-.18.3-.28.18-.21.27-.32.17-.22.24-.34.14-.24.2-.37a4.2,4.2,0,0,0,.17-.38s0-.09.06-.14l21.16,13v3.87h-4.07Zm-2-1.27a2.62,2.62,0,1,1,2.62-2.62A2.62,2.62,0,0,1,256.3,195.66Zm1.87,7.85h-3.75l1.87-1.5Zm-12.23,14h19.85l-.73,6.72-6.61-3.58a6.4,6.4,0,0,0-5,0l-6.72,3.54Z"/><path class="cls-4" d="M254.07,231.8,245,236.16l2.73,4.42a.87.87,0,0,0,.74.41h14.82a.87.87,0,0,0,.74-.41l2.67-4.26-9.14-4.53A4.05,4.05,0,0,0,254.07,231.8Z"/><circle class="cls-4" cx="256.3" cy="193.05" r="0.87"/><rect class="cls-4" x="226.69" y="226.95" width="7.79" height="0.93"/><path class="cls-4" d="M240.11,227.42a28.16,28.16,0,0,0-8,4.43l1.6-4.43-1.6-4.43A28.13,28.13,0,0,0,240.11,227.42Z"/><path class="cls-4" d="M383.55,231.57a6.33,6.33,0,0,1-4.07-1.38,1.61,1.61,0,0,0-1.22-.36V210.41a2.41,2.41,0,0,1,2.41-2.41,1.63,1.63,0,0,0,1.63-1.63v-4.68h1.64a1.63,1.63,0,1,0,0-3.27H331.88a1.63,1.63,0,0,0,0,3.27h1.64v4.68a1.63,1.63,0,0,0,1.63,1.63,2.41,2.41,0,0,1,2.41,2.41v19.42a1.62,1.62,0,0,0-1.22.36,6.34,6.34,0,0,1-4.07,1.38,1.63,1.63,0,0,0,0,3.27,9.79,9.79,0,0,0,5.13-1.39,10.13,10.13,0,0,0,10.26,0,10.14,10.14,0,0,0,10.26,0,10.13,10.13,0,0,0,10.26,0,10.13,10.13,0,0,0,10.26,0,9.79,9.79,0,0,0,5.13,1.39,1.63,1.63,0,0,0,0-3.27Zm-20.51,0a6.34,6.34,0,0,1-4.07-1.38,1.63,1.63,0,0,0-2.12,0,6.68,6.68,0,0,1-8.14,0,1.59,1.59,0,0,0-.15-.09v-19.7A2.41,2.41,0,0,1,351,208a1.63,1.63,0,0,0,1.63-1.63v-4.68h10.61v4.68a1.63,1.63,0,0,0,1.63,1.63,2.41,2.41,0,0,1,2.4,2.41v19.7a1.49,1.49,0,0,0-.15.09A6.34,6.34,0,0,1,363,231.57Zm22.15,8.66a1.63,1.63,0,0,1-1.63,1.63,9.79,9.79,0,0,1-5.13-1.39,10.13,10.13,0,0,1-10.26,0,10.13,10.13,0,0,1-10.26,0,10.13,10.13,0,0,1-10.26,0,10.13,10.13,0,0,1-10.26,0,9.79,9.79,0,0,1-5.13,1.39,1.63,1.63,0,1,1,0-3.27,6.34,6.34,0,0,0,4.07-1.38,1.63,1.63,0,0,1,2.12,0,6.68,6.68,0,0,0,8.14,0,1.64,1.64,0,0,1,2.12,0,6.68,6.68,0,0,0,8.14,0,1.63,1.63,0,0,1,2.12,0,6.68,6.68,0,0,0,8.14,0,1.63,1.63,0,0,1,2.12,0,6.68,6.68,0,0,0,8.14,0,1.64,1.64,0,0,1,2.12,0,6.34,6.34,0,0,0,4.07,1.38A1.64,1.64,0,0,1,385.18,240.23Z"/><rect class="cls-4" x="470.68" y="221.89" width="14.4" height="10.52"/><rect class="cls-4" x="487.16" y="221.89" width="14.4" height="10.52"/><rect class="cls-4" x="506.98" y="226.62" width="14.4" height="10.52"/><path class="cls-4" d="M468.64,234.12V199.64H425.55v37.5h77.18v-3ZM438.21,225H428.5V205.08h9.71ZM452,225h-9.71V205.08H452Zm13.82,0h-9.71V205.08h9.71Z"/><path class="cls-4" d="M563.33,241.33c-1.2,0-2-.14-2-1.67q.06-17.14,0-34.28c0-1.29.5-1.75,1.76-1.73,2.74.05,5.48,0,8.22,0,2.28,0,2.28,0,2.28-2.36q0-16.53,0-33.06c0-2.35,0-2.37,2.3-2.38,3.85,0,7.7,0,11.54,0,2.3,0,2.33,0,2.34-2.33,0-10.32-.05-20.64.06-31,0-2.3-.41-3.55-2.82-4.5-4.22-1.66-6.33-5.19-6.39-9.76a10.72,10.72,0,0,1,6.49-9.78,10.41,10.41,0,0,1,11.64,2.14,4.24,4.24,0,0,0,4.09,1.23c2.66-.32,5.32-.65,8-.94l30.22-3.26c10.42-1.14,20.84-2.25,31.25-3.47,2.17-.25,4.48,0,6.33-1.89,1-1,2.63-.78,3.81.34a3,3,0,0,1,.28,4,4.53,4.53,0,0,0-.91,3.08c0,1.92,0,3.85,0,5.77,0,4.84,0-2.93,0,1.91,0,1.68-.62,2.21-2.07,1.95-1.26-.22-1.1-1.19-1.1-2,0-6.71,0-.8,0-7.51,0-2.35-.1-2.42-2.38-1.9l-44.34,9.92q-15.35,3.44-30.69,6.9a4.26,4.26,0,0,0-3.65,4c0,11.66,0,23.32,0,35,0,1.57.43,2.19,2.08,2.12,2.68-.12,5.36,0,8,0s2.75,0,2.75,2.83c0,11,0,21.92,0,32.88,0,1.58.46,2.2,2.1,2.12,2.27-.12,4.55,0,6.82-.05,1.57-.07,2.13.45,2.12,2.08-.06,11.08,0,22.16,0,33.23,0,2.34,0,2.36-2.3,2.36H591.49Q577.41,241.31,563.33,241.33Zm20.46-124.12a7.75,7.75,0,0,0,4.38,8.16c.48.21,1.14.76,1.52,0a1.48,1.48,0,0,0-.42-1.9c-.27-.21-.6-.36-.89-.56a5.4,5.4,0,0,1-2.13-6.14,5.45,5.45,0,0,1,10.36,0,5.33,5.33,0,0,1-2.15,6.14c-.24.17-.5.3-.75.45a1.43,1.43,0,0,0-.56,2c.42.81,1.13.19,1.66,0a7.65,7.65,0,0,0-3.45-14.56C587.57,110.73,584.65,113.23,583.79,117.21Zm-3.45,51.65a13.44,13.44,0,0,0-1.57,0c-.74.09-1.84-.42-2.06.7s-.43,2.3.74,3.18c2.18,1.63,4.33,3.32,6.47,5,.91.72,1.31.57,1.3-.62s0-2.32,0-3.48C585.23,168.85,585.23,168.85,580.35,168.86Zm-2.62,22.32c-.34,0-.78,0-.84.42a1,1,0,0,0,.39.71q3.5,2.75,7,5.45c.68.52.92.18.91-.53s0-1.16,0-1.74c0-4.28,0-4.28-4.35-4.31C579.82,191.18,578.77,191.17,577.72,191.19Zm6.65-3.5c.62.47.82,0,.83-.53,0-1.57,0-3.14,0-4.71,0-.52-.26-.94-.82-.95-2.47,0-4.94,0-7.4,0l-.16.45C579.32,183.85,581.84,185.78,584.37,187.69Zm-.63,16c.87,0,1.47-.18,1.47-1.24s-.42-1.36-1.37-1.34c-2,0-4,0-5.94,0-.86,0-1.27.34-1.28,1.24s.41,1.37,1.36,1.34,2,0,3,0S582.81,203.64,583.74,203.66Zm-7.1-5.21c0,.88.62,1,1.32,1h5.74l-7.07-5.4C576.64,195.82,576.63,197.14,576.64,198.45Zm0-13.9c-.38,5,.78,5.82,6.58,4.48l-6.37-4.91A2.73,2.73,0,0,0,576.67,184.56Zm.79-9.63c-.6-.46-.83-.08-.84.5q0,1.56,0,3.12a.94.94,0,0,0,1,1,31.46,31.46,0,0,0,5.7-.11C581.17,177.79,579.33,176.34,577.47,174.92Z"/><path class="cls-4" d="M687.21,208.19c0,10.32,0,20.64,0,31,0,1.67-.49,2.21-2.18,2.19q-10.58-.12-21.17,0a2.76,2.76,0,0,1-3.08-2.06q-7.32-19.1-14.81-38.14c-.47-1.19-.35-1.85.83-2.53q19.18-11.2,38.31-22.49c2-1.19,2.07-1.17,2.07,1.28q0,15.39,0,30.79ZM659,199.92c0-4.63,0-4.63-4.08-2.41-1.63.9-3.24,1.84-4.87,2.75-.65.36-1.16.7-.8,1.62Q654,214,658.68,226.12l.37,0Q659,213,659,199.92Z"/><path class="cls-4" d="M689.78,177c0-1.94.17-2,1.8-1.08q19.28,11.34,38.57,22.68a1.71,1.71,0,0,1,.88,2.52q-7.53,19.2-14.95,38.44a2.34,2.34,0,0,1-2.56,1.77c-7.17-.07-14.34-.08-21.5,0-1.77,0-2.29-.51-2.28-2.28.07-10.31,0-20.63,0-30.94S689.78,187.38,689.78,177Zm34.7,32.78c.95-2.44,1.86-4.9,2.87-7.32.47-1.11.38-1.78-.78-2.38-2.53-1.31-5-2.72-7.49-4.14-1.1-.63-1.44-.3-1.43.86q.08,9.07.12,18.15c0,3.83,0,7.67,0,11.5l.22.08Z"/><path class="cls-4" d="M688.41,156.79h30.26c2.28,0,2.35.07,2.36,2.36,0,8.28.05,16.56,0,24.84a3.11,3.11,0,0,0,1.76,3.06c3.91,2.32,7.73,4.79,11.63,7.12,1.14.68,1.5,1.35.61,2.46a10.24,10.24,0,0,0-.64,1c-1.2,1.91-1.19,1.9-3.14.69q-20.38-12.59-40.75-25.21a3.23,3.23,0,0,0-3.94,0c-13.33,8.26-26.71,16.43-40.07,24.64-3.44,2.11-2.54,2.1-4.73-1.1-.85-1.24-.56-1.84.67-2.56,4-2.34,7.83-4.85,11.8-7.18a3,3,0,0,0,1.66-2.93c-.06-8.16,0-16.33,0-24.49,0-2.74,0-2.75,2.83-2.75h29.74Zm-28.24,5.4c-2.36,0-2.37,0-2.37,2.28q0,9.18,0,18.36c0,1.83,0,1.86,1.65.88,9-5.5,18-11,26.95-16.58a3.51,3.51,0,0,1,4.37,0c8.42,5.32,16.92,10.52,25.39,15.77.45.28.91.52,1.34.82,1.06.74,1.4.37,1.39-.81,0-4.08,0-8.16,0-12.24,0-2.21-.07-4.43,0-6.64.06-1.46-.49-1.91-1.93-1.91-9.56,0-19.11,0-28.67,0Zm-.54-3.45a9,9,0,0,0-1.22.07.6.6,0,0,0-.53.6.63.63,0,0,0,.55.76,9.63,9.63,0,0,0,1.39.07h56.85a6.54,6.54,0,0,0,.7,0c.6-.06,1.47.14,1.39-.85-.07-.83-.86-.63-1.4-.63q-10.15,0-20.29,0H659.62Z"/><path class="cls-4" d="M705.51,144.71c1.92,0,3.84,0,5.75,0,1.22,0,1.84-.36,1.81-1.68-.06-2.15,0-4.3,0-6.45,0-1.1-.44-1.55-1.56-1.56-3.83,0-7.66-.09-11.49-.13-1.43,0-2.28.43-2.17,2.12a55.06,55.06,0,0,1,0,5.75c-.05,1.4.43,2,1.9,2C701.67,144.64,703.59,144.71,705.51,144.71Z"/><path class="cls-4" d="M689.31,144.72c2,0,4,0,5.93,0,1.17,0,1.72-.42,1.7-1.62,0-2.15,0-4.3,0-6.45,0-1-.31-1.64-1.49-1.63-4.12,0-8.23,0-12.35,0-1,0-1.34.49-1.33,1.4,0,2.27,0,4.53,0,6.8,0,1,.43,1.48,1.46,1.47,2,0,4.07,0,6.1,0Z"/><path class="cls-4" d="M673.41,144.71c1.92,0,3.84,0,5.76,0,1.16,0,1.72-.41,1.69-1.63q-.06-3.23,0-6.46c0-1.16-.45-1.75-1.63-1.74-4,.05-8,.12-12,.14-1.12,0-1.57.45-1.56,1.56q.05,3.23,0,6.46c0,1.18.45,1.7,1.65,1.67,2,0,4.08,0,6.11,0Z"/><path class="cls-4" d="M680.41,124.53c1.92,0,3.84,0,5.76,0,1.16,0,1.72-.41,1.69-1.63q-.06-3.23,0-6.46c0-1.16-.45-1.75-1.63-1.74-4,.05-8,.12-12,.14-1.12,0-1.57.45-1.56,1.56q.05,3.23,0,6.46c0,1.18.45,1.7,1.65,1.67,2,0,4.08,0,6.11,0Z"/><path class="cls-4" d="M712.88,146.26c-2,0-4,0-5.95,0-1.17,0-1.72.39-1.7,1.61,0,2.1,0,4.2,0,6.3,0,1.39.6,1.81,1.91,1.8q5.77-.08,11.54,0c1.24,0,1.82-.39,1.77-1.71-.07-2-.08-4.08,0-6.12.06-1.49-.59-1.93-2-1.87-1.86.08-3.73,0-5.6,0Z"/><path class="cls-4" d="M696.4,155.91c2,0,4.08,0,6.12,0,1,0,1.48-.44,1.47-1.47,0-2.27,0-4.55,0-6.82,0-.94-.4-1.38-1.36-1.37q-6.21,0-12.41,0a1.2,1.2,0,0,0-1.39,1.37c0,2.27,0,4.55,0,6.82,0,1.15.59,1.5,1.65,1.49C692.43,155.89,694.41,155.91,696.4,155.91Z"/><path class="cls-4" d="M680.09,146.26c-2,0-4,0-5.95,0-1,0-1.49.43-1.48,1.46,0,2.27,0,4.55,0,6.82,0,.94.42,1.38,1.37,1.38q6.21,0,12.42,0a1.2,1.2,0,0,0,1.38-1.38c0-2.27,0-4.55,0-6.82,0-1.18-.6-1.49-1.65-1.47C684.17,146.29,682.13,146.26,680.09,146.26Z"/><path class="cls-4" d="M664.34,155.91c1.92,0,3.85,0,5.77,0,1.18,0,1.7-.41,1.67-1.63-.05-2.16,0-4.32,0-6.47,0-1.09-.41-1.59-1.55-1.58q-6,0-12.07,0c-1.1,0-1.61.41-1.59,1.53,0,2.16,0,4.32,0,6.47,0,1.33.61,1.72,1.83,1.68,2-.05,4,0,5.95,0Z"/><path class="cls-1" d="M561.05,252.27v10.11H565v1.54h-5.85V252.27Z"/><path class="cls-1" d="M570.6,264.08A4.51,4.51,0,0,1,566,259.3a4.71,4.71,0,1,1,9.42,0A4.63,4.63,0,0,1,570.6,264.08Zm0-1.66a2.85,2.85,0,0,0,2.83-3.12,2.8,2.8,0,0,0-2.78-3.1c-1.44,0-2.73,1-2.73,3.1S569.16,262.42,570.6,262.42Z"/><path class="cls-1" d="M581,254.54a3.93,3.93,0,0,1,3.2,1.49v-1.34h1.93v9.24h-1.93v-1.37a4,4,0,0,1-3.24,1.53c-2.4,0-4.33-2-4.33-4.81A4.4,4.4,0,0,1,581,254.54Zm.4,1.66a2.83,2.83,0,0,0-2.8,3.07,2.91,2.91,0,0,0,2.8,3.15,3.13,3.13,0,0,0,0-6.22Z"/><path class="cls-1" d="M592.4,254.54a4.26,4.26,0,0,1,3.19,1.44v-4.46h1.93v12.41h-1.93v-1.39a3.83,3.83,0,0,1-3.2,1.54c-2.43,0-4.36-2-4.36-4.81A4.4,4.4,0,0,1,592.4,254.54Zm.39,1.66a2.83,2.83,0,0,0-2.8,3.07,2.91,2.91,0,0,0,2.8,3.15,3.13,3.13,0,0,0,0-6.22Z"/><path class="cls-1" d="M599.78,252.24a1.22,1.22,0,1,1,1.22,1.22A1.21,1.21,0,0,1,599.78,252.24Zm.25,2.45h1.91v9.24H600Z"/><path class="cls-1" d="M611,258.76c0-1.69-.92-2.57-2.31-2.57s-2.33.87-2.33,2.57v5.17h-1.91v-9.24h1.91v1.06a3.56,3.56,0,0,1,2.75-1.21,3.6,3.6,0,0,1,3.79,3.94v5.45H611Z"/><path class="cls-1" d="M619.07,254.54a3.92,3.92,0,0,1,3.2,1.49v-1.34h1.93v9.39a4.19,4.19,0,0,1-4.51,4.41c-2.46,0-4.29-1.22-4.53-3.27h1.89a2.58,2.58,0,0,0,2.63,1.61,2.46,2.46,0,0,0,2.58-2.75v-1.54a4,4,0,0,1-3.2,1.54c-2.43,0-4.36-2-4.36-4.81A4.4,4.4,0,0,1,619.07,254.54Zm.4,1.66a2.83,2.83,0,0,0-2.8,3.07,2.91,2.91,0,0,0,2.8,3.15,3.13,3.13,0,0,0,0-6.22Z"/><path class="cls-4" d="M1348,209.45v18.83a.91.91,0,0,0,.59.85l8.86,3.37,22.19,8.44h0a1,1,0,0,0,.35.06,1,1,0,0,0,.41-.11l15.83-8.67a.91.91,0,0,0,.47-.8v-1.68l2.9.42a.94.94,0,0,0,.26,0,.92.92,0,0,0,.31-.1l5.36-2.94a.91.91,0,0,0,.47-.8V211a.91.91,0,0,0-.54-.83l-5.35-2.37h0a1,1,0,0,0-.23-.06h-.24l-2.94.35v-7.88a.91.91,0,0,0-.38-.74l-15.83-11.29h0a.91.91,0,0,0-.47-.16.88.88,0,0,0-.45.09h0l-22.19,11a.91.91,0,0,0-.51.82v6.12l-8.22,2.52A.9.9,0,0,0,1348,209.45Zm55.47,13.06h0v-3a.31.31,0,0,1,.28-.3l1-.1a.3.3,0,0,1,.23.08.31.31,0,0,1,.1.23v2.83a.31.31,0,0,1-.22.29l-1,.28h-.08a.31.31,0,0,1-.18-.06.3.3,0,0,1-.12-.24Zm0-6h0v-3a.3.3,0,0,1,.12-.24.3.3,0,0,1,.26-.05l1,.27a.3.3,0,0,1,.23.29v2.83a.3.3,0,0,1-.3.3h0l-1-.08a.31.31,0,0,1-.28-.3Zm-3,6.86h0v-3.55a.3.3,0,0,1,.28-.3l1.39-.14a.3.3,0,0,1,.23.08.3.3,0,0,1,.1.23V223a.3.3,0,0,1-.22.29l-1.39.39h-.08a.3.3,0,0,1-.3-.3Zm0-10.65a.31.31,0,0,1,.12-.24.3.3,0,0,1,.26-.05l1.39.37a.31.31,0,0,1,.23.3v3.3a.3.3,0,0,1-.3.3h0l-1.39-.11a.31.31,0,0,1-.28-.3Zm-7.62,12.77v-4.92a.3.3,0,0,1,.28-.3l1.8-.18a.31.31,0,0,1,.23.08.3.3,0,0,1,.1.23V225a.3.3,0,0,1-.22.29l-1.8.5h-.08a.31.31,0,0,1-.3-.3Zm0-9.85v-4.93a.31.31,0,0,1,.38-.29l1.8.47a.3.3,0,0,1,.23.29v4.6a.31.31,0,0,1-.1.22.3.3,0,0,1-.21.08h0l-1.8-.15a.3.3,0,0,1-.28-.3Zm0-9.85v-4.92a.3.3,0,0,1,.47-.26l1.8,1.12a.3.3,0,0,1,.14.26v4.6a.31.31,0,0,1-.14.26.31.31,0,0,1-.17,0l-.12,0L1393,206a.3.3,0,0,1-.18-.28Zm-4.47,20.94V221a.3.3,0,0,1,.27-.3l2.41-.23a.31.31,0,0,1,.23.08.31.31,0,0,1,.1.23V226a.3.3,0,0,1-.22.29l-2.41.67h-.08a.31.31,0,0,1-.3-.3Zm0-11.46h0v-5.73a.3.3,0,0,1,.12-.24.3.3,0,0,1,.26-.05l2.41.63a.3.3,0,0,1,.23.29v5.3a.31.31,0,0,1-.3.31h0l-2.41-.2a.3.3,0,0,1-.28-.3Zm0-11.46h0v-5.73a.3.3,0,0,1,.47-.26l2.41,1.5a.3.3,0,0,1,.14.26v5.3a.3.3,0,0,1-.3.3.29.29,0,0,1-.12,0l-2.41-1.07a.3.3,0,0,1-.18-.28Zm-6.23,17.8a.31.31,0,0,1,.28-.3l3.39-.33a.3.3,0,0,1,.23.08.31.31,0,0,1,.1.23v6.24a.3.3,0,0,1-.2.29,20.86,20.86,0,0,1-3.39,1h0a.43.43,0,0,1-.31-.11.33.33,0,0,1-.1-.24C1382.17,228.14,1382.17,221.65,1382.17,221.58Zm0-6.85h0v-6.86a.3.3,0,0,1,.12-.24.3.3,0,0,1,.26-.05l3.39.89a.3.3,0,0,1,.23.29V215a.31.31,0,0,1-.3.31h0l-3.39-.28a.3.3,0,0,1-.28-.3Zm0-13.7v-6.85a.3.3,0,0,1,.47-.26L1386,196a.31.31,0,0,1,.14.26v6.24a.3.3,0,0,1-.14.26.31.31,0,0,1-.17,0,.29.29,0,0,1-.12,0l-3.39-1.5a.3.3,0,0,1-.18-.28Zm-13.48-3.42v5.86a.3.3,0,0,1-.21.29l-3.62,1.11h-.09a.31.31,0,0,1-.3-.3v-5.41a.31.31,0,0,1,.18-.28l3.62-1.57a.31.31,0,0,1,.42.28Zm0,11.72v5.86a.3.3,0,0,1-.28.3l-3.62.26h0a.31.31,0,0,1-.3-.31V210a.3.3,0,0,1,.25-.3l3.62-.66a.3.3,0,0,1,.36.3Zm9.42-15.79v7a.3.3,0,0,1-.21.29l-5.14,1.58h-.09a.31.31,0,0,1-.3-.3v-6.39a.31.31,0,0,1,.18-.28l5.14-2.22a.3.3,0,0,1,.42.28Zm-.29,21.42-5.14.29h0a.31.31,0,0,1-.3-.3v-6.39a.31.31,0,0,1,.25-.3l5.14-.94a.3.3,0,0,1,.36.3v7A.31.31,0,0,1,1377.82,214.95Zm-9.75,20.74V221a.3.3,0,0,1,.1-.22.3.3,0,0,1,.23-.08l6.73.46a.3.3,0,0,1,.28.3v16.75a.3.3,0,0,1-.13.25.31.31,0,0,1-.17.05l-.11,0-6.73-2.56a.3.3,0,0,1-.2-.28Zm-8.11-15.2a.3.3,0,0,1,.32-.3l4.49.3a.3.3,0,0,1,.28.3v13.52a.31.31,0,0,1-.13.25.31.31,0,0,1-.17.05l-.11,0-4.49-1.71a.3.3,0,0,1-.2-.28Zm-1.3-4.77V211a.3.3,0,0,1,.25-.3l2.69-.49a.3.3,0,0,1,.36.3v5a.3.3,0,0,1-.29.3L1359,216h0a.31.31,0,0,1-.3-.3Zm0-9.37h0v-4.68a.31.31,0,0,1,.18-.28l2.69-1.16a.3.3,0,0,1,.29,0,.31.31,0,0,1,.14.25v5a.3.3,0,0,1-.21.29l-2.69.82H1359a.31.31,0,0,1-.3-.3Zm-5.37,17.7h0v-4a.3.3,0,0,1,.1-.22.31.31,0,0,1,.23-.08l2,.13a.3.3,0,0,1,.28.3v4.26a.3.3,0,0,1-.3.3h-.06l-2-.38a.3.3,0,0,1-.25-.3Zm0-8v-4a.31.31,0,0,1,.25-.3l2-.36a.31.31,0,0,1,.25.07.3.3,0,0,1,.11.23v4.26a.3.3,0,0,1-.29.3l-2,.11h0a.3.3,0,0,1-.3-.3Zm-3.3,7.39v-3.6a.31.31,0,0,1,.1-.22.31.31,0,0,1,.23-.08l1.56.11a.3.3,0,0,1,.28.3v3.79a.3.3,0,0,1-.3.3h-.06l-1.56-.3a.3.3,0,0,1-.25-.3Zm0-7.2h0v-3.6a.3.3,0,0,1,.26-.3l1.56-.24a.3.3,0,0,1,.35.3v3.75a.3.3,0,0,1-.29.3l-1.56.09h0a.3.3,0,0,1-.31-.3Z"/><path class="cls-1" d="M1359,264c-2.33,0-4.12-1.27-4.12-3.34h2a1.87,1.87,0,0,0,2.08,1.73c1.34,0,2.1-.72,2.1-1.71,0-2.82-6.19-1-6.19-5.28,0-2,1.63-3.32,4-3.32,2.23,0,3.81,1.17,4,3.17h-2.11a1.82,1.82,0,0,0-2-1.54c-1.11,0-2,.5-2,1.63,0,2.63,6.17,1,6.17,5.25C1363.06,262.37,1361.63,264,1359,264Z"/><path class="cls-1" d="M1369.3,264.08a4.48,4.48,0,0,1-4.61-4.78,4.43,4.43,0,0,1,4.61-4.76,4.31,4.31,0,0,1,4.49,4.54,5.85,5.85,0,0,1-.07.94h-7.06a2.54,2.54,0,0,0,2.63,2.45,2.24,2.24,0,0,0,2.18-1.29h2.06A4.22,4.22,0,0,1,1369.3,264.08Zm-2.62-5.6h5.11a2.4,2.4,0,0,0-2.58-2.33A2.52,2.52,0,0,0,1366.68,258.48Z"/><path class="cls-1" d="M1375.67,251.52h1.91v12.41h-1.91Z"/><path class="cls-1" d="M1380.1,251.52H1382v12.41h-1.91Z"/><path class="cls-1" d="M1388.5,264.08a4.48,4.48,0,0,1-4.61-4.78,4.43,4.43,0,0,1,4.61-4.76,4.31,4.31,0,0,1,4.49,4.54,5.85,5.85,0,0,1-.07.94h-7.06a2.54,2.54,0,0,0,2.63,2.45,2.24,2.24,0,0,0,2.18-1.29h2.06A4.22,4.22,0,0,1,1388.5,264.08Zm-2.62-5.6H1391a2.4,2.4,0,0,0-2.58-2.33A2.52,2.52,0,0,0,1385.89,258.48Z"/><path class="cls-1" d="M1396.79,263.93h-1.91v-9.24h1.91V256a3,3,0,0,1,2.77-1.49v2h-.49c-1.41,0-2.28.59-2.28,2.55Z"/><path class="cls-1" d="M1226.85,252.27H1235v1.56h-3.1v10.1H1230v-10.1h-3.12Z"/><path class="cls-1" d="M1238.83,263.93h-1.91v-9.24h1.91V256a3,3,0,0,1,2.77-1.49v2h-.49c-1.41,0-2.28.59-2.28,2.55Z"/><path class="cls-1" d="M1251.72,263.93h-1.91v-1.11a3.44,3.44,0,0,1-2.73,1.24,3.61,3.61,0,0,1-3.81-3.94v-5.43h1.89v5.15c0,1.69.92,2.57,2.31,2.57s2.33-.87,2.33-2.57v-5.15h1.91Z"/><path class="cls-1" d="M1258.13,254.54a4,4,0,0,1,4.26,3.07h-2.06a2.16,2.16,0,0,0-2.2-1.46c-1.54,0-2.57,1.14-2.57,3.15s1,3.17,2.57,3.17a2.11,2.11,0,0,0,2.2-1.46h2.06a4.15,4.15,0,0,1-4.26,3.07,4.78,4.78,0,0,1,0-9.54Z"/><path class="cls-1" d="M1264.3,251.52h1.91v7.21l3.35-4h2.65l-4.26,4.63,4.26,4.61h-2.58l-3.42-4v4h-1.91Z"/><path class="cls-1" d="M1273.34,252.24a1.22,1.22,0,1,1,1.22,1.22A1.21,1.21,0,0,1,1273.34,252.24Zm.25,2.45h1.91v9.24h-1.91Z"/><path class="cls-1" d="M1284.58,258.76c0-1.69-.92-2.57-2.31-2.57s-2.33.87-2.33,2.57v5.17H1278v-9.24h1.91v1.06a3.56,3.56,0,0,1,2.75-1.21,3.6,3.6,0,0,1,3.79,3.94v5.45h-1.9Z"/><path class="cls-1" d="M1292.63,254.54a3.91,3.91,0,0,1,3.2,1.49v-1.34h1.93v9.39a4.19,4.19,0,0,1-4.51,4.41c-2.46,0-4.29-1.22-4.53-3.27h1.89a2.58,2.58,0,0,0,2.63,1.61,2.46,2.46,0,0,0,2.58-2.75v-1.54a4,4,0,0,1-3.2,1.54c-2.43,0-4.36-2-4.36-4.81A4.4,4.4,0,0,1,1292.63,254.54Zm.4,1.66a2.84,2.84,0,0,0-2.8,3.07,2.91,2.91,0,0,0,2.8,3.15,3.13,3.13,0,0,0,0-6.22Z"/><path class="cls-1" d="M1234.32,272.4h8.13V274h-3.1v10.1h-1.91V274h-3.12Z"/><path class="cls-1" d="M1248.39,284.21a4.5,4.5,0,0,1-4.63-4.78,4.71,4.71,0,1,1,9.42,0A4.63,4.63,0,0,1,1248.39,284.21Zm0-1.66a2.85,2.85,0,0,0,2.83-3.12,2.8,2.8,0,0,0-2.78-3.1c-1.44,0-2.73,1-2.73,3.1S1247,282.55,1248.39,282.55Z"/><path class="cls-1" d="M1263.47,279.33h-2.11v4.73h-1.91V272.4h4c2.77,0,4.13,1.58,4.13,3.47C1267.6,277.53,1266.51,279.33,1263.47,279.33Zm0-1.56c1.49,0,2.16-.72,2.16-1.9s-.67-1.91-2.16-1.91h-2.11v3.81Z"/><path class="cls-1" d="M1273.43,284.21a4.5,4.5,0,0,1-4.63-4.78,4.71,4.71,0,1,1,9.42,0A4.63,4.63,0,0,1,1273.43,284.21Zm0-1.66a2.85,2.85,0,0,0,2.83-3.12,2.8,2.8,0,0,0-2.78-3.1c-1.44,0-2.73,1-2.73,3.1S1272,282.55,1273.43,282.55Z"/><path class="cls-1" d="M1282,284.06h-1.91v-9.24H1282v1.34a3,3,0,0,1,2.77-1.49v2h-.49c-1.41,0-2.28.59-2.28,2.55Z"/><path class="cls-1" d="M1286.87,276.38h-1.09v-1.56h1.09v-2.3h1.93v2.3H1291v1.56h-2.25v5.11c0,.69.27,1,1.07,1H1291v1.59h-1.51c-1.64,0-2.67-.69-2.67-2.57Z"/><path class="cls-1" d="M1133.24,252.12a5.56,5.56,0,0,1,5.42,3.5h-2.3a3.26,3.26,0,0,0-3.12-1.83c-2.31,0-4,1.64-4,4.28s1.68,4.29,4,4.29a3.26,3.26,0,0,0,3.12-1.83h2.3a5.54,5.54,0,0,1-5.42,3.49,6,6,0,0,1,0-11.91Z"/><path class="cls-1" d="M1144.61,254.54a3.93,3.93,0,0,1,3.2,1.49v-1.34h1.93v9.24h-1.93v-1.37a4,4,0,0,1-3.24,1.53c-2.4,0-4.33-2-4.33-4.81A4.4,4.4,0,0,1,1144.61,254.54Zm.4,1.66a2.84,2.84,0,0,0-2.8,3.07,2.91,2.91,0,0,0,2.8,3.15,3.13,3.13,0,0,0,0-6.22Z"/><path class="cls-1" d="M1154.17,263.93h-1.91v-9.24h1.91V256a3,3,0,0,1,2.77-1.49v2h-.49c-1.41,0-2.28.59-2.28,2.55Z"/><path class="cls-1" d="M1162.42,254.54a3.91,3.91,0,0,1,3.2,1.49v-1.34h1.93v9.39a4.19,4.19,0,0,1-4.51,4.41c-2.46,0-4.29-1.22-4.53-3.27h1.89a2.58,2.58,0,0,0,2.63,1.61,2.46,2.46,0,0,0,2.58-2.75v-1.54a4,4,0,0,1-3.2,1.54c-2.43,0-4.36-2-4.36-4.81A4.4,4.4,0,0,1,1162.42,254.54Zm.4,1.66a2.84,2.84,0,0,0-2.8,3.07,2.91,2.91,0,0,0,2.8,3.15,3.13,3.13,0,0,0,0-6.22Z"/><path class="cls-1" d="M1174.08,264.08a4.5,4.5,0,0,1-4.63-4.78,4.71,4.71,0,1,1,9.42,0A4.63,4.63,0,0,1,1174.08,264.08Zm0-1.66a2.85,2.85,0,0,0,2.83-3.12,2.8,2.8,0,0,0-2.78-3.1c-1.44,0-2.73,1-2.73,3.1S1172.64,262.42,1174.08,262.42Z"/><path class="cls-1" d="M1116.35,272.4h8.13V274h-3.1v10.1h-1.91V274h-3.12Z"/><path class="cls-1" d="M1130.39,284.21a4.48,4.48,0,0,1-4.61-4.78,4.43,4.43,0,0,1,4.61-4.76,4.31,4.31,0,0,1,4.49,4.54,5.85,5.85,0,0,1-.07.94h-7.06a2.54,2.54,0,0,0,2.63,2.45,2.24,2.24,0,0,0,2.18-1.29h2.06A4.22,4.22,0,0,1,1130.39,284.21Zm-2.62-5.6h5.11a2.4,2.4,0,0,0-2.58-2.33A2.52,2.52,0,0,0,1127.77,278.6Z"/><path class="cls-1" d="M1138.67,284.06h-1.91v-9.24h1.91v1.34a3,3,0,0,1,2.77-1.49v2H1141c-1.41,0-2.28.59-2.28,2.55Z"/><path class="cls-1" d="M1156.3,278.89c0-1.69-.92-2.57-2.31-2.57s-2.33.87-2.33,2.57v5.17h-1.9v-5.17c0-1.69-.92-2.57-2.31-2.57s-2.33.87-2.33,2.57v5.17h-1.91v-9.24h1.91v1.06a3.52,3.52,0,0,1,2.73-1.21,3.57,3.57,0,0,1,3.32,1.83,3.79,3.79,0,0,1,7,2.11v5.45h-1.9Z"/><path class="cls-1" d="M1160.38,272.37a1.22,1.22,0,1,1,1.22,1.22A1.21,1.21,0,0,1,1160.38,272.37Zm.25,2.45h1.91v9.24h-1.91Z"/><path class="cls-1" d="M1171.61,278.89c0-1.69-.92-2.57-2.31-2.57s-2.33.87-2.33,2.57v5.17h-1.91v-9.24H1167v1.06a3.56,3.56,0,0,1,2.75-1.21,3.6,3.6,0,0,1,3.79,3.94v5.45h-1.9Z"/><path class="cls-1" d="M1179.66,274.66a3.93,3.93,0,0,1,3.2,1.49v-1.34h1.93v9.24h-1.93v-1.37a4,4,0,0,1-3.24,1.53c-2.4,0-4.33-2-4.33-4.81A4.4,4.4,0,0,1,1179.66,274.66Zm.4,1.66a2.84,2.84,0,0,0-2.8,3.07,2.91,2.91,0,0,0,2.8,3.15,3.13,3.13,0,0,0,0-6.22Z"/><path class="cls-1" d="M1187.31,271.65h1.91v12.41h-1.91Z"/><path class="cls-1" d="M1006,252.12a5.56,5.56,0,0,1,5.42,3.5h-2.3a3.26,3.26,0,0,0-3.12-1.83c-2.31,0-4,1.64-4,4.28s1.68,4.29,4,4.29a3.26,3.26,0,0,0,3.12-1.83h2.3A5.54,5.54,0,0,1,1006,264a6,6,0,0,1,0-11.91Z"/><path class="cls-1" d="M1022.06,263.93h-1.91v-1.11a3.44,3.44,0,0,1-2.73,1.24,3.61,3.61,0,0,1-3.81-3.94v-5.43h1.89v5.15c0,1.69.92,2.57,2.31,2.57s2.33-.87,2.33-2.57v-5.15h1.91Z"/><path class="cls-1" d="M1027.93,264.08c-2.21,0-3.77-1.31-3.86-3h2a1.69,1.69,0,0,0,1.84,1.38c1.11,0,1.69-.47,1.69-1.11,0-1.81-5.37-.77-5.37-4.16,0-1.48,1.38-2.67,3.56-2.67s3.47,1.12,3.57,3h-1.91a1.53,1.53,0,0,0-1.73-1.36c-1,0-1.56.42-1.56,1,0,1.86,5.22.82,5.32,4.16C1031.47,262.91,1030.11,264.08,1027.93,264.08Z"/><path class="cls-1" d="M1033.84,256.25h-1.09v-1.56h1.09v-2.3h1.93v2.3H1038v1.56h-2.25v5.11c0,.69.27,1,1.07,1H1038v1.59h-1.51c-1.64,0-2.67-.69-2.67-2.57Z"/><path class="cls-1" d="M1043.78,264.08a4.5,4.5,0,0,1-4.63-4.78,4.71,4.71,0,1,1,9.42,0A4.63,4.63,0,0,1,1043.78,264.08Zm0-1.66a2.85,2.85,0,0,0,2.83-3.12,2.8,2.8,0,0,0-2.78-3.1c-1.44,0-2.73,1-2.73,3.1S1042.34,262.42,1043.78,262.42Z"/><path class="cls-1" d="M1063.57,258.76c0-1.69-.92-2.57-2.31-2.57s-2.33.87-2.33,2.57v5.17H1057v-5.17c0-1.69-.92-2.57-2.31-2.57s-2.33.87-2.33,2.57v5.17h-1.91v-9.24h1.91v1.06a3.52,3.52,0,0,1,2.73-1.21,3.57,3.57,0,0,1,3.32,1.83,3.79,3.79,0,0,1,7,2.11v5.45h-1.9Z"/><path class="cls-1" d="M1071.25,264.08c-2.21,0-3.77-1.31-3.86-3h2a1.69,1.69,0,0,0,1.84,1.38c1.11,0,1.69-.47,1.69-1.11,0-1.81-5.37-.77-5.37-4.16,0-1.48,1.38-2.67,3.56-2.67s3.47,1.12,3.57,3h-1.91a1.53,1.53,0,0,0-1.73-1.36c-1,0-1.56.42-1.56,1,0,1.86,5.21.82,5.32,4.16C1074.79,262.91,1073.44,264.08,1071.25,264.08Z"/><path class="cls-4" d="M1283.6,235.49h-.77a.45.45,0,0,0-.45.45v2.5a.45.45,0,0,0,.45.45h2v1.2a.9.9,0,0,0,.9.9h2.4a.9.9,0,0,0,.9-.9v-1.2h12.42v1.2a.9.9,0,0,0,.9.9h2.4a.9.9,0,0,0,.9-.9v-1.2h2a.45.45,0,0,0,.45-.45v-2.5a.45.45,0,0,0-.45-.45h-.77v-4.65A1.81,1.81,0,0,0,1305,229h-.47v-17a.45.45,0,0,0-.2-.38l-1.15-.76a.45.45,0,0,0-.7.38v5.45l-.33-.9a3.17,3.17,0,0,0-3-2.09h-7.91a3.17,3.17,0,0,0-3,2.07l-.34.92V211.3a.45.45,0,0,0-.7-.38l-1.15.76a.45.45,0,0,0-.2.38v17h-.47a1.81,1.81,0,0,0-1.81,1.81v4.65Zm18.26-11.77h-13.32v-4.46h13.32Zm-.55,9.65v0a.85.85,0,0,1,.85-.85h1.55a.85.85,0,0,1,.85.85v0a.85.85,0,0,1-.85.85h-1.55A.85.85,0,0,1,1301.31,233.37Zm-10.1.2v-5.73a.9.9,0,0,1,.9-.9h6.15a.9.9,0,0,1,.9.9v5.73a.9.9,0,0,1-.9.9h-6.15A.9.9,0,0,1,1291.21,233.58Zm-5.39-.2v0a.85.85,0,0,1,.85-.85h1.55a.85.85,0,0,1,.85.85v0a.85.85,0,0,1-.85.85h-1.55A.85.85,0,0,1,1285.82,233.37Zm6-3.57h0a.45.45,0,0,1,.45-.45h5.89a.45.45,0,0,1,.45.45h0a.45.45,0,0,1-.45.45h-5.89A.45.45,0,0,1,1291.81,229.8Zm0-1.81h0a.45.45,0,0,1,.45-.45h5.89a.45.45,0,0,1,.45.45h0a.45.45,0,0,1-.45.45h-5.89A.45.45,0,0,1,1291.81,228Zm0,5.43h0a.45.45,0,0,1,.45-.45h5.89a.45.45,0,0,1,.45.45h0a.45.45,0,0,1-.45.45h-5.89A.45.45,0,0,1,1291.81,233.42Zm0-1.81h0a.45.45,0,0,1,.45-.45h5.89a.45.45,0,0,1,.45.45h0a.45.45,0,0,1-.45.45h-5.89A.45.45,0,0,1,1291.81,231.61Z"/><path class="cls-4" d="M1269.39,228.33a4.06,4.06,0,0,0-2.11-2.62l-1.36-.72.88-7.53h.1a.87.87,0,0,0,.87-.87v-5.23a.87.87,0,0,0-.87-.87h-6.1v-6.1a.87.87,0,0,0-.87-.87h-.57l-3.79-3v-3.16a4.36,4.36,0,1,0-5.18-4.79l-22.1,13.6h-10.22a.87.87,0,0,0-.87.87v5.23a.87.87,0,0,0,.15.48l1.74,2.62a.87.87,0,0,0,.73.39h4.36V219l-2.56,6.83a.86.86,0,0,0,0,.28s0,0,0,0v6.1h4.36a.87.87,0,1,1,0,1.74h-4.36v1.74h6.1a.87.87,0,1,1,0,1.74h-6.1v2.62a.87.87,0,0,0,.87.87h14a.87.87,0,0,0,.87-.87v-14s0,0,0,0a.86.86,0,0,0,0-.28l-2.56-6.83v-6.38l19.18-14.39v2.2l-3.79,3h-.57a.87.87,0,0,0-.87.87v6.1h-6.1a.87.87,0,0,0-.87.87v5.23a.87.87,0,0,0,.87.87h1l.82,7.62-1.21.65a4.07,4.07,0,0,0-1.65,6l2,3.14,9.32-4.62a5.79,5.79,0,0,1,5,0l9.25,4.44,1.86-3A4.07,4.07,0,0,0,1269.39,228.33ZM1220.29,214l-1.34-2v-4.1h8.72V214h-7.38Zm14.84,11.33H1223.7l2-5.23h7.51Zm-1.65-14h-4.07v-3.87l21.16-13s0,.09.06.14a4.2,4.2,0,0,0,.17.38c.06.13.13.25.2.37s.16.23.24.34.17.22.27.32.19.19.3.28.21.18.33.27l.35.22c.08,0,.15.1.23.15Zm18.6-18.31a2.62,2.62,0,1,1,2.62,2.62A2.62,2.62,0,0,1,1252.08,193Zm2.62,9,1.87,1.5h-3.75Zm9.57,22.11-6.72-3.54a6.4,6.4,0,0,0-5,0l-6.61,3.58-.73-6.72h19.85Z"/><path class="cls-4" d="M1253.46,231.81l-9.14,4.53,2.67,4.26a.87.87,0,0,0,.74.41h14.82a.87.87,0,0,0,.74-.41l2.73-4.42-9.08-4.36A4.05,4.05,0,0,0,1253.46,231.81Z"/><circle class="cls-4" cx="1254.7" cy="193.05" r="0.87"/><rect class="cls-4" x="1276.52" y="226.95" width="7.79" height="0.93"/><path class="cls-4" d="M1270.89,227.42a28.16,28.16,0,0,1,8,4.43l-1.6-4.43,1.6-4.43A28.13,28.13,0,0,1,1270.89,227.42Z"/><path class="cls-4" d="M1125.82,233.21a1.63,1.63,0,0,0,1.63,1.63,10.14,10.14,0,0,1,10.26,0,10.13,10.13,0,0,1,10.26,0,10.14,10.14,0,0,1,10.26,0,10.14,10.14,0,0,1,10.26,0,10.13,10.13,0,0,1,10.26,0,1.63,1.63,0,1,0,0-3.27,6.34,6.34,0,0,1-4.07-1.38,1.62,1.62,0,0,0-1.22-.36V210.41a2.41,2.41,0,0,1,2.41-2.41,1.63,1.63,0,0,0,1.63-1.63v-4.68h1.64a1.63,1.63,0,0,0,0-3.27h-52.06a1.63,1.63,0,1,0,0,3.27h1.64v4.68a1.63,1.63,0,0,0,1.63,1.63,2.41,2.41,0,0,1,2.41,2.41v19.42a1.61,1.61,0,0,0-1.22.36,6.33,6.33,0,0,1-4.07,1.38A1.63,1.63,0,0,0,1125.82,233.21Zm18.08-3a1.49,1.49,0,0,0-.15-.09v-19.7a2.41,2.41,0,0,1,2.4-2.41,1.63,1.63,0,0,0,1.63-1.63v-4.68h10.61v4.68A1.63,1.63,0,0,0,1160,208a2.41,2.41,0,0,1,2.41,2.41v19.7a1.59,1.59,0,0,0-.15.09,6.68,6.68,0,0,1-8.14,0,1.63,1.63,0,0,0-2.12,0,6.68,6.68,0,0,1-8.14,0Zm-16.44,8.4a6.34,6.34,0,0,0,4.07-1.38,1.64,1.64,0,0,1,2.12,0,6.68,6.68,0,0,0,8.14,0,1.63,1.63,0,0,1,2.12,0,6.68,6.68,0,0,0,8.14,0,1.63,1.63,0,0,1,2.12,0,6.68,6.68,0,0,0,8.14,0,1.64,1.64,0,0,1,2.12,0,6.68,6.68,0,0,0,8.14,0,1.63,1.63,0,0,1,2.12,0,6.34,6.34,0,0,0,4.07,1.38,1.63,1.63,0,0,1,0,3.27,10.13,10.13,0,0,0-10.26,0,10.13,10.13,0,0,0-10.26,0,10.13,10.13,0,0,0-10.26,0,10.13,10.13,0,0,0-10.26,0,10.13,10.13,0,0,0-10.26,0,1.63,1.63,0,1,1,0-3.27Z"/><rect class="cls-4" x="1025.92" y="221.89" width="14.4" height="10.52" transform="translate(2066.23 454.3) rotate(-180)"/><rect class="cls-4" x="1009.44" y="221.89" width="14.4" height="10.52" transform="translate(2033.27 454.3) rotate(-180)"/><rect class="cls-4" x="989.62" y="226.62" width="14.4" height="10.52" transform="translate(1993.64 463.77) rotate(-180)"/><path class="cls-4" d="M1008.26,234.12v3h77.18v-37.5h-43.09v34.48Zm64.53-29h9.71V225h-9.71Zm-13.82,0h9.71V225H1059Zm-13.82,0h9.71V225h-9.71Z"/><path class="cls-4" d="M919.51,241.32H891.87c-2.27,0-2.29,0-2.3-2.36,0-11.08,0-22.16,0-33.23,0-1.63.55-2.15,2.12-2.08,2.27.1,4.55-.07,6.82.05,1.64.09,2.11-.54,2.1-2.12,0-11,0-21.92,0-32.88,0-2.82,0-2.83,2.75-2.83s5.37-.09,8,0c1.65.07,2.08-.55,2.08-2.12-.05-11.66,0-23.32,0-35a4.26,4.26,0,0,0-3.65-4q-15.34-3.47-30.69-6.9l-44.34-9.92c-2.28-.51-2.38-.44-2.38,1.9,0,6.71,0,.8,0,7.51,0,.85.16,1.81-1.1,2-1.45.26-2.07-.26-2.07-1.95,0-4.84,0,2.93,0-1.91,0-1.92,0-3.85,0-5.77a4.53,4.53,0,0,0-.91-3.08,3,3,0,0,1,.28-4c1.17-1.12,2.79-1.38,3.81-.34,1.85,1.9,4.16,1.64,6.33,1.89,10.41,1.22,20.83,2.33,31.25,3.47L900.13,111c2.66.29,5.32.61,8,.94a4.24,4.24,0,0,0,4.09-1.23,10.41,10.41,0,0,1,11.64-2.14,10.72,10.72,0,0,1,6.49,9.78c-.05,4.57-2.17,8.1-6.39,9.76-2.41.95-2.85,2.2-2.82,4.5.11,10.32,0,20.64.06,31,0,2.32,0,2.33,2.34,2.33,3.85,0,7.7,0,11.54,0,2.28,0,2.3,0,2.3,2.38q0,16.53,0,33.06c0,2.34,0,2.35,2.28,2.36,2.74,0,5.48,0,8.22,0,1.26,0,1.77.44,1.76,1.73q0,17.14,0,34.28c0,1.53-.77,1.67-2,1.67Q933.59,241.29,919.51,241.32Zm.14-130.57a7.65,7.65,0,0,0-3.45,14.56c.52.24,1.24.86,1.66,0a1.43,1.43,0,0,0-.56-2c-.25-.15-.51-.28-.75-.45a5.33,5.33,0,0,1-2.15-6.14,5.45,5.45,0,0,1,10.36,0,5.4,5.4,0,0,1-2.13,6.14c-.29.2-.61.34-.89.56a1.48,1.48,0,0,0-.42,1.9c.38.75,1,.2,1.52,0a7.75,7.75,0,0,0,4.38-8.16C926.35,113.23,923.43,110.73,919.65,110.74Zm6.13,62.91c0,1.16,0,2.32,0,3.48s.39,1.33,1.3.62c2.14-1.69,4.28-3.38,6.47-5,1.18-.88,1-2.09.74-3.18s-1.32-.61-2.06-.7a13.44,13.44,0,0,0-1.57,0C925.77,168.85,925.77,168.85,925.78,173.65Zm4.36,17.53c-4.32,0-4.32,0-4.35,4.31,0,.58,0,1.16,0,1.74s.24,1.05.91.53q3.53-2.71,7-5.45a1,1,0,0,0,.39-.71c-.06-.42-.5-.42-.84-.42C932.23,191.17,931.18,191.18,930.14,191.18Zm4.06-9.25-.16-.45c-2.47,0-4.94,0-7.4,0-.56,0-.81.43-.82.95,0,1.57,0,3.14,0,4.71,0,.57.21,1,.83.53C929.16,185.78,931.68,183.85,934.2,181.93Zm-4.14,21.72c1,0,2,0,3,0s1.38-.35,1.36-1.34-.42-1.25-1.28-1.24c-2,0-4,0-5.94,0-.95,0-1.37.36-1.37,1.34s.6,1.26,1.47,1.24S929.12,203.66,930.05,203.66Zm4.31-9.6-7.07,5.4H933c.7,0,1.31-.12,1.32-1C934.37,197.14,934.36,195.82,934.36,194.05Zm-.25-9.93L927.75,189c5.79,1.34,7,.5,6.58-4.48A2.73,2.73,0,0,0,934.12,184.12Zm-6.42-4.67a31.46,31.46,0,0,0,5.7.11.94.94,0,0,0,1-1q0-1.56,0-3.12c0-.58-.23-1-.84-.5C931.67,176.34,929.83,177.79,927.7,179.45Z"/><path class="cls-4" d="M823.78,208.19q0-15.39,0-30.79c0-2.44.05-2.47,2.07-1.28q19.15,11.26,38.31,22.49c1.18.69,1.3,1.34.83,2.53q-7.47,19-14.81,38.14a2.76,2.76,0,0,1-3.08,2.06q-10.58-.13-21.17,0c-1.69,0-2.19-.52-2.18-2.19.07-10.32,0-20.64,0-31ZM852,226.09l.37,0Q857,214,861.71,201.87c.36-.92-.14-1.26-.8-1.62-1.63-.91-3.23-1.85-4.87-2.75-4-2.22-4.08-2.21-4.08,2.41Q851.93,213,852,226.09Z"/><path class="cls-4" d="M821.22,208.13c0,10.31,0,20.63,0,30.94,0,1.76-.51,2.3-2.28,2.28-7.17-.09-14.34-.07-21.5,0a2.34,2.34,0,0,1-2.56-1.77q-7.42-19.24-14.95-38.44a1.71,1.71,0,0,1,.88-2.52q19.31-11.31,38.57-22.68c1.63-1,1.8-.86,1.8,1.08Q821.23,192.57,821.22,208.13ZM793,226.55l.22-.08c0-3.83,0-7.67,0-11.5q0-9.07.12-18.15c0-1.17-.33-1.5-1.43-.86-2.48,1.42-5,2.83-7.49,4.14-1.16.6-1.25,1.27-.78,2.38,1,2.41,1.93,4.87,2.87,7.32Z"/><path class="cls-4" d="M822.59,156.78h29.74c2.81,0,2.83,0,2.83,2.75,0,8.16,0,16.33,0,24.49a3,3,0,0,0,1.66,2.93c4,2.33,7.83,4.84,11.8,7.18,1.23.73,1.52,1.33.67,2.56-2.19,3.21-1.29,3.22-4.73,1.1-13.36-8.21-26.74-16.39-40.07-24.64a3.23,3.23,0,0,0-3.94,0q-20.34,12.66-40.75,25.21c-2,1.21-1.95,1.22-3.14-.69a10.24,10.24,0,0,0-.64-1c-.89-1.11-.53-1.78.61-2.46,3.9-2.34,7.72-4.8,11.63-7.12A3.11,3.11,0,0,0,790,184c-.07-8.28,0-16.56,0-24.84,0-2.29.08-2.36,2.36-2.36h30.26Zm.1,5.41c-9.56,0-19.11,0-28.67,0-1.44,0-2,.45-1.93,1.91.09,2.21,0,4.43,0,6.64,0,4.08,0,8.16,0,12.24,0,1.18.33,1.55,1.39.81.43-.3.9-.55,1.34-.82,8.47-5.24,17-10.44,25.39-15.77a3.51,3.51,0,0,1,4.37,0c8.93,5.6,18,11.07,26.95,16.58,1.61,1,1.64,1,1.65-.88q0-9.18,0-18.36c0-2.27,0-2.28-2.37-2.28Zm.18-3.46h-8.92q-10.15,0-20.29,0c-.54,0-1.33-.2-1.4.63-.08,1,.79.78,1.39.85a6.54,6.54,0,0,0,.7,0h56.85a9.63,9.63,0,0,0,1.39-.07.63.63,0,0,0,.55-.76.6.6,0,0,0-.53-.6,9,9,0,0,0-1.22-.07Z"/><path class="cls-4" d="M805.49,144.71c-1.92,0-3.84,0-5.75,0-1.22,0-1.84-.36-1.81-1.68.06-2.15,0-4.3,0-6.45,0-1.1.44-1.55,1.56-1.56,3.83,0,7.66-.09,11.49-.13,1.43,0,2.28.43,2.17,2.12a55.06,55.06,0,0,0,0,5.75c.05,1.4-.43,2-1.9,2C809.33,144.64,807.41,144.71,805.49,144.71Z"/><path class="cls-4" d="M821.69,144.72c-2,0-4,0-5.93,0-1.17,0-1.72-.42-1.7-1.62,0-2.15,0-4.3,0-6.45,0-1,.31-1.64,1.49-1.63,4.12,0,8.23,0,12.35,0,1,0,1.34.49,1.33,1.4,0,2.27,0,4.53,0,6.8,0,1-.43,1.48-1.46,1.47-2,0-4.07,0-6.1,0Z"/><path class="cls-4" d="M837.59,144.71c-1.92,0-3.84,0-5.76,0-1.16,0-1.72-.41-1.69-1.63q.06-3.23,0-6.46c0-1.16.45-1.75,1.63-1.74,4,.05,8,.12,12,.14,1.12,0,1.57.45,1.56,1.56q-.05,3.23,0,6.46c0,1.18-.45,1.7-1.65,1.67-2,0-4.08,0-6.11,0Z"/><path class="cls-4" d="M830.59,124.53c-1.92,0-3.84,0-5.76,0-1.16,0-1.72-.41-1.69-1.63q.06-3.23,0-6.46c0-1.16.45-1.75,1.63-1.74,4,.05,8,.12,12,.14,1.12,0,1.57.45,1.56,1.56q-.05,3.23,0,6.46c0,1.18-.45,1.7-1.65,1.67-2,0-4.08,0-6.11,0Z"/><path class="cls-4" d="M798.12,146.26c2,0,4,0,5.95,0,1.17,0,1.72.39,1.7,1.61,0,2.1,0,4.2,0,6.3,0,1.39-.6,1.81-1.91,1.8q-5.77-.08-11.54,0c-1.24,0-1.82-.39-1.77-1.71.07-2,.08-4.08,0-6.12-.06-1.49.59-1.93,2-1.87,1.86.08,3.73,0,5.6,0Z"/><path class="cls-4" d="M814.6,155.91c-2,0-4.08,0-6.12,0-1,0-1.48-.44-1.47-1.47,0-2.27,0-4.55,0-6.82,0-.94.4-1.38,1.36-1.37q6.21,0,12.41,0a1.2,1.2,0,0,1,1.39,1.37c0,2.27,0,4.55,0,6.82,0,1.15-.59,1.5-1.65,1.49C818.57,155.89,816.59,155.91,814.6,155.91Z"/><path class="cls-4" d="M830.91,146.26c2,0,4,0,5.95,0,1,0,1.49.43,1.48,1.46,0,2.27,0,4.55,0,6.82,0,.94-.42,1.38-1.37,1.38q-6.21,0-12.42,0a1.2,1.2,0,0,1-1.38-1.38c0-2.27,0-4.55,0-6.82,0-1.18.6-1.49,1.65-1.47C826.83,146.29,828.87,146.26,830.91,146.26Z"/><path class="cls-4" d="M846.66,155.91c-1.92,0-3.85,0-5.77,0-1.18,0-1.7-.41-1.67-1.63.05-2.16,0-4.32,0-6.47,0-1.09.41-1.59,1.55-1.58q6,0,12.07,0c1.1,0,1.61.41,1.59,1.53,0,2.16,0,4.32,0,6.47,0,1.33-.61,1.72-1.83,1.68-2-.05-4,0-5.95,0Z"/><path class="cls-1" d="M888.71,252.27v10.11h3.94v1.54H886.8V252.27Z"/><path class="cls-1" d="M898.25,264.08a4.5,4.5,0,0,1-4.63-4.78,4.71,4.71,0,1,1,9.42,0A4.63,4.63,0,0,1,898.25,264.08Zm0-1.66a2.85,2.85,0,0,0,2.83-3.12,2.8,2.8,0,0,0-2.78-3.1c-1.44,0-2.73,1-2.73,3.1S896.81,262.42,898.25,262.42Z"/><path class="cls-1" d="M908.67,254.54a3.93,3.93,0,0,1,3.2,1.49v-1.34h1.93v9.24h-1.93v-1.37a4,4,0,0,1-3.24,1.53c-2.4,0-4.33-2-4.33-4.81A4.4,4.4,0,0,1,908.67,254.54Zm.4,1.66a2.84,2.84,0,0,0-2.8,3.07,2.91,2.91,0,0,0,2.8,3.15,3.13,3.13,0,0,0,0-6.22Z"/><path class="cls-1" d="M920.06,254.54a4.26,4.26,0,0,1,3.19,1.44v-4.46h1.93v12.41h-1.93v-1.39a3.83,3.83,0,0,1-3.2,1.54c-2.43,0-4.36-2-4.36-4.81A4.4,4.4,0,0,1,920.06,254.54Zm.39,1.66a2.84,2.84,0,0,0-2.8,3.07,2.91,2.91,0,0,0,2.8,3.15,3.13,3.13,0,0,0,0-6.22Z"/><path class="cls-1" d="M927.44,252.24a1.22,1.22,0,1,1,1.22,1.22A1.21,1.21,0,0,1,927.44,252.24Zm.25,2.45h1.91v9.24h-1.91Z"/><path class="cls-1" d="M938.67,258.76c0-1.69-.92-2.57-2.31-2.57s-2.33.87-2.33,2.57v5.17h-1.91v-9.24H934v1.06a3.56,3.56,0,0,1,2.75-1.21,3.6,3.6,0,0,1,3.79,3.94v5.45h-1.9Z"/><path class="cls-1" d="M946.72,254.54a3.91,3.91,0,0,1,3.2,1.49v-1.34h1.93v9.39a4.19,4.19,0,0,1-4.51,4.41c-2.46,0-4.29-1.22-4.53-3.27h1.89a2.58,2.58,0,0,0,2.63,1.61,2.46,2.46,0,0,0,2.58-2.75v-1.54a4,4,0,0,1-3.2,1.54c-2.43,0-4.36-2-4.36-4.81A4.4,4.4,0,0,1,946.72,254.54Zm.4,1.66a2.84,2.84,0,0,0-2.8,3.07,2.91,2.91,0,0,0,2.8,3.15,3.13,3.13,0,0,0,0-6.22Z"/><path class="cls-1" d="M680.55,264a6,6,0,1,1,6-6A5.83,5.83,0,0,1,680.55,264Zm0-1.66c2.31,0,4-1.68,4-4.31s-1.68-4.28-4-4.28-4,1.64-4,4.28S678.23,262.39,680.55,262.39Z"/><path class="cls-1" d="M692.27,254.54a4,4,0,0,1,4.26,3.07h-2.06a2.16,2.16,0,0,0-2.2-1.46c-1.54,0-2.57,1.14-2.57,3.15s1,3.17,2.57,3.17a2.11,2.11,0,0,0,2.2-1.46h2.06a4.15,4.15,0,0,1-4.26,3.07,4.78,4.78,0,0,1,0-9.54Z"/><path class="cls-1" d="M702.42,264.08a4.48,4.48,0,0,1-4.61-4.78,4.42,4.42,0,0,1,4.61-4.76,4.31,4.31,0,0,1,4.49,4.54,6,6,0,0,1-.07.94h-7.06a2.54,2.54,0,0,0,2.63,2.45,2.24,2.24,0,0,0,2.18-1.29h2.06A4.22,4.22,0,0,1,702.42,264.08Zm-2.62-5.6h5.11a2.4,2.4,0,0,0-2.58-2.33A2.52,2.52,0,0,0,699.8,258.48Z"/><path class="cls-1" d="M712.51,254.54a3.93,3.93,0,0,1,3.2,1.49v-1.34h1.93v9.24h-1.93v-1.37a4,4,0,0,1-3.24,1.53c-2.4,0-4.33-2-4.33-4.81A4.4,4.4,0,0,1,712.51,254.54Zm.4,1.66a2.83,2.83,0,0,0-2.8,3.07,2.91,2.91,0,0,0,2.8,3.15,3.13,3.13,0,0,0,0-6.22Z"/><path class="cls-1" d="M726.72,258.76c0-1.69-.92-2.57-2.31-2.57s-2.33.87-2.33,2.57v5.17h-1.91v-9.24h1.91v1.06a3.56,3.56,0,0,1,2.75-1.21,3.6,3.6,0,0,1,3.79,3.94v5.45h-1.9Z"/><path class="cls-1" d="M739.72,248.1h1.9l-4.56,18.77h-1.88Z"/><path class="cls-1" d="M755.42,261.55h-4.88l-.84,2.38h-2l4.17-11.67h2.21l4.18,11.67h-2Zm-2.43-7L751.07,260h3.81Z"/><path class="cls-1" d="M759.83,252.24a1.22,1.22,0,1,1,1.22,1.22A1.21,1.21,0,0,1,759.83,252.24Zm.25,2.45H762v9.24h-1.91Z"/><path class="cls-1" d="M766.42,263.93h-1.91v-9.24h1.91V256a3,3,0,0,1,2.77-1.49v2h-.49c-1.41,0-2.28.59-2.28,2.55Z"/><path class="cls-1" d="M775.31,252.27h6.86v1.56h-4.95v3.44h3.86v1.56h-3.86v5.1h-1.91Z"/><path class="cls-1" d="M785.85,263.93h-1.91v-9.24h1.91V256a3,3,0,0,1,2.77-1.49v2h-.49c-1.41,0-2.28.59-2.28,2.55Z"/><path class="cls-1" d="M794.36,264.08a4.48,4.48,0,0,1-4.61-4.78,4.42,4.42,0,0,1,4.61-4.76,4.31,4.31,0,0,1,4.49,4.54,5.85,5.85,0,0,1-.07.94h-7.06a2.54,2.54,0,0,0,2.63,2.45,2.24,2.24,0,0,0,2.18-1.29h2.06A4.22,4.22,0,0,1,794.36,264.08Zm-2.62-5.6h5.11a2.4,2.4,0,0,0-2.58-2.33A2.52,2.52,0,0,0,791.74,258.48Z"/><path class="cls-1" d="M800.48,252.24a1.22,1.22,0,1,1,1.22,1.22A1.21,1.21,0,0,1,800.48,252.24Zm.25,2.45h1.91v9.24h-1.91Z"/><path class="cls-1" d="M808.88,254.54a3.92,3.92,0,0,1,3.2,1.49v-1.34H814v9.39a4.19,4.19,0,0,1-4.51,4.41c-2.46,0-4.29-1.22-4.53-3.27h1.89a2.58,2.58,0,0,0,2.63,1.61,2.46,2.46,0,0,0,2.58-2.75v-1.54a4,4,0,0,1-3.2,1.54c-2.43,0-4.36-2-4.36-4.81A4.4,4.4,0,0,1,808.88,254.54Zm.4,1.66a2.83,2.83,0,0,0-2.8,3.07,2.91,2.91,0,0,0,2.8,3.15,3.13,3.13,0,0,0,0-6.22Z"/><path class="cls-1" d="M816.53,251.52h1.91v4.24a3.66,3.66,0,0,1,2.87-1.22c2.06,0,3.67,1.36,3.67,3.94v5.45h-1.89v-5.17c0-1.69-.92-2.57-2.31-2.57s-2.33.87-2.33,2.57v5.17h-1.91Z"/><path class="cls-1" d="M827.72,256.25h-1.09v-1.56h1.09v-2.3h1.93v2.3h2.25v1.56h-2.25v5.11c0,.69.27,1,1.07,1h1.17v1.59h-1.51c-1.64,0-2.67-.69-2.67-2.57Z"/><path class="cls-4" d="M718.39,90.44a7.47,7.47,0,0,0-2.79.48c-.22.07-.51.12-.48.41a.64.64,0,0,0,.37.4c.93.36,1,.81.27,1.49-.32.31-.73.73-.52,1.22s.88.6,1.42.58q3-.11,5.95-.28c3.34-.19,6.68-.57,10-.58a46.24,46.24,0,0,0,11.92-2.05c4.74-1.27,9.49-2.5,14.23-3.76a2,2,0,0,1,1.67.16,3.44,3.44,0,0,0,1.63.58c3,0,6,.55,8.94-.57.36-.14,1-.28.93-.58-.4-1.76,2-1.84,2-3.37,0-.36.72-.37,1.12-.47q11.12-2.94,22.25-5.86a6.87,6.87,0,0,0,4.19-2.95c.56-.85.38-1.74-.54-2a50,50,0,0,0-5-1.56c-2.9-.55-5.56.38-8.27,1Q771.82,76.47,756,80.29a10.51,10.51,0,0,1-5.17-.51,9.59,9.59,0,0,0-6,.45c-.23.09-.6.08-.59.44s.3.33.52.42l2.67,1.12-5.81,1.64c-3.11.86-6.24,1.69-9.34,2.6a2.82,2.82,0,0,1-2.31-.42c-5.3-2.89-10.64-5.71-15.9-8.66-1.63-.91-3-.14-4.48.2-.63.15-.18.64,0,.92.89,1.23,1.79,2.45,2.7,3.67Z"/><circle class="cls-3" cx="189.99" cy="677.95" r="18.5"/><path class="cls-1" d="M122,681.4c-2.33,0-4.12-1.27-4.12-3.34h2a1.87,1.87,0,0,0,2.08,1.73c1.34,0,2.1-.72,2.1-1.71,0-2.82-6.19-1-6.19-5.28,0-2,1.63-3.32,4-3.32,2.23,0,3.81,1.17,4,3.17h-2.11a1.82,1.82,0,0,0-2-1.54c-1.11,0-2,.5-2,1.63,0,2.63,6.17,1,6.17,5.25C126.05,679.72,124.63,681.4,122,681.4Z"/><path class="cls-1" d="M132.29,681.43a4.48,4.48,0,0,1-4.61-4.78,4.42,4.42,0,0,1,4.61-4.76,4.31,4.31,0,0,1,4.49,4.54,5.84,5.84,0,0,1-.07.94h-7.06a2.54,2.54,0,0,0,2.63,2.45,2.24,2.24,0,0,0,2.18-1.29h2.06A4.22,4.22,0,0,1,132.29,681.43Zm-2.62-5.6h5.11a2.4,2.4,0,0,0-2.58-2.33A2.52,2.52,0,0,0,129.68,675.83Z"/><path class="cls-1" d="M138.67,668.87h1.91v12.41h-1.91Z"/><path class="cls-1" d="M143.09,668.87H145v12.41h-1.91Z"/><path class="cls-1" d="M151.5,681.43a4.48,4.48,0,0,1-4.61-4.78,4.42,4.42,0,0,1,4.61-4.76,4.31,4.31,0,0,1,4.49,4.54,6,6,0,0,1-.07.94h-7.06a2.54,2.54,0,0,0,2.63,2.45,2.24,2.24,0,0,0,2.18-1.29h2.06A4.22,4.22,0,0,1,151.5,681.43Zm-2.62-5.6H154a2.4,2.4,0,0,0-2.58-2.33A2.52,2.52,0,0,0,148.88,675.83Z"/><path class="cls-1" d="M159.78,681.28h-1.91V672h1.91v1.34a3,3,0,0,1,2.77-1.49v2h-.49c-1.41,0-2.28.59-2.28,2.55Z"/><circle class="cls-2" cx="298.39" cy="677.95" r="18.5"/><path class="cls-1" d="M230.31,681.28h-4.66V669.63h4.44c2.46,0,3.77,1.36,3.77,3a2.73,2.73,0,0,1-2,2.67,2.9,2.9,0,0,1,2.25,2.85C234.13,679.92,232.69,681.28,230.31,681.28Zm-.39-10.09h-2.36v3.34h2.36c1.24,0,2-.59,2-1.66S231.17,671.19,229.92,671.19Zm.15,4.9h-2.52v3.64h2.58c1.29,0,2.08-.65,2.08-1.78A1.89,1.89,0,0,0,230.08,676.08Z"/><path class="cls-1" d="M244.58,681.28h-1.91v-1.11a3.44,3.44,0,0,1-2.73,1.24,3.61,3.61,0,0,1-3.81-3.94V672H238v5.15c0,1.69.92,2.57,2.31,2.57s2.33-.87,2.33-2.57V672h1.91Z"/><path class="cls-1" d="M253.44,672h2l-5.67,13.58h-2l1.88-4.5L246,672h2.13l2.6,7Z"/><path class="cls-1" d="M260.83,681.43a4.48,4.48,0,0,1-4.61-4.78,4.42,4.42,0,0,1,4.61-4.76,4.31,4.31,0,0,1,4.49,4.54,6,6,0,0,1-.07.94H258.2a2.54,2.54,0,0,0,2.63,2.45,2.24,2.24,0,0,0,2.18-1.29h2.06A4.22,4.22,0,0,1,260.83,681.43Zm-2.62-5.6h5.11a2.4,2.4,0,0,0-2.58-2.33A2.52,2.52,0,0,0,258.22,675.83Z"/><path class="cls-1" d="M269.12,681.28h-1.91V672h1.91v1.34a3,3,0,0,1,2.77-1.49v2h-.49c-1.41,0-2.28.59-2.28,2.55Z"/></svg>