<svg id="Layer_2" data-name="Layer 2" xmlns="http://www.w3.org/2000/svg" viewBox="0 0 1018 1490.87"><defs><style>.cls-1,.cls-17{fill:#fff;}.cls-1,.cls-10,.cls-11,.cls-12,.cls-15,.cls-16,.cls-2,.cls-3,.cls-5,.cls-7,.cls-8,.cls-9{stroke:#000;stroke-miterlimit:10;}.cls-2{fill:#ededed;}.cls-3,.cls-6{fill:#005ce9;}.cls-4{fill:#0044ac;}.cls-5{fill:#0050ce;}.cls-7{fill:#f79292;}.cls-8{fill:#919191;}.cls-9{fill:#e8e8e8;}.cls-10{fill:#83b6ff;}.cls-11{fill:#50514f;}.cls-12{fill:#bfbfbf;}.cls-13,.cls-15{fill:red;}.cls-14,.cls-16{fill:none;}.cls-18{font-size:19.87px;}.cls-18,.cls-52,.cls-78{font-family:MyriadPro-Bold, Myriad Pro;font-weight:700;}.cls-19{letter-spacing:-0.04em;}.cls-20{letter-spacing:-0.01em;}.cls-21{letter-spacing:-0.01em;}.cls-22{letter-spacing:-0.01em;}.cls-23{letter-spacing:0em;}.cls-24{letter-spacing:0em;}.cls-25{letter-spacing:0em;}.cls-26{letter-spacing:0.02em;}.cls-27{letter-spacing:0em;}.cls-28{letter-spacing:-0.02em;}.cls-29{letter-spacing:0.01em;}.cls-30{letter-spacing:-0.01em;}.cls-31{letter-spacing:0em;}.cls-32{letter-spacing:0em;}.cls-33{letter-spacing:-0.02em;}.cls-34{letter-spacing:-0.01em;}.cls-35{letter-spacing:-0.08em;}.cls-36{letter-spacing:-0.03em;}.cls-37{letter-spacing:0.02em;}.cls-38{letter-spacing:-0.01em;}.cls-39{letter-spacing:-0.09em;}.cls-40{letter-spacing:0em;}.cls-41{letter-spacing:-0.04em;}.cls-42{letter-spacing:-0.01em;}.cls-43{letter-spacing:-0.01em;}.cls-44{letter-spacing:-0.04em;}.cls-45{letter-spacing:-0.08em;}.cls-46{letter-spacing:-0.02em;}.cls-47{letter-spacing:0.01em;}.cls-48{letter-spacing:0em;}.cls-49{letter-spacing:-0.05em;}.cls-50{letter-spacing:-0.07em;}.cls-51{letter-spacing:-0.02em;}.cls-52,.cls-78{font-size:22.03px;}.cls-53{letter-spacing:-0.01em;}.cls-54{font-size:19.5px;}.cls-54,.cls-57,.cls-59{font-family:MyriadPro-Regular, Myriad Pro;}.cls-55{letter-spacing:-0.03em;}.cls-56{letter-spacing:0em;}.cls-57,.cls-59{font-size:20px;}.cls-57,.cls-61{letter-spacing:0.01em;}.cls-58{letter-spacing:0em;}.cls-60{letter-spacing:-0.01em;}.cls-62{letter-spacing:-0.03em;}.cls-63{letter-spacing:-0.01em;}.cls-64{letter-spacing:-0.01em;}.cls-65{letter-spacing:0em;}.cls-66{letter-spacing:-0.01em;}.cls-67{letter-spacing:0em;}.cls-68{letter-spacing:-0.03em;}.cls-69{letter-spacing:0em;}.cls-70{letter-spacing:-0.04em;}.cls-71{letter-spacing:-0.07em;}.cls-72{letter-spacing:-0.01em;}.cls-73{letter-spacing:0em;}.cls-74{letter-spacing:0.01em;}.cls-75{letter-spacing:0.01em;}.cls-76{letter-spacing:0em;}.cls-77{letter-spacing:-0.01em;}.cls-78{fill:#f6000c;}.cls-79{letter-spacing:0.01em;}.cls-80{letter-spacing:0.01em;}</style></defs><title>table-02</title><rect class="cls-1" x="421" y="587.49" width="72.25" height="72.75"/><rect class="cls-2" x="349" y="587.49" width="72" height="72.75"/><rect class="cls-1" x="285.67" y="587.49" width="63.33" height="72.75"/><rect class="cls-1" x="285.67" y="537.49" width="63.33" height="50"/><rect class="cls-2" x="661" y="537.49" width="86" height="50"/><rect class="cls-2" x="661" y="587.49" width="86" height="72.75"/><rect class="cls-1" x="580.75" y="587.49" width="80.25" height="72.75"/><rect class="cls-2" x="493.25" y="587.49" width="87.5" height="72.75"/><rect class="cls-1" x="285.67" y="332.99" width="63.33" height="50.5"/><rect class="cls-1" x="285.67" y="282.49" width="63.33" height="50.5"/><rect class="cls-1" x="285.67" y="484.49" width="63.33" height="53"/><rect class="cls-1" x="285.67" y="181.49" width="63.33" height="50.5"/><rect class="cls-1" x="285.67" y="130.99" width="63.33" height="50.5"/><rect class="cls-1" x="285.67" y="231.99" width="63.33" height="50.5"/><rect class="cls-2" x="661" y="484.49" width="86" height="53"/><rect class="cls-1" x="285.67" y="433.99" width="63.33" height="50.5"/><rect class="cls-1" x="285.67" y="383.49" width="63.33" height="50.5"/><rect class="cls-2" x="661" y="383.49" width="86" height="50.5"/><rect class="cls-1" x="285.67" y="67.49" width="63.33" height="63.5"/><rect class="cls-1" x="421" y="67.49" width="72.25" height="63.5"/><rect class="cls-2" x="349" y="67.49" width="72" height="63.5"/><rect class="cls-2" x="493.25" y="67.49" width="87.5" height="63.5"/><rect class="cls-2" x="226.67" y="130.99" width="59" height="50.5"/><rect class="cls-2" x="226.67" y="181.49" width="59" height="50.5"/><rect class="cls-2" x="226.67" y="67.49" width="59" height="63.5"/><rect class="cls-1" x="580.75" y="67.49" width="80.25" height="63.5"/><rect class="cls-2" x="661" y="282.49" width="86" height="50.5"/><rect class="cls-2" x="661" y="332.99" width="86" height="50.5"/><rect class="cls-2" x="349" y="130.99" width="72" height="50.5"/><rect class="cls-2" x="661" y="433.99" width="86" height="50.5"/><rect class="cls-2" x="661" y="67.49" width="86" height="63.5"/><rect class="cls-2" x="661" y="130.99" width="86" height="50.5"/><rect class="cls-2" x="661" y="181.49" width="86" height="50.5"/><rect class="cls-2" x="661" y="231.99" width="86" height="50.5"/><rect class="cls-2" x="226.67" y="231.99" width="59" height="50.5"/><rect class="cls-2" x="493.25" y="181.49" width="87.5" height="50.5"/><rect class="cls-2" x="493.25" y="231.99" width="87.5" height="50.5"/><rect class="cls-2" x="349" y="332.99" width="72" height="50.5"/><rect class="cls-1" x="421" y="181.49" width="72.25" height="50.5"/><rect class="cls-2" x="493.25" y="332.99" width="87.5" height="50.5"/><rect class="cls-2" x="349" y="282.49" width="72" height="50.5"/><rect class="cls-2" x="349" y="231.99" width="72" height="50.5"/><rect class="cls-2" x="349" y="181.49" width="72" height="50.5"/><rect class="cls-2" x="493.25" y="282.49" width="87.5" height="50.5"/><rect class="cls-2" x="493.25" y="383.49" width="87.5" height="50.5"/><rect class="cls-1" x="421" y="332.99" width="72.25" height="50.5"/><rect class="cls-1" x="421" y="130.99" width="72.25" height="50.5"/><rect class="cls-1" x="421" y="231.99" width="72.25" height="50.5"/><rect class="cls-1" x="421" y="282.49" width="72.25" height="50.5"/><rect class="cls-2" x="493.25" y="433.99" width="87.5" height="50.5"/><rect class="cls-1" x="421" y="484.49" width="72.25" height="53"/><rect class="cls-1" x="421" y="433.99" width="72.25" height="50.5"/><rect class="cls-1" x="421" y="383.49" width="72.25" height="50.5"/><rect class="cls-1" x="580.75" y="231.99" width="80.25" height="50.5"/><rect class="cls-1" x="580.75" y="282.49" width="80.25" height="50.5"/><rect class="cls-1" x="580.75" y="332.99" width="80.25" height="50.5"/><rect class="cls-1" x="580.75" y="383.49" width="80.25" height="50.5"/><rect class="cls-1" x="580.75" y="433.99" width="80.25" height="50.5"/><rect class="cls-2" x="349" y="383.49" width="72" height="50.5"/><rect class="cls-1" x="580.75" y="181.49" width="80.25" height="50.5"/><rect class="cls-1" x="580.75" y="130.99" width="80.25" height="50.5"/><rect class="cls-2" x="493.25" y="130.99" width="87.5" height="50.5"/><rect class="cls-2" x="349" y="537.49" width="72" height="50"/><rect class="cls-2" x="349" y="484.49" width="72" height="53"/><rect class="cls-1" x="580.75" y="484.49" width="80.25" height="53"/><rect class="cls-2" x="349" y="433.99" width="72" height="50.5"/><rect class="cls-1" x="580.75" y="537.49" width="80.25" height="50"/><rect class="cls-2" x="493.25" y="537.49" width="87.5" height="50"/><rect class="cls-1" x="421" y="537.49" width="72.25" height="50"/><rect class="cls-2" x="493.25" y="484.49" width="87.5" height="53"/><rect class="cls-1" x="104.25" y="732.49" width="122.42" height="50.75"/><rect class="cls-1" x="104.25" y="587.49" width="122.42" height="72.75"/><rect class="cls-2" x="226.67" y="732.49" width="59" height="50.75"/><rect class="cls-1" x="104.25" y="660.24" width="122.42" height="72.25"/><rect class="cls-1" x="285.67" y="732.49" width="63.33" height="50.75"/><rect class="cls-2" x="493.25" y="732.49" width="87.5" height="50.75"/><rect class="cls-2" x="349" y="732.49" width="72" height="50.75"/><rect class="cls-1" x="421" y="732.49" width="72.25" height="50.75"/><rect class="cls-1" x="104.25" y="282.49" width="122.42" height="50.5"/><rect class="cls-1" x="580.75" y="732.49" width="80.25" height="50.75"/><rect class="cls-1" x="104.25" y="332.99" width="122.42" height="50.5"/><rect class="cls-1" x="104.25" y="231.99" width="122.42" height="50.5"/><rect class="cls-1" x="104.25" y="181.49" width="122.42" height="50.5"/><rect class="cls-1" x="104.25" y="383.49" width="122.42" height="50.5"/><rect class="cls-1" x="104.25" y="484.49" width="122.42" height="53"/><rect class="cls-1" x="104.25" y="537.49" width="122.42" height="50"/><rect class="cls-1" x="104.25" y="433.99" width="122.42" height="50.5"/><rect class="cls-2" x="829.5" y="332.99" width="82.75" height="50.5"/><rect class="cls-2" x="829.5" y="282.49" width="82.75" height="50.5"/><rect class="cls-2" x="829.5" y="231.99" width="82.75" height="50.5"/><rect class="cls-2" x="829.5" y="181.49" width="82.75" height="50.5"/><rect class="cls-1" x="104.25" y="130.99" width="122.42" height="50.5"/><rect class="cls-2" x="829.5" y="38.61" width="82.75" height="28.88"/><rect class="cls-2" x="829.5" y="383.49" width="82.75" height="50.5"/><rect class="cls-2" x="829.5" y="130.99" width="82.75" height="50.5"/><rect class="cls-2" x="829.5" y="67.49" width="82.75" height="63.5"/><rect class="cls-2" x="829.5" y="660.24" width="82.75" height="72.25"/><rect class="cls-2" x="829.5" y="732.49" width="82.75" height="50.75"/><rect class="cls-2" x="661" y="732.49" width="86" height="50.75"/><rect class="cls-1" x="747" y="732.49" width="82.5" height="50.75"/><rect class="cls-2" x="226.67" y="282.49" width="59" height="50.5"/><rect class="cls-2" x="829.5" y="484.49" width="82.75" height="53"/><rect class="cls-2" x="829.5" y="587.49" width="82.75" height="72.75"/><rect class="cls-2" x="829.5" y="537.49" width="82.75" height="50"/><rect class="cls-2" x="829.5" y="433.99" width="82.75" height="50.5"/><rect class="cls-2" x="349" y="660.24" width="72" height="72.25"/><rect class="cls-2" x="661" y="660.24" width="86" height="72.25"/><rect class="cls-1" x="580.75" y="660.24" width="80.25" height="72.25"/><rect class="cls-1" x="421" y="660.24" width="72.25" height="72.25"/><rect class="cls-2" x="493.25" y="660.24" width="87.5" height="72.25"/><rect class="cls-1" x="747" y="537.49" width="82.5" height="50"/><rect class="cls-1" x="747" y="587.49" width="82.5" height="72.75"/><polygon class="cls-1" points="226.67 67.49 226.67 38.61 104.25 38.61 104.25 130.99 226.67 130.99 226.67 67.49"/><rect class="cls-2" x="226.67" y="660.24" width="59" height="72.25"/><rect class="cls-2" x="226.67" y="383.49" width="59" height="50.5"/><rect class="cls-2" x="226.67" y="484.49" width="59" height="53"/><rect class="cls-2" x="226.67" y="433.99" width="59" height="50.5"/><rect class="cls-2" x="226.67" y="332.99" width="59" height="50.5"/><rect class="cls-1" x="747" y="484.49" width="82.5" height="53"/><rect class="cls-1" x="285.67" y="660.24" width="63.33" height="72.25"/><rect class="cls-2" x="226.67" y="537.49" width="59" height="50"/><rect class="cls-2" x="226.67" y="587.49" width="59" height="72.75"/><rect class="cls-1" x="747" y="660.24" width="82.5" height="72.25"/><rect class="cls-1" x="747" y="433.99" width="82.5" height="50.5"/><rect class="cls-1" x="421" y="38.61" width="72.25" height="28.88"/><rect class="cls-1" x="580.75" y="38.61" width="80.25" height="28.88"/><rect class="cls-2" x="661" y="38.61" width="86" height="28.88"/><rect class="cls-2" x="226.67" y="38.61" width="59" height="28.88"/><rect class="cls-2" x="349" y="38.61" width="72" height="28.88"/><rect class="cls-1" x="747" y="38.61" width="82.5" height="28.88"/><rect class="cls-1" x="285.67" y="38.61" width="63.33" height="28.88"/><rect class="cls-2" x="493.25" y="38.61" width="87.5" height="28.88"/><rect class="cls-1" x="747" y="282.49" width="82.5" height="50.5"/><rect class="cls-1" x="747" y="332.99" width="82.5" height="50.5"/><rect class="cls-1" x="747" y="383.49" width="82.5" height="50.5"/><rect class="cls-1" x="747" y="67.49" width="82.5" height="63.5"/><rect class="cls-1" x="747" y="231.99" width="82.5" height="50.5"/><rect class="cls-1" x="747" y="130.99" width="82.5" height="50.5"/><rect class="cls-1" x="747" y="181.49" width="82.5" height="50.5"/><rect class="cls-3" x="540.65" y="1134.89" width="464.09" height="229.13"/><rect class="cls-4" x="546.63" y="1143.63" width="452.13" height="211.65"/><polygon class="cls-5" points="977.11 1108.66 568.27 1108.66 540.64 1134.89 1004.74 1134.89 977.11 1108.66"/><polygon class="cls-6" points="971.84 1334.85 573.54 1334.85 546.63 1355.28 998.76 1355.28 971.84 1334.85"/><rect class="cls-7" x="561.66" y="1157.43" width="52.76" height="48.62"/><rect class="cls-8" x="566.33" y="1188.26" width="6.79" height="17.79"/><rect class="cls-8" x="593.49" y="1193.76" width="6.79" height="17.79" transform="translate(1799.54 605.77) rotate(90)"/><rect class="cls-9" x="595.31" y="1156.85" width="6.79" height="7.94" transform="translate(1759.53 562.12) rotate(90)"/><rect class="cls-9" x="604.08" y="1158.55" width="6.79" height="4.54" transform="translate(1768.3 553.35) rotate(90)"/><rect class="cls-10" x="614.42" y="1157.43" width="52.76" height="48.62"/><rect class="cls-8" x="619.08" y="1188.26" width="6.79" height="17.79"/><rect class="cls-8" x="646.25" y="1193.76" width="6.79" height="17.79" transform="translate(1852.3 553.01) rotate(90)"/><rect class="cls-9" x="648.07" y="1156.85" width="6.79" height="7.94" transform="translate(1812.29 509.36) rotate(90)"/><rect class="cls-9" x="656.84" y="1158.55" width="6.79" height="4.54" transform="translate(1821.06 500.59) rotate(90)"/><rect class="cls-10" x="667.17" y="1157.43" width="52.76" height="48.62"/><rect class="cls-8" x="671.84" y="1188.26" width="6.79" height="17.79"/><rect class="cls-8" x="699.01" y="1193.76" width="6.79" height="17.79" transform="translate(1905.05 500.25) rotate(90)"/><rect class="cls-9" x="700.83" y="1156.85" width="6.79" height="7.94" transform="translate(1865.04 456.6) rotate(90)"/><rect class="cls-9" x="709.6" y="1158.55" width="6.79" height="4.54" transform="translate(1873.82 447.83) rotate(90)"/><rect class="cls-10" x="719.93" y="1157.43" width="52.76" height="48.62"/><rect class="cls-8" x="724.6" y="1188.26" width="6.79" height="17.79"/><rect class="cls-8" x="751.77" y="1193.76" width="6.79" height="17.79" transform="translate(1957.81 447.49) rotate(90)"/><rect class="cls-9" x="753.59" y="1156.85" width="6.79" height="7.94" transform="translate(1917.8 403.84) rotate(90)"/><rect class="cls-9" x="762.36" y="1158.55" width="6.79" height="4.54" transform="translate(1926.57 395.07) rotate(90)"/><rect class="cls-11" x="772.69" y="1157.43" width="52.76" height="48.62"/><rect class="cls-8" x="777.36" y="1188.26" width="6.79" height="17.79"/><rect class="cls-8" x="804.53" y="1193.76" width="6.79" height="17.79" transform="translate(2010.57 394.73) rotate(90)"/><rect class="cls-9" x="806.35" y="1156.85" width="6.79" height="7.94" transform="translate(1970.56 351.08) rotate(90)"/><rect class="cls-9" x="815.12" y="1158.55" width="6.79" height="4.54" transform="translate(1979.33 342.31) rotate(90)"/><rect class="cls-11" x="825.45" y="1157.43" width="52.76" height="48.62"/><rect class="cls-8" x="830.12" y="1188.26" width="6.79" height="17.79"/><rect class="cls-8" x="857.28" y="1193.76" width="6.79" height="17.79" transform="translate(2063.33 341.98) rotate(90)"/><rect class="cls-9" x="859.11" y="1156.85" width="6.79" height="7.94" transform="translate(2023.32 298.32) rotate(90)"/><rect class="cls-9" x="867.88" y="1158.55" width="6.79" height="4.54" transform="translate(2032.09 289.55) rotate(90)"/><rect class="cls-12" x="878.21" y="1157.43" width="52.76" height="48.62"/><rect class="cls-8" x="882.88" y="1188.26" width="6.79" height="17.79"/><rect class="cls-8" x="910.04" y="1193.76" width="6.79" height="17.79" transform="translate(2116.09 289.22) rotate(90)"/><rect class="cls-9" x="911.86" y="1156.85" width="6.79" height="7.94" transform="translate(2076.08 245.56) rotate(90)"/><rect class="cls-9" x="920.64" y="1158.55" width="6.79" height="4.54" transform="translate(2084.85 236.79) rotate(90)"/><rect class="cls-12" x="930.97" y="1157.43" width="52.76" height="48.62"/><rect class="cls-8" x="935.64" y="1188.26" width="6.79" height="17.79"/><rect class="cls-8" x="962.8" y="1193.76" width="6.79" height="17.79" transform="translate(2168.85 236.46) rotate(90)"/><rect class="cls-9" x="964.62" y="1156.85" width="6.79" height="7.94" transform="translate(2128.84 192.8) rotate(90)"/><rect class="cls-9" x="973.39" y="1158.55" width="6.79" height="4.54" transform="translate(2137.61 184.03) rotate(90)"/><rect class="cls-7" x="561.66" y="1206.05" width="52.76" height="48.62"/><rect class="cls-8" x="566.33" y="1236.87" width="6.79" height="17.79"/><rect class="cls-8" x="593.49" y="1242.38" width="6.79" height="17.79" transform="translate(1848.15 654.39) rotate(90)"/><rect class="cls-9" x="595.31" y="1205.47" width="6.79" height="7.94" transform="translate(1808.14 610.73) rotate(90)"/><rect class="cls-9" x="604.08" y="1207.17" width="6.79" height="4.54" transform="translate(1816.92 601.96) rotate(90)"/><rect class="cls-10" x="614.42" y="1206.05" width="52.76" height="48.62"/><rect class="cls-8" x="619.08" y="1236.87" width="6.79" height="17.79"/><rect class="cls-8" x="646.25" y="1242.38" width="6.79" height="17.79" transform="translate(1900.91 601.63) rotate(90)"/><rect class="cls-9" x="648.07" y="1205.47" width="6.79" height="7.94" transform="translate(1860.9 557.98) rotate(90)"/><rect class="cls-9" x="656.84" y="1207.17" width="6.79" height="4.54" transform="translate(1869.67 549.2) rotate(90)"/><rect class="cls-10" x="667.17" y="1206.05" width="52.76" height="48.62"/><rect class="cls-8" x="671.84" y="1236.87" width="6.79" height="17.79"/><rect class="cls-8" x="699.01" y="1242.38" width="6.79" height="17.79" transform="translate(1953.67 548.87) rotate(90)"/><rect class="cls-9" x="700.83" y="1205.47" width="6.79" height="7.94" transform="translate(1913.66 505.22) rotate(90)"/><rect class="cls-9" x="709.6" y="1207.17" width="6.79" height="4.54" transform="translate(1922.43 496.45) rotate(90)"/><rect class="cls-10" x="719.93" y="1206.05" width="52.76" height="48.62"/><rect class="cls-8" x="724.6" y="1236.87" width="6.79" height="17.79"/><rect class="cls-8" x="751.77" y="1242.38" width="6.79" height="17.79" transform="translate(2006.43 496.11) rotate(90)"/><rect class="cls-9" x="753.59" y="1205.47" width="6.79" height="7.94" transform="translate(1966.42 452.46) rotate(90)"/><rect class="cls-9" x="762.36" y="1207.17" width="6.79" height="4.54" transform="translate(1975.19 443.69) rotate(90)"/><rect class="cls-11" x="772.69" y="1206.05" width="52.76" height="48.62"/><rect class="cls-8" x="777.36" y="1236.87" width="6.79" height="17.79"/><rect class="cls-8" x="804.53" y="1242.38" width="6.79" height="17.79" transform="translate(2059.19 443.35) rotate(90)"/><rect class="cls-9" x="806.35" y="1205.47" width="6.79" height="7.94" transform="translate(2019.18 399.7) rotate(90)"/><rect class="cls-9" x="815.12" y="1207.17" width="6.79" height="4.54" transform="translate(2027.95 390.93) rotate(90)"/><rect class="cls-11" x="825.45" y="1206.05" width="52.76" height="48.62"/><rect class="cls-8" x="830.12" y="1236.87" width="6.79" height="17.79"/><rect class="cls-8" x="857.28" y="1242.38" width="6.79" height="17.79" transform="translate(2111.95 390.59) rotate(90)"/><rect class="cls-9" x="859.11" y="1205.47" width="6.79" height="7.94" transform="translate(2071.94 346.94) rotate(90)"/><rect class="cls-9" x="867.88" y="1207.17" width="6.79" height="4.54" transform="translate(2080.71 338.17) rotate(90)"/><rect class="cls-12" x="878.21" y="1206.05" width="52.76" height="48.62"/><rect class="cls-8" x="882.88" y="1236.87" width="6.79" height="17.79"/><rect class="cls-8" x="910.04" y="1242.38" width="6.79" height="17.79" transform="translate(2164.71 337.83) rotate(90)"/><rect class="cls-9" x="911.86" y="1205.47" width="6.79" height="7.94" transform="translate(2124.7 294.18) rotate(90)"/><rect class="cls-9" x="920.64" y="1207.17" width="6.79" height="4.54" transform="translate(2133.47 285.41) rotate(90)"/><rect class="cls-12" x="930.97" y="1206.05" width="52.76" height="48.62"/><rect class="cls-8" x="935.64" y="1236.87" width="6.79" height="17.79"/><rect class="cls-8" x="962.8" y="1242.38" width="6.79" height="17.79" transform="translate(2217.47 285.08) rotate(90)"/><rect class="cls-9" x="964.62" y="1205.47" width="6.79" height="7.94" transform="translate(2177.46 241.42) rotate(90)"/><rect class="cls-9" x="973.39" y="1207.17" width="6.79" height="4.54" transform="translate(2186.23 232.65) rotate(90)"/><rect class="cls-7" x="561.66" y="1254.66" width="52.76" height="48.62"/><rect class="cls-8" x="566.33" y="1285.49" width="6.79" height="17.79"/><rect class="cls-8" x="593.49" y="1290.99" width="6.79" height="17.79" transform="translate(1896.77 703) rotate(90)"/><rect class="cls-9" x="595.31" y="1254.09" width="6.79" height="7.94" transform="translate(1856.76 659.35) rotate(90)"/><rect class="cls-9" x="604.08" y="1255.79" width="6.79" height="4.54" transform="translate(1865.53 650.58) rotate(90)"/><rect class="cls-7" x="614.42" y="1254.66" width="52.76" height="48.62"/><rect class="cls-8" x="619.08" y="1285.49" width="6.79" height="17.79"/><rect class="cls-8" x="646.25" y="1290.99" width="6.79" height="17.79" transform="translate(1949.53 650.25) rotate(90)"/><rect class="cls-9" x="648.07" y="1254.09" width="6.79" height="7.94" transform="translate(1909.52 606.59) rotate(90)"/><rect class="cls-9" x="656.84" y="1255.79" width="6.79" height="4.54" transform="translate(1918.29 597.82) rotate(90)"/><rect class="cls-10" x="667.17" y="1254.66" width="52.76" height="48.62"/><rect class="cls-8" x="671.84" y="1285.49" width="6.79" height="17.79"/><rect class="cls-8" x="699.01" y="1290.99" width="6.79" height="17.79" transform="translate(2002.29 597.49) rotate(90)"/><rect class="cls-9" x="700.83" y="1254.09" width="6.79" height="7.94" transform="translate(1962.28 553.83) rotate(90)"/><rect class="cls-9" x="709.6" y="1255.79" width="6.79" height="4.54" transform="translate(1971.05 545.06) rotate(90)"/><rect class="cls-10" x="719.93" y="1254.66" width="52.76" height="48.62"/><rect class="cls-8" x="724.6" y="1285.49" width="6.79" height="17.79"/><rect class="cls-8" x="751.77" y="1290.99" width="6.79" height="17.79" transform="translate(2055.05 544.73) rotate(90)"/><rect class="cls-9" x="753.59" y="1254.09" width="6.79" height="7.94" transform="translate(2015.04 501.08) rotate(90)"/><rect class="cls-9" x="762.36" y="1255.79" width="6.79" height="4.54" transform="translate(2023.81 492.31) rotate(90)"/><rect class="cls-11" x="772.69" y="1254.66" width="52.76" height="48.62"/><rect class="cls-8" x="777.36" y="1285.49" width="6.79" height="17.79"/><rect class="cls-8" x="804.53" y="1290.99" width="6.79" height="17.79" transform="translate(2107.81 491.97) rotate(90)"/><rect class="cls-9" x="806.35" y="1254.09" width="6.79" height="7.94" transform="translate(2067.8 448.32) rotate(90)"/><rect class="cls-9" x="815.12" y="1255.79" width="6.79" height="4.54" transform="translate(2076.57 439.55) rotate(90)"/><rect class="cls-11" x="825.45" y="1254.66" width="52.76" height="48.62"/><rect class="cls-8" x="830.12" y="1285.49" width="6.79" height="17.79"/><rect class="cls-8" x="857.28" y="1290.99" width="6.79" height="17.79" transform="translate(2160.57 439.21) rotate(90)"/><rect class="cls-9" x="859.11" y="1254.09" width="6.79" height="7.94" transform="translate(2120.56 395.56) rotate(90)"/><rect class="cls-9" x="867.88" y="1255.79" width="6.79" height="4.54" transform="translate(2129.33 386.79) rotate(90)"/><rect class="cls-12" x="878.21" y="1254.66" width="52.76" height="48.62"/><rect class="cls-8" x="882.88" y="1285.49" width="6.79" height="17.79"/><rect class="cls-8" x="910.04" y="1290.99" width="6.79" height="17.79" transform="translate(2213.33 386.45) rotate(90)"/><rect class="cls-9" x="911.86" y="1254.09" width="6.79" height="7.94" transform="translate(2173.32 342.8) rotate(90)"/><rect class="cls-9" x="920.64" y="1255.79" width="6.79" height="4.54" transform="translate(2182.09 334.03) rotate(90)"/><rect class="cls-12" x="930.97" y="1254.66" width="52.76" height="48.62"/><rect class="cls-8" x="935.64" y="1285.49" width="6.79" height="17.79"/><rect class="cls-8" x="962.8" y="1290.99" width="6.79" height="17.79" transform="translate(2266.08 333.69) rotate(90)"/><rect class="cls-9" x="964.62" y="1254.09" width="6.79" height="7.94" transform="translate(2226.07 290.04) rotate(90)"/><rect class="cls-9" x="973.39" y="1255.79" width="6.79" height="4.54" transform="translate(2234.85 281.27) rotate(90)"/><rect class="cls-7" x="561.66" y="1303.28" width="52.76" height="48.62"/><rect class="cls-8" x="566.33" y="1334.11" width="6.79" height="17.79"/><rect class="cls-8" x="593.49" y="1339.61" width="6.79" height="17.79" transform="translate(1945.39 751.62) rotate(90)"/><rect class="cls-9" x="595.31" y="1302.71" width="6.79" height="7.94" transform="translate(1905.38 707.97) rotate(90)"/><rect class="cls-9" x="604.08" y="1304.4" width="6.79" height="4.54" transform="translate(1914.15 699.2) rotate(90)"/><rect class="cls-7" x="614.42" y="1303.28" width="52.76" height="48.62"/><rect class="cls-8" x="619.08" y="1334.11" width="6.79" height="17.79"/><rect class="cls-8" x="646.25" y="1339.61" width="6.79" height="17.79" transform="translate(1998.15 698.86) rotate(90)"/><rect class="cls-9" x="648.07" y="1302.71" width="6.79" height="7.94" transform="translate(1958.14 655.21) rotate(90)"/><rect class="cls-9" x="656.84" y="1304.4" width="6.79" height="4.54" transform="translate(1966.91 646.44) rotate(90)"/><rect class="cls-10" x="667.17" y="1303.28" width="52.76" height="48.62"/><rect class="cls-8" x="671.84" y="1334.11" width="6.79" height="17.79"/><rect class="cls-8" x="699.01" y="1339.61" width="6.79" height="17.79" transform="translate(2050.91 646.11) rotate(90)"/><rect class="cls-9" x="700.83" y="1302.71" width="6.79" height="7.94" transform="translate(2010.9 602.45) rotate(90)"/><rect class="cls-9" x="709.6" y="1304.4" width="6.79" height="4.54" transform="translate(2019.67 593.68) rotate(90)"/><rect class="cls-10" x="719.93" y="1303.28" width="52.76" height="48.62"/><rect class="cls-8" x="724.6" y="1334.11" width="6.79" height="17.79"/><rect class="cls-8" x="751.77" y="1339.61" width="6.79" height="17.79" transform="translate(2103.67 593.35) rotate(90)"/><rect class="cls-9" x="753.59" y="1302.71" width="6.79" height="7.94" transform="translate(2063.66 549.69) rotate(90)"/><rect class="cls-9" x="762.36" y="1304.4" width="6.79" height="4.54" transform="translate(2072.43 540.92) rotate(90)"/><rect class="cls-11" x="772.69" y="1303.28" width="52.76" height="48.62"/><rect class="cls-8" x="777.36" y="1334.11" width="6.79" height="17.79"/><rect class="cls-8" x="804.53" y="1339.61" width="6.79" height="17.79" transform="translate(2156.43 540.59) rotate(90)"/><rect class="cls-9" x="806.35" y="1302.71" width="6.79" height="7.94" transform="translate(2116.42 496.94) rotate(90)"/><rect class="cls-9" x="815.12" y="1304.4" width="6.79" height="4.54" transform="translate(2125.19 488.16) rotate(90)"/><rect class="cls-12" x="825.45" y="1303.28" width="52.76" height="48.62"/><rect class="cls-8" x="830.12" y="1334.11" width="6.79" height="17.79"/><rect class="cls-8" x="857.28" y="1339.61" width="6.79" height="17.79" transform="translate(2209.18 487.83) rotate(90)"/><rect class="cls-9" x="859.11" y="1302.71" width="6.79" height="7.94" transform="translate(2169.17 444.18) rotate(90)"/><rect class="cls-9" x="867.88" y="1304.4" width="6.79" height="4.54" transform="translate(2177.95 435.41) rotate(90)"/><rect class="cls-12" x="878.21" y="1303.28" width="52.76" height="48.62"/><rect class="cls-8" x="882.88" y="1334.11" width="6.79" height="17.79"/><rect class="cls-8" x="910.04" y="1339.61" width="6.79" height="17.79" transform="translate(2261.94 435.07) rotate(90)"/><rect class="cls-9" x="911.86" y="1302.71" width="6.79" height="7.94" transform="translate(2221.93 391.42) rotate(90)"/><rect class="cls-9" x="920.64" y="1304.4" width="6.79" height="4.54" transform="translate(2230.7 382.65) rotate(90)"/><rect class="cls-12" x="930.97" y="1303.28" width="52.76" height="48.62"/><rect class="cls-8" x="935.64" y="1334.11" width="6.79" height="17.79"/><rect class="cls-8" x="962.8" y="1339.61" width="6.79" height="17.79" transform="translate(2314.7 382.31) rotate(90)"/><rect class="cls-9" x="964.62" y="1302.71" width="6.79" height="7.94" transform="translate(2274.69 338.66) rotate(90)"/><rect class="cls-9" x="973.39" y="1304.4" width="6.79" height="4.54" transform="translate(2283.46 329.89) rotate(90)"/><rect class="cls-7" x="539.95" y="1419.69" width="52.76" height="48.62"/><rect class="cls-8" x="544.61" y="1450.52" width="6.79" height="17.79"/><rect class="cls-8" x="571.78" y="1456.02" width="6.79" height="17.79" transform="translate(2040.09 889.74) rotate(90)"/><rect class="cls-9" x="573.6" y="1419.11" width="6.79" height="7.94" transform="translate(2000.08 846.09) rotate(90)"/><rect class="cls-9" x="582.37" y="1420.81" width="6.79" height="4.54" transform="translate(2008.85 837.32) rotate(90)"/><rect class="cls-10" x="592.7" y="1419.69" width="52.76" height="48.62"/><rect class="cls-8" x="597.37" y="1450.52" width="6.79" height="17.79"/><rect class="cls-8" x="624.54" y="1456.02" width="6.79" height="17.79" transform="translate(2092.84 836.98) rotate(90)"/><rect class="cls-9" x="626.36" y="1419.11" width="6.79" height="7.94" transform="translate(2052.83 793.33) rotate(90)"/><rect class="cls-9" x="635.13" y="1420.81" width="6.79" height="4.54" transform="translate(2061.61 784.56) rotate(90)"/><rect class="cls-11" x="592.7" y="1371.07" width="52.76" height="48.62"/><rect class="cls-8" x="597.37" y="1401.9" width="6.79" height="17.79"/><rect class="cls-8" x="624.54" y="1407.4" width="6.79" height="17.79" transform="translate(2044.23 788.36) rotate(90)"/><rect class="cls-9" x="626.36" y="1370.5" width="6.79" height="7.94" transform="translate(2004.22 744.71) rotate(90)"/><rect class="cls-9" x="635.13" y="1372.19" width="6.79" height="4.54" transform="translate(2012.99 735.94) rotate(90)"/><path class="cls-13" d="M784.49,925.64h.76c2.65,0,3.24-.55,3.62-3.21.12-.81-.44-1.15-.87-1.58q-8.48-8.51-17-17l-29.35-29.35c-.32-.32-.64-.65-1-1-.52-.46-.78-.28-.9.35-.66,3.5.1,6.88,1,10.24.15.59.7.94,1.12,1.36q19.06,19.07,38.11,38.16C781.38,925.09,782.75,926.12,784.49,925.64Z"/><path class="cls-13" d="M747.33,863.82c-1,0-2,0-3,0-.71,0-1.53-.17-1.86.75s.43,1.13.85,1.55q10.46,10.5,20.95,21l26,26c1.2,1.2,1.28,1.19,1.78-.38.59-1.87,1.13-3.75,1.73-5.61a1.49,1.49,0,0,0-.41-1.71q-9.63-9.59-19.22-19.22a1.6,1.6,0,0,0-1.59-.46c-6.67,1.23-11.51-3.59-10.27-10.23a1.7,1.7,0,0,0-.53-1.7q-4.61-4.56-9.18-9.17a2.45,2.45,0,0,0-2-.77C749.52,863.84,748.43,863.82,747.33,863.82Z"/><path class="cls-13" d="M767.56,863.82c-1.41,0-2.82,0-4.23,0-.3,0-.68-.09-.84.29s.13.51.32.69L767,869a1.67,1.67,0,0,0,1.65.33c6.29-1.1,11.22,3.79,10.07,10a2.08,2.08,0,0,0,.67,2.06q8,7.95,15.92,15.92c.76.76,1.23.84,1.54-.35q.79-3,1.68-6a1.67,1.67,0,0,0-.51-1.83q-12.31-12.29-24.6-24.6a2.22,2.22,0,0,0-1.72-.65C770.29,863.83,768.92,863.82,767.56,863.82Z"/><path class="cls-13" d="M744.7,899c.56,1.9,1.11,3.81,1.68,5.71s1.39,4.05,1.88,6.13a10.3,10.3,0,0,0,3.19,5.24c2.94,2.79,5.76,5.69,8.6,8.58a3,3,0,0,0,2.41,1c2.59,0,5.19,0,7.78,0,.35,0,.81.13,1-.24s-.27-.72-.53-1q-12.54-12.56-25.09-25.1a6.28,6.28,0,0,0-.62-.48Z"/><path class="cls-13" d="M763,877.62a7.46,7.46,0,1,0,7.3-7.56A7.35,7.35,0,0,0,763,877.62Z"/><path d="M788.37,863.82c-1.41,0-2.82,0-4.23,0-.3,0-.7-.1-.81.3s.22.48.4.66l5,5q5.45,5.45,10.91,10.9c.27.27.52.8,1,.56.24-.13.31-.62.39-1a22.94,22.94,0,0,0-.26-8.8,2.57,2.57,0,0,0-.87-1.35c-1.77-1.77-3.57-3.51-5.29-5.32a3,3,0,0,0-2.53-1C790.83,863.87,789.6,863.82,788.37,863.82Z"/><path d="M770.54,862.86H782c.34,0,.84.16,1-.22s-.34-.68-.63-.92c-6.38-5.24-17.22-5.26-23.76-.05-.31.24-.83.47-.71.9s.7.29,1.07.29C762.81,862.86,766.68,862.86,770.54,862.86Z"/><path class="cls-14" d="M773,935.38a4.78,4.78,0,1,1,4.9,4.65A4.74,4.74,0,0,1,773,935.38Z"/><path class="cls-14" d="M780,1022.26c-7.38,5.85-17.79,4.94-22.6-2.12.3.27.59.55.9.82a16.13,16.13,0,0,0,26.19-17,44.89,44.89,0,0,0-2.33-5.56A16.7,16.7,0,0,1,780,1022.26Z"/><path class="cls-14" d="M767.54,957.61h2.86c1,0,1.91,0,2.86,0s1.49.5,1.48,1.51c0,1.77,0,3.55,0,5.32a1.3,1.3,0,0,1-1.4,1.48c-2,0-3.91,0-5.86,0a1.25,1.25,0,0,1-1.33-1.4q0-2.8,0-5.59C766.15,958,766.67,957.62,767.54,957.61Z"/><path class="cls-14" d="M748.56,850.77a26.58,26.58,0,0,1,7.53-4.7,37,37,0,0,0-6.66,4C749.16,850.27,748.9,850.7,748.56,850.77Z"/><path class="cls-14" d="M752.78,862.87a2.62,2.62,0,0,0,2-.82A22,22,0,0,1,786,862a2.77,2.77,0,0,0,2.17.86c3,0,5.92.06,8.87,0a2.23,2.23,0,0,1,2.45,1.61,30.28,30.28,0,0,1,1.66,20c-3.51,13.86-7.9,27.45-12.25,41.05a1.49,1.49,0,0,1-1.71,1.14c-5.55,0-11.1,0-16.65,0s-11.1,0-16.65,0a1.76,1.76,0,0,1-2-1.49c-.7-2.4-1.54-4.76-2.29-7.15-3.49-11.06-6.94-22.13-9.81-33.38a30.32,30.32,0,0,1,1.71-20.37,2,2,0,0,1,2.16-1.41C746.69,862.92,749.74,862.84,752.78,862.87Z"/><path class="cls-14" d="M767.33,949c2.09-.07,4.18-.07,6.26,0,1.09,0,1.18.91,1.18,1.8s-.28,1.53-1.29,1.55-2,0-3,0h-3c-1,0-1.36-.54-1.38-1.47S766.15,949,767.33,949Z"/><path class="cls-14" d="M763,930.57a4.73,4.73,0,1,1-4.71,4.7A4.74,4.74,0,0,1,763,930.57Z"/><path class="cls-15" d="M778.78,945.33h2.59c2.72,0,4.08-.94,5-3.56,1.84-5.43,3.67-10.87,5.45-16.32,4-12.25,8-24.5,11.15-37,1-3.87,2.09-7.73,2-11.8a35.72,35.72,0,0,0-4.25-15.94A35.32,35.32,0,0,0,778,843.8c-1-.21-2-.39-3-.52A34.26,34.26,0,0,0,756.24,846v0l-.14,0a37,37,0,0,0-6.66,4c-.28.21-.54.64-.87.7a39.8,39.8,0,0,0-10.17,13.78,32.2,32.2,0,0,0-2.42,14,47.74,47.74,0,0,0,1.9,9.63c4.74,18.11,10.72,35.84,16.67,53.57.88,2.62,2.24,3.55,5,3.56h2.32c.59,0,1.09.07,1.13.84s-.09,1.23-1,1.29a1.49,1.49,0,0,0-1.47,1.76c0,.77,0,1.55,0,2.32-.05,1.26.13,2.3,1.74,2.33.69,0,.72.57.72,1.1s0,1.09-.71,1.11c-1.61,0-1.77,1.07-1.75,2.33q.05,3.48,0,7c0,1.17.33,2,1.62,2.06.75.05.85.52.85,1.13s-.2.95-.85,1c-1.39.1-1.72,1-1.58,2.2a16,16,0,0,0,3.2,7.16c3.08,4.47,6.79,8.43,10.17,12.67,2.93,3.67,5.78,7.4,7.51,11.83,2.52,6.45.75,12.86-4.57,16.66-8.1,5.78-19.8.56-20.86-9.31-.34-3.16-.31-6.36-1.63-9.36a18.66,18.66,0,0,0-9.16-9.89,8.63,8.63,0,0,0-4.49-.94,2.39,2.39,0,0,0-2.3,2.41,2.44,2.44,0,0,0,2.09,2.62c3.77.73,4.76,1.94,5,5.85.26,3.54,0,7.1.51,10.63,1.86,12.77,13.23,22.57,26.09,22.93A27.34,27.34,0,0,0,796,993.33a65.51,65.51,0,0,0-8-10.16c-1.53-1.69-3.07-3.37-4.51-5.12a12.27,12.27,0,0,1-3.11-6.86,1.54,1.54,0,0,0-1.51-1.62c-.66-.06-1-.32-1-1s.23-1.09,1-1.15c1-.09,1.48-.73,1.47-1.76,0-2.6,0-5.19,0-7.79,0-1-.37-1.7-1.47-1.74-.79,0-1-.46-1-1.16s.22-1.11,1-1.14c1.1,0,1.47-.74,1.46-1.75,0-.77,0-1.55,0-2.32.07-1.29-.21-2.27-1.76-2.36-.7,0-.7-.58-.7-1.1S778.13,945.33,778.78,945.33Zm-24.89-18.7a1.76,1.76,0,0,1-2-1.49c-.7-2.4-1.54-4.76-2.29-7.15-3.49-11.06-6.93-22.13-9.81-33.38a30.32,30.32,0,0,1,1.71-20.37,2,2,0,0,1,2.16-1.41c3,.08,6.1,0,9.15,0a2.62,2.62,0,0,0,2-.82A22,22,0,0,1,786,862a2.77,2.77,0,0,0,2.17.86c3,0,5.92.06,8.87,0a2.23,2.23,0,0,1,2.45,1.61,30.28,30.28,0,0,1,1.66,20c-3.51,13.86-7.9,27.45-12.25,41.05a1.49,1.49,0,0,1-1.71,1.14c-5.55,0-11.1,0-16.66,0S759.44,926.57,753.88,926.63Zm9.18,13.4a4.73,4.73,0,1,1,4.78-4.77A4.74,4.74,0,0,1,763.07,940Zm11.67,24.41a1.3,1.3,0,0,1-1.4,1.48c-2,0-3.91,0-5.86,0a1.25,1.25,0,0,1-1.33-1.4q0-2.8,0-5.59c0-.9.52-1.31,1.39-1.31h2.86c1,0,1.91,0,2.86,0s1.49.5,1.48,1.51C774.73,960.89,774.74,962.66,774.74,964.44Zm-1.26-12.13c-1,0-2,0-3,0h-3c-1,0-1.36-.54-1.38-1.47s0-1.85,1.22-1.89c2.09-.07,4.18-.07,6.26,0,1.09,0,1.19.91,1.18,1.8S774.49,952.29,773.48,952.31ZM773,935.38a4.78,4.78,0,1,1,4.9,4.65A4.74,4.74,0,0,1,773,935.38Z"/><line class="cls-16" x1="934.3" y1="1120.62" x2="787.35" y2="1030.81"/><polyline class="cls-16" points="772.88 1021.97 768.66 1019.4 766.19 1020.96 748.41 1032.2 608.55 1120.62"/><path class="cls-13" d="M256.23,925.64H257c2.65,0,3.24-.55,3.62-3.21.12-.81-.44-1.15-.87-1.58q-8.48-8.51-17-17L213.4,874.51c-.32-.32-.64-.65-1-1-.52-.46-.78-.28-.9.35-.66,3.5.1,6.88,1,10.24.15.59.7.94,1.12,1.36q19.06,19.07,38.11,38.16C253.12,925.09,254.49,926.12,256.23,925.64Z"/><path class="cls-13" d="M219.08,863.82c-1,0-2,0-3,0-.71,0-1.53-.17-1.86.75s.43,1.13.85,1.55q10.46,10.5,20.95,21l26,26c1.2,1.2,1.28,1.19,1.78-.38.59-1.87,1.13-3.75,1.73-5.61a1.49,1.49,0,0,0-.41-1.71q-9.63-9.59-19.22-19.22a1.6,1.6,0,0,0-1.59-.46c-6.67,1.23-11.51-3.59-10.27-10.23a1.7,1.7,0,0,0-.53-1.7q-4.61-4.56-9.18-9.17a2.45,2.45,0,0,0-2-.77C221.26,863.84,220.17,863.82,219.08,863.82Z"/><path class="cls-13" d="M239.3,863.82c-1.41,0-2.82,0-4.23,0-.3,0-.68-.09-.84.29s.13.51.32.69L238.7,869a1.67,1.67,0,0,0,1.65.33c6.29-1.1,11.22,3.79,10.07,10a2.08,2.08,0,0,0,.67,2.06q8,7.95,15.92,15.92c.76.76,1.23.84,1.54-.35q.79-3,1.68-6a1.67,1.67,0,0,0-.51-1.83q-12.31-12.29-24.6-24.6a2.22,2.22,0,0,0-1.72-.65C242,863.83,240.67,863.82,239.3,863.82Z"/><path class="cls-13" d="M216.44,899c.56,1.9,1.11,3.81,1.68,5.71s1.39,4.05,1.88,6.13a10.3,10.3,0,0,0,3.19,5.24c2.94,2.79,5.76,5.69,8.6,8.58a3,3,0,0,0,2.41,1c2.59,0,5.19,0,7.78,0,.35,0,.81.13,1-.24s-.27-.72-.53-1q-12.54-12.56-25.09-25.1a6.28,6.28,0,0,0-.62-.48Z"/><path class="cls-13" d="M234.72,877.62a7.46,7.46,0,1,0,7.3-7.56A7.35,7.35,0,0,0,234.72,877.62Z"/><path d="M260.11,863.82c-1.41,0-2.82,0-4.23,0-.3,0-.7-.1-.81.3s.22.48.4.66l5,5q5.45,5.45,10.91,10.9c.27.27.52.8,1,.56.24-.13.31-.62.39-1a22.94,22.94,0,0,0-.26-8.8,2.57,2.57,0,0,0-.87-1.35c-1.77-1.77-3.57-3.51-5.29-5.32a3,3,0,0,0-2.53-1C262.57,863.87,261.34,863.82,260.11,863.82Z"/><path d="M242.28,862.86h11.45c.34,0,.84.16,1-.22s-.34-.68-.63-.92c-6.38-5.24-17.22-5.26-23.76-.05-.31.24-.83.47-.71.9s.7.29,1.07.29C234.55,862.86,238.42,862.86,242.28,862.86Z"/><path class="cls-14" d="M244.78,935.38a4.78,4.78,0,1,1,4.9,4.65A4.74,4.74,0,0,1,244.78,935.38Z"/><path class="cls-14" d="M251.76,1022.26c-7.38,5.85-17.79,4.94-22.6-2.12.3.27.59.55.9.82a16.13,16.13,0,0,0,26.19-17,44.89,44.89,0,0,0-2.33-5.56A16.7,16.7,0,0,1,251.76,1022.26Z"/><path class="cls-14" d="M239.28,957.61h2.86c1,0,1.91,0,2.86,0s1.49.5,1.48,1.51c0,1.77,0,3.55,0,5.32a1.3,1.3,0,0,1-1.4,1.48c-2,0-3.91,0-5.86,0a1.25,1.25,0,0,1-1.33-1.4q0-2.8,0-5.59C237.9,958,238.41,957.62,239.28,957.61Z"/><path class="cls-14" d="M220.31,850.77a26.58,26.58,0,0,1,7.53-4.7,37,37,0,0,0-6.66,4C220.9,850.27,220.64,850.7,220.31,850.77Z"/><path class="cls-14" d="M224.53,862.87a2.62,2.62,0,0,0,2-.82,22,22,0,0,1,31.17,0,2.77,2.77,0,0,0,2.17.86c3,0,5.92.06,8.87,0a2.23,2.23,0,0,1,2.45,1.61,30.28,30.28,0,0,1,1.66,20c-3.51,13.86-7.9,27.45-12.25,41.05a1.49,1.49,0,0,1-1.71,1.14c-5.55,0-11.1,0-16.65,0s-11.1,0-16.65,0a1.76,1.76,0,0,1-2-1.49c-.7-2.4-1.54-4.76-2.29-7.15-3.49-11.06-6.94-22.13-9.81-33.38a30.32,30.32,0,0,1,1.71-20.37,2,2,0,0,1,2.16-1.41C218.43,862.92,221.48,862.84,224.53,862.87Z"/><path class="cls-14" d="M239.07,949c2.09-.07,4.18-.07,6.26,0,1.09,0,1.18.91,1.18,1.8s-.28,1.53-1.29,1.55-2,0-3,0h-3c-1,0-1.36-.54-1.38-1.47S237.89,949,239.07,949Z"/><path class="cls-14" d="M234.73,930.57a4.73,4.73,0,1,1-4.71,4.7A4.74,4.74,0,0,1,234.73,930.57Z"/><path class="cls-15" d="M250.52,945.33h2.59c2.72,0,4.08-.94,5-3.56,1.84-5.43,3.67-10.87,5.45-16.32,4-12.25,8-24.5,11.15-37,1-3.87,2.09-7.73,2-11.8a35.72,35.72,0,0,0-4.25-15.94,35.32,35.32,0,0,0-22.67-16.9c-1-.21-2-.39-3-.52A34.26,34.26,0,0,0,228,846v0l-.14,0a37,37,0,0,0-6.66,4c-.28.21-.54.64-.87.7a39.8,39.8,0,0,0-10.17,13.78,32.2,32.2,0,0,0-2.42,14,47.74,47.74,0,0,0,1.9,9.63c4.74,18.11,10.72,35.84,16.67,53.57.88,2.62,2.24,3.55,5,3.56h2.32c.59,0,1.09.07,1.13.84s-.09,1.23-1,1.29a1.49,1.49,0,0,0-1.47,1.76c0,.77,0,1.55,0,2.32-.05,1.26.13,2.3,1.74,2.33.69,0,.72.57.72,1.1s0,1.09-.71,1.11c-1.61,0-1.77,1.07-1.75,2.33q.05,3.48,0,7c0,1.17.33,2,1.62,2.06.75.05.85.52.85,1.13s-.2.95-.85,1c-1.39.1-1.72,1-1.58,2.2a16,16,0,0,0,3.2,7.16c3.08,4.47,6.79,8.43,10.17,12.67,2.93,3.67,5.78,7.4,7.51,11.83,2.52,6.45.75,12.86-4.57,16.66-8.1,5.78-19.8.56-20.86-9.31-.34-3.16-.31-6.36-1.63-9.36a18.66,18.66,0,0,0-9.16-9.89,8.63,8.63,0,0,0-4.49-.94,2.39,2.39,0,0,0-2.3,2.41,2.44,2.44,0,0,0,2.09,2.62c3.77.73,4.76,1.94,5,5.85.26,3.54,0,7.1.51,10.63,1.86,12.77,13.23,22.57,26.09,22.93a27.34,27.34,0,0,0,23.91-41.68,65.51,65.51,0,0,0-8-10.16c-1.53-1.69-3.07-3.37-4.51-5.12a12.27,12.27,0,0,1-3.11-6.86,1.54,1.54,0,0,0-1.51-1.62c-.66-.06-1-.32-1-1s.23-1.09,1-1.15c1-.09,1.48-.73,1.47-1.76,0-2.6,0-5.19,0-7.79,0-1-.37-1.7-1.47-1.74-.79,0-1-.46-1-1.16s.22-1.11,1-1.14c1.1,0,1.47-.74,1.46-1.75,0-.77,0-1.55,0-2.32.07-1.29-.21-2.27-1.76-2.36-.7,0-.7-.58-.7-1.1S249.87,945.33,250.52,945.33Zm-24.89-18.7a1.76,1.76,0,0,1-2-1.49c-.7-2.4-1.54-4.76-2.29-7.15-3.49-11.06-6.93-22.13-9.81-33.38a30.32,30.32,0,0,1,1.71-20.37,2,2,0,0,1,2.16-1.41c3,.08,6.1,0,9.15,0a2.62,2.62,0,0,0,2-.82,22,22,0,0,1,31.17,0,2.77,2.77,0,0,0,2.17.86c3,0,5.92.06,8.87,0a2.23,2.23,0,0,1,2.45,1.61,30.28,30.28,0,0,1,1.66,20c-3.51,13.86-7.9,27.45-12.25,41.05a1.49,1.49,0,0,1-1.71,1.14c-5.55,0-11.1,0-16.66,0S231.18,926.57,225.63,926.63Zm9.18,13.4a4.73,4.73,0,1,1,4.78-4.77A4.74,4.74,0,0,1,234.81,940Zm11.67,24.41a1.3,1.3,0,0,1-1.4,1.48c-2,0-3.91,0-5.86,0a1.25,1.25,0,0,1-1.33-1.4q0-2.8,0-5.59c0-.9.52-1.31,1.39-1.31h2.86c1,0,1.91,0,2.86,0s1.49.5,1.48,1.51C246.48,960.89,246.48,962.66,246.48,964.44Zm-1.26-12.13c-1,0-2,0-3,0h-3c-1,0-1.36-.54-1.38-1.47s0-1.85,1.22-1.89c2.09-.07,4.18-.07,6.26,0,1.09,0,1.19.91,1.18,1.8S246.24,952.29,245.22,952.31Zm-.44-16.93a4.78,4.78,0,1,1,4.9,4.65A4.74,4.74,0,0,1,244.78,935.38Z"/><rect class="cls-3" x="13.26" y="1134.89" width="464.09" height="229.13"/><rect class="cls-4" x="19.24" y="1143.63" width="452.13" height="211.65"/><polygon class="cls-5" points="449.73 1108.66 40.89 1108.66 13.26 1134.89 477.36 1134.89 449.73 1108.66"/><polygon class="cls-6" points="444.46 1334.85 46.16 1334.85 19.24 1355.28 471.37 1355.28 444.46 1334.85"/><line class="cls-16" x1="406.04" y1="1120.62" x2="259.09" y2="1030.81"/><polyline class="cls-16" points="244.62 1021.97 240.41 1019.4 237.93 1020.96 220.15 1032.2 80.29 1120.62"/><rect class="cls-15" x="179.21" y="808.52" width="127.91" height="75.15"/><rect class="cls-12" x="34.27" y="1157.43" width="52.76" height="48.62"/><rect class="cls-8" x="38.94" y="1188.26" width="6.79" height="17.79"/><rect class="cls-8" x="66.11" y="1193.76" width="6.79" height="17.79" transform="translate(1272.15 1133.15) rotate(90)"/><rect class="cls-9" x="67.93" y="1156.85" width="6.79" height="7.94" transform="translate(1232.14 1089.5) rotate(90)"/><rect class="cls-9" x="76.7" y="1158.55" width="6.79" height="4.54" transform="translate(1240.91 1080.73) rotate(90)"/><rect class="cls-12" x="87.03" y="1157.43" width="52.76" height="48.62"/><rect class="cls-8" x="91.7" y="1188.26" width="6.79" height="17.79"/><rect class="cls-8" x="118.86" y="1193.76" width="6.79" height="17.79" transform="translate(1324.91 1080.39) rotate(90)"/><rect class="cls-9" x="120.69" y="1156.85" width="6.79" height="7.94" transform="translate(1284.9 1036.74) rotate(90)"/><rect class="cls-9" x="129.46" y="1158.55" width="6.79" height="4.54" transform="translate(1293.67 1027.97) rotate(90)"/><rect class="cls-12" x="139.79" y="1157.43" width="52.76" height="48.62"/><rect class="cls-8" x="144.46" y="1188.26" width="6.79" height="17.79"/><rect class="cls-8" x="171.62" y="1193.76" width="6.79" height="17.79" transform="translate(1377.67 1027.64) rotate(90)"/><rect class="cls-9" x="173.44" y="1156.85" width="6.79" height="7.94" transform="translate(1337.66 983.98) rotate(90)"/><rect class="cls-9" x="182.22" y="1158.55" width="6.79" height="4.54" transform="translate(1346.43 975.21) rotate(90)"/><rect class="cls-12" x="192.55" y="1157.43" width="52.76" height="48.62"/><rect class="cls-8" x="197.22" y="1188.26" width="6.79" height="17.79"/><rect class="cls-8" x="224.38" y="1193.76" width="6.79" height="17.79" transform="translate(1430.43 974.88) rotate(90)"/><rect class="cls-9" x="226.2" y="1156.85" width="6.79" height="7.94" transform="translate(1390.42 931.22) rotate(90)"/><rect class="cls-9" x="234.97" y="1158.55" width="6.79" height="4.54" transform="translate(1399.19 922.45) rotate(90)"/><rect class="cls-12" x="245.31" y="1157.43" width="52.76" height="48.62"/><rect class="cls-8" x="249.98" y="1188.26" width="6.79" height="17.79"/><rect class="cls-8" x="277.14" y="1193.76" width="6.79" height="17.79" transform="translate(1483.19 922.12) rotate(90)"/><rect class="cls-9" x="278.96" y="1156.85" width="6.79" height="7.94" transform="translate(1443.18 878.47) rotate(90)"/><rect class="cls-9" x="287.73" y="1158.55" width="6.79" height="4.54" transform="translate(1451.95 869.7) rotate(90)"/><rect class="cls-12" x="298.07" y="1157.43" width="52.76" height="48.62"/><rect class="cls-8" x="302.73" y="1188.26" width="6.79" height="17.79"/><rect class="cls-8" x="329.9" y="1193.76" width="6.79" height="17.79" transform="translate(1535.95 869.36) rotate(90)"/><rect class="cls-9" x="331.72" y="1156.85" width="6.79" height="7.94" transform="translate(1495.94 825.71) rotate(90)"/><rect class="cls-9" x="340.49" y="1158.55" width="6.79" height="4.54" transform="translate(1504.71 816.94) rotate(90)"/><rect class="cls-12" x="350.83" y="1157.43" width="52.76" height="48.62"/><rect class="cls-8" x="355.49" y="1188.26" width="6.79" height="17.79"/><rect class="cls-8" x="382.66" y="1193.76" width="6.79" height="17.79" transform="translate(1588.71 816.6) rotate(90)"/><rect class="cls-9" x="384.48" y="1156.85" width="6.79" height="7.94" transform="translate(1548.7 772.95) rotate(90)"/><rect class="cls-9" x="393.25" y="1158.55" width="6.79" height="4.54" transform="translate(1557.47 764.18) rotate(90)"/><rect class="cls-12" x="403.58" y="1157.43" width="52.76" height="48.62"/><rect class="cls-8" x="408.25" y="1188.26" width="6.79" height="17.79"/><rect class="cls-8" x="435.42" y="1193.76" width="6.79" height="17.79" transform="translate(1641.46 763.84) rotate(90)"/><rect class="cls-9" x="437.24" y="1156.85" width="6.79" height="7.94" transform="translate(1601.45 720.19) rotate(90)"/><rect class="cls-9" x="446.01" y="1158.55" width="6.79" height="4.54" transform="translate(1610.22 711.42) rotate(90)"/><rect class="cls-12" x="34.27" y="1206.05" width="52.76" height="48.62"/><rect class="cls-8" x="38.94" y="1236.87" width="6.79" height="17.79"/><rect class="cls-8" x="66.11" y="1242.38" width="6.79" height="17.79" transform="translate(1320.77 1181.77) rotate(90)"/><rect class="cls-9" x="67.93" y="1205.47" width="6.79" height="7.94" transform="translate(1280.76 1138.12) rotate(90)"/><rect class="cls-9" x="76.7" y="1207.17" width="6.79" height="4.54" transform="translate(1289.53 1129.35) rotate(90)"/><rect class="cls-12" x="87.03" y="1206.05" width="52.76" height="48.62"/><rect class="cls-8" x="91.7" y="1236.87" width="6.79" height="17.79"/><rect class="cls-8" x="118.86" y="1242.38" width="6.79" height="17.79" transform="translate(1373.53 1129.01) rotate(90)"/><rect class="cls-9" x="120.69" y="1205.47" width="6.79" height="7.94" transform="translate(1333.52 1085.36) rotate(90)"/><rect class="cls-9" x="129.46" y="1207.17" width="6.79" height="4.54" transform="translate(1342.29 1076.59) rotate(90)"/><rect class="cls-12" x="139.79" y="1206.05" width="52.76" height="48.62"/><rect class="cls-8" x="144.46" y="1236.87" width="6.79" height="17.79"/><rect class="cls-8" x="171.62" y="1242.38" width="6.79" height="17.79" transform="translate(1426.29 1076.25) rotate(90)"/><rect class="cls-9" x="173.44" y="1205.47" width="6.79" height="7.94" transform="translate(1386.28 1032.6) rotate(90)"/><rect class="cls-9" x="182.22" y="1207.17" width="6.79" height="4.54" transform="translate(1395.05 1023.83) rotate(90)"/><rect class="cls-12" x="192.55" y="1206.05" width="52.76" height="48.62"/><rect class="cls-8" x="197.22" y="1236.87" width="6.79" height="17.79"/><rect class="cls-8" x="224.38" y="1242.38" width="6.79" height="17.79" transform="translate(1479.05 1023.5) rotate(90)"/><rect class="cls-9" x="226.2" y="1205.47" width="6.79" height="7.94" transform="translate(1439.04 979.84) rotate(90)"/><rect class="cls-9" x="234.97" y="1207.17" width="6.79" height="4.54" transform="translate(1447.81 971.07) rotate(90)"/><rect class="cls-12" x="245.31" y="1206.05" width="52.76" height="48.62"/><rect class="cls-8" x="249.98" y="1236.87" width="6.79" height="17.79"/><rect class="cls-8" x="277.14" y="1242.38" width="6.79" height="17.79" transform="translate(1531.81 970.74) rotate(90)"/><rect class="cls-9" x="278.96" y="1205.47" width="6.79" height="7.94" transform="translate(1491.8 927.08) rotate(90)"/><rect class="cls-9" x="287.73" y="1207.17" width="6.79" height="4.54" transform="translate(1500.57 918.31) rotate(90)"/><rect class="cls-12" x="298.07" y="1206.05" width="52.76" height="48.62"/><rect class="cls-8" x="302.73" y="1236.87" width="6.79" height="17.79"/><rect class="cls-8" x="329.9" y="1242.38" width="6.79" height="17.79" transform="translate(1584.56 917.98) rotate(90)"/><rect class="cls-9" x="331.72" y="1205.47" width="6.79" height="7.94" transform="translate(1544.55 874.32) rotate(90)"/><rect class="cls-9" x="340.49" y="1207.17" width="6.79" height="4.54" transform="translate(1553.33 865.55) rotate(90)"/><rect class="cls-12" x="350.83" y="1206.05" width="52.76" height="48.62"/><rect class="cls-8" x="355.49" y="1236.87" width="6.79" height="17.79"/><rect class="cls-8" x="382.66" y="1242.38" width="6.79" height="17.79" transform="translate(1637.32 865.22) rotate(90)"/><rect class="cls-9" x="384.48" y="1205.47" width="6.79" height="7.94" transform="translate(1597.31 821.57) rotate(90)"/><rect class="cls-9" x="393.25" y="1207.17" width="6.79" height="4.54" transform="translate(1606.08 812.8) rotate(90)"/><rect class="cls-12" x="403.58" y="1206.05" width="52.76" height="48.62"/><rect class="cls-8" x="408.25" y="1236.87" width="6.79" height="17.79"/><rect class="cls-8" x="435.42" y="1242.38" width="6.79" height="17.79" transform="translate(1690.08 812.46) rotate(90)"/><rect class="cls-9" x="437.24" y="1205.47" width="6.79" height="7.94" transform="translate(1650.07 768.81) rotate(90)"/><rect class="cls-9" x="446.01" y="1207.17" width="6.79" height="4.54" transform="translate(1658.84 760.04) rotate(90)"/><rect class="cls-12" x="34.27" y="1254.66" width="52.76" height="48.62"/><rect class="cls-8" x="38.94" y="1285.49" width="6.79" height="17.79"/><rect class="cls-8" x="66.11" y="1290.99" width="6.79" height="17.79" transform="translate(1369.39 1230.39) rotate(90)"/><rect class="cls-9" x="67.93" y="1254.09" width="6.79" height="7.94" transform="translate(1329.38 1186.74) rotate(90)"/><rect class="cls-9" x="76.7" y="1255.79" width="6.79" height="4.54" transform="translate(1338.15 1177.97) rotate(90)"/><rect class="cls-12" x="87.03" y="1254.66" width="52.76" height="48.62"/><rect class="cls-8" x="91.7" y="1285.49" width="6.79" height="17.79"/><rect class="cls-8" x="118.86" y="1290.99" width="6.79" height="17.79" transform="translate(1422.15 1177.63) rotate(90)"/><rect class="cls-9" x="120.69" y="1254.09" width="6.79" height="7.94" transform="translate(1382.14 1133.98) rotate(90)"/><rect class="cls-9" x="129.46" y="1255.79" width="6.79" height="4.54" transform="translate(1390.91 1125.21) rotate(90)"/><rect class="cls-12" x="139.79" y="1254.66" width="52.76" height="48.62"/><rect class="cls-8" x="144.46" y="1285.49" width="6.79" height="17.79"/><rect class="cls-8" x="171.62" y="1290.99" width="6.79" height="17.79" transform="translate(1474.91 1124.87) rotate(90)"/><rect class="cls-9" x="173.44" y="1254.09" width="6.79" height="7.94" transform="translate(1434.9 1081.22) rotate(90)"/><rect class="cls-9" x="182.22" y="1255.79" width="6.79" height="4.54" transform="translate(1443.67 1072.45) rotate(90)"/><rect class="cls-12" x="192.55" y="1254.66" width="52.76" height="48.62"/><rect class="cls-8" x="197.22" y="1285.49" width="6.79" height="17.79"/><rect class="cls-8" x="224.38" y="1290.99" width="6.79" height="17.79" transform="translate(1527.66 1072.11) rotate(90)"/><rect class="cls-9" x="226.2" y="1254.09" width="6.79" height="7.94" transform="translate(1487.65 1028.46) rotate(90)"/><rect class="cls-9" x="234.97" y="1255.79" width="6.79" height="4.54" transform="translate(1496.43 1019.69) rotate(90)"/><rect class="cls-12" x="245.31" y="1254.66" width="52.76" height="48.62"/><rect class="cls-8" x="249.98" y="1285.49" width="6.79" height="17.79"/><rect class="cls-8" x="277.14" y="1290.99" width="6.79" height="17.79" transform="translate(1580.42 1019.35) rotate(90)"/><rect class="cls-9" x="278.96" y="1254.09" width="6.79" height="7.94" transform="translate(1540.41 975.7) rotate(90)"/><rect class="cls-9" x="287.73" y="1255.79" width="6.79" height="4.54" transform="translate(1549.18 966.93) rotate(90)"/><rect class="cls-12" x="298.07" y="1254.66" width="52.76" height="48.62"/><rect class="cls-8" x="302.73" y="1285.49" width="6.79" height="17.79"/><rect class="cls-8" x="329.9" y="1290.99" width="6.79" height="17.79" transform="translate(1633.18 966.6) rotate(90)"/><rect class="cls-9" x="331.72" y="1254.09" width="6.79" height="7.94" transform="translate(1593.17 922.94) rotate(90)"/><rect class="cls-9" x="340.49" y="1255.79" width="6.79" height="4.54" transform="translate(1601.94 914.17) rotate(90)"/><rect class="cls-12" x="350.83" y="1254.66" width="52.76" height="48.62"/><rect class="cls-8" x="355.49" y="1285.49" width="6.79" height="17.79"/><rect class="cls-8" x="382.66" y="1290.99" width="6.79" height="17.79" transform="translate(1685.94 913.84) rotate(90)"/><rect class="cls-9" x="384.48" y="1254.09" width="6.79" height="7.94" transform="translate(1645.93 870.18) rotate(90)"/><rect class="cls-9" x="393.25" y="1255.79" width="6.79" height="4.54" transform="translate(1654.7 861.41) rotate(90)"/><rect class="cls-12" x="403.58" y="1254.66" width="52.76" height="48.62"/><rect class="cls-8" x="408.25" y="1285.49" width="6.79" height="17.79"/><rect class="cls-8" x="435.42" y="1290.99" width="6.79" height="17.79" transform="translate(1738.7 861.08) rotate(90)"/><rect class="cls-9" x="437.24" y="1254.09" width="6.79" height="7.94" transform="translate(1698.69 817.43) rotate(90)"/><rect class="cls-9" x="446.01" y="1255.79" width="6.79" height="4.54" transform="translate(1707.46 808.65) rotate(90)"/><rect class="cls-12" x="34.27" y="1303.28" width="52.76" height="48.62"/><rect class="cls-8" x="38.94" y="1334.11" width="6.79" height="17.79"/><rect class="cls-8" x="66.11" y="1339.61" width="6.79" height="17.79" transform="translate(1418.01 1279.01) rotate(90)"/><rect class="cls-9" x="67.93" y="1302.71" width="6.79" height="7.94" transform="translate(1378 1235.35) rotate(90)"/><rect class="cls-9" x="76.7" y="1304.4" width="6.79" height="4.54" transform="translate(1386.77 1226.58) rotate(90)"/><rect class="cls-12" x="87.03" y="1303.28" width="52.76" height="48.62"/><rect class="cls-8" x="91.7" y="1334.11" width="6.79" height="17.79"/><rect class="cls-8" x="118.86" y="1339.61" width="6.79" height="17.79" transform="translate(1470.76 1226.25) rotate(90)"/><rect class="cls-9" x="120.69" y="1302.71" width="6.79" height="7.94" transform="translate(1430.75 1182.6) rotate(90)"/><rect class="cls-9" x="129.46" y="1304.4" width="6.79" height="4.54" transform="translate(1439.53 1173.83) rotate(90)"/><rect class="cls-12" x="139.79" y="1303.28" width="52.76" height="48.62"/><rect class="cls-8" x="144.46" y="1334.11" width="6.79" height="17.79"/><rect class="cls-8" x="171.62" y="1339.61" width="6.79" height="17.79" transform="translate(1523.52 1173.49) rotate(90)"/><rect class="cls-9" x="173.44" y="1302.71" width="6.79" height="7.94" transform="translate(1483.51 1129.84) rotate(90)"/><rect class="cls-9" x="182.22" y="1304.4" width="6.79" height="4.54" transform="translate(1492.28 1121.07) rotate(90)"/><rect class="cls-12" x="192.55" y="1303.28" width="52.76" height="48.62"/><rect class="cls-8" x="197.22" y="1334.11" width="6.79" height="17.79"/><rect class="cls-8" x="224.38" y="1339.61" width="6.79" height="17.79" transform="translate(1576.28 1120.73) rotate(90)"/><rect class="cls-9" x="226.2" y="1302.71" width="6.79" height="7.94" transform="translate(1536.27 1077.08) rotate(90)"/><rect class="cls-9" x="234.97" y="1304.4" width="6.79" height="4.54" transform="translate(1545.04 1068.31) rotate(90)"/><rect class="cls-12" x="245.31" y="1303.28" width="52.76" height="48.62"/><rect class="cls-8" x="249.98" y="1334.11" width="6.79" height="17.79"/><rect class="cls-8" x="277.14" y="1339.61" width="6.79" height="17.79" transform="translate(1629.04 1067.97) rotate(90)"/><rect class="cls-9" x="278.96" y="1302.71" width="6.79" height="7.94" transform="translate(1589.03 1024.32) rotate(90)"/><rect class="cls-9" x="287.73" y="1304.4" width="6.79" height="4.54" transform="translate(1597.8 1015.55) rotate(90)"/><rect class="cls-12" x="298.07" y="1303.28" width="52.76" height="48.62"/><rect class="cls-8" x="302.73" y="1334.11" width="6.79" height="17.79"/><rect class="cls-8" x="329.9" y="1339.61" width="6.79" height="17.79" transform="translate(1681.8 1015.21) rotate(90)"/><rect class="cls-9" x="331.72" y="1302.71" width="6.79" height="7.94" transform="translate(1641.79 971.56) rotate(90)"/><rect class="cls-9" x="340.49" y="1304.4" width="6.79" height="4.54" transform="translate(1650.56 962.79) rotate(90)"/><rect class="cls-12" x="350.83" y="1303.28" width="52.76" height="48.62"/><rect class="cls-8" x="355.49" y="1334.11" width="6.79" height="17.79"/><rect class="cls-8" x="382.66" y="1339.61" width="6.79" height="17.79" transform="translate(1734.56 962.45) rotate(90)"/><rect class="cls-9" x="384.48" y="1302.71" width="6.79" height="7.94" transform="translate(1694.55 918.8) rotate(90)"/><rect class="cls-9" x="393.25" y="1304.4" width="6.79" height="4.54" transform="translate(1703.32 910.03) rotate(90)"/><rect class="cls-12" x="403.58" y="1303.28" width="52.76" height="48.62"/><rect class="cls-8" x="408.25" y="1334.11" width="6.79" height="17.79"/><rect class="cls-8" x="435.42" y="1339.61" width="6.79" height="17.79" transform="translate(1787.32 909.7) rotate(90)"/><rect class="cls-9" x="437.24" y="1302.71" width="6.79" height="7.94" transform="translate(1747.31 866.04) rotate(90)"/><rect class="cls-9" x="446.01" y="1304.4" width="6.79" height="4.54" transform="translate(1756.08 857.27) rotate(90)"/><path class="cls-17" d="M199.62,827.49h22.51v5.12H205.9v11.28h12.66V849H205.9v16.73h-6.27Z"/><path class="cls-17" d="M245.42,827c8,0,14.86,4,17.78,11.5h-7.54c-2-4.07-5.67-6-10.24-6-7.6,0-13.1,5.39-13.1,14s5.51,14.09,13.1,14.09c4.57,0,8.2-1.93,10.24-6h7.54c-2.92,7.49-9.8,11.45-17.78,11.45-10.79,0-19.54-8-19.54-19.54A19.13,19.13,0,0,1,245.42,827Z"/><path class="cls-17" d="M276.79,827.49v33.19h12.94v5.06H270.52V827.49Z"/><rect class="cls-15" x="706.59" y="808.52" width="127.91" height="75.15"/><path class="cls-17" d="M735.24,827.49v33.19h12.94v5.06H729V827.49Z"/><path class="cls-17" d="M770.85,827c8,0,14.86,4,17.78,11.5h-7.54c-2-4.07-5.67-6-10.24-6-7.6,0-13.1,5.39-13.1,14s5.5,14.09,13.1,14.09c4.57,0,8.2-1.93,10.24-6h7.54c-2.92,7.49-9.8,11.45-17.78,11.45-10.79,0-19.54-8-19.54-19.54A19.13,19.13,0,0,1,770.85,827Z"/><path class="cls-17" d="M802.22,827.49v33.19h12.94v5.06H795.95V827.49Z"/><rect class="cls-12" x="418.22" y="1419.69" width="52.76" height="48.62"/><rect class="cls-8" x="422.89" y="1450.52" width="6.79" height="17.79"/><rect class="cls-8" x="450.05" y="1456.02" width="6.79" height="17.79" transform="translate(1918.36 1011.47) rotate(90)"/><rect class="cls-9" x="451.88" y="1419.11" width="6.79" height="7.94" transform="translate(1878.35 967.81) rotate(90)"/><rect class="cls-9" x="460.65" y="1420.81" width="6.79" height="4.54" transform="translate(1887.12 959.04) rotate(90)"/><text class="cls-18" transform="translate(108 151.54)"><tspan class="cls-19">W</tspan><tspan x="16.81" y="0">a</tspan><tspan class="cls-20" x="27.3" y="0">r</tspan><tspan x="34.69" y="0">ehouse</tspan><tspan class="cls-21" x="0" y="22">St</tspan><tspan x="17.82" y="22">o</tspan><tspan class="cls-22" x="29.29" y="22">r</tspan><tspan x="36.62" y="22">age</tspan></text><text class="cls-18" transform="translate(108 201.87)"><tspan class="cls-19">W</tspan><tspan x="16.81" y="0">a</tspan><tspan class="cls-20" x="27.3" y="0">r</tspan><tspan x="34.69" y="0">ehouse</tspan><tspan class="cls-23" x="0" y="22">L</tspan><tspan x="10.23" y="22">a</tspan><tspan class="cls-24" x="20.73" y="22">b</tspan><tspan x="32.67" y="22">or</tspan></text><text class="cls-18" transform="translate(108 252.87)">Ex<tspan class="cls-25" x="20.92" y="0">p</tspan><tspan x="32.87" y="0">o</tspan><tspan class="cls-26" x="44.33" y="0">r</tspan><tspan class="cls-27" x="52.3" y="0">t</tspan><tspan class="cls-28" x="0" y="22">P</tspan><tspan x="11.19" y="22">ac</tspan><tspan class="cls-29" x="30.64" y="22">k</tspan><tspan x="41.61" y="22">ing</tspan></text><text class="cls-18" transform="translate(108 303.62)"><tspan class="cls-30">L<tspan class="cls-31" x="9.98" y="0">oading</tspan></tspan><tspan class="cls-32" x="0" y="22">C</tspan><tspan x="11.76" y="22">ha</tspan><tspan class="cls-20" x="33.9" y="22">r</tspan><tspan x="41.29" y="22">ges</tspan></text><text class="cls-18" transform="translate(108 354.37)"><tspan class="cls-25">I</tspan><tspan x="5.72" y="0">nland</tspan><tspan class="cls-33" x="0" y="22">F</tspan><tspan class="cls-20" x="10.08" y="22">r</tspan><tspan x="17.47" y="22">eig</tspan><tspan class="cls-34" x="45.03" y="22">h</tspan><tspan x="56.55" y="22">t</tspan></text><text class="cls-18" transform="translate(108 405.62)"><tspan class="cls-35">T</tspan><tspan x="9.28" y="0">erminal</tspan><tspan class="cls-32" x="0" y="22">C</tspan><tspan x="11.76" y="22">ha</tspan><tspan class="cls-20" x="33.9" y="22">r</tspan><tspan x="41.29" y="22">ges</tspan></text><text class="cls-18" transform="translate(108 456.62)"><tspan class="cls-36">F</tspan><tspan class="cls-31" x="9.96" y="0">o</tspan><tspan class="cls-37" x="21.42" y="0">r</tspan><tspan class="cls-38" x="29.33" y="0">w</tspan><tspan x="44.27" y="0">a</tspan><tspan class="cls-20" x="54.76" y="0">r</tspan><tspan x="62.16" y="0">de</tspan><tspan class="cls-37" x="84.49" y="0">r</tspan><tspan class="cls-39" x="92.4" y="0"></tspan><tspan class="cls-31" x="95.72" y="0">s</tspan><tspan class="cls-36"><tspan x="0" y="22">F</tspan><tspan class="cls-31" x="9.96" y="22">ees</tspan></tspan></text><text class="cls-18" transform="translate(108 507.12)"><tspan class="cls-30">L</tspan><tspan class="cls-31" x="9.98" y="0">oading </tspan><tspan class="cls-40" x="76.5" y="0">O</tspan><tspan x="90.83" y="0">n</tspan><tspan class="cls-41"><tspan x="0" y="22">V</tspan><tspan class="cls-31" x="11.8" y="22">essel</tspan></tspan></text><text class="cls-18" transform="translate(108 558.12)">O<tspan class="cls-42" x="14.25" y="0">c</tspan><tspan class="cls-31" x="22.99" y="0">ean/</tspan><tspan class="cls-34" x="62.2" y="0">A</tspan><tspan x="75.11" y="0">ir</tspan><tspan class="cls-33" x="0" y="22">F</tspan><tspan class="cls-20" x="10.08" y="22">r</tspan><tspan x="17.47" y="22">eig</tspan><tspan class="cls-34" x="45.03" y="22">h</tspan><tspan x="56.55" y="22">t</tspan></text><text class="cls-18" transform="translate(108 753.62)">Deli<tspan class="cls-43" x="35.23" y="0">v</tspan><tspan x="45.46" y="0">e</tspan><tspan class="cls-37" x="55.96" y="0">r</tspan><tspan x="63.87" y="0">y</tspan><tspan class="cls-44" x="74.26" y="0"> </tspan><tspan class="cls-45" x="77.5" y="0">T</tspan><tspan x="86.78" y="0">o</tspan><tspan x="0" y="22">Destin</tspan><tspan class="cls-20" x="57.33" y="22">a</tspan><tspan class="cls-27" x="67.66" y="22">tion</tspan></text><text class="cls-18" transform="translate(108 608.87)"><tspan class="cls-32">C</tspan><tspan x="11.76" y="0">ha</tspan><tspan class="cls-20" x="33.9" y="0">r</tspan><tspan x="41.29" y="0">ges</tspan><tspan class="cls-40" x="0" y="22">O</tspan><tspan x="14.33" y="22">n </tspan><tspan class="cls-34" x="29.99" y="22">A</tspan><tspan x="42.9" y="22">rri</tspan><tspan class="cls-38" x="63.45" y="22">v</tspan><tspan x="73.84" y="22">al </tspan><tspan class="cls-46" x="93.81" y="22">A</tspan><tspan class="cls-27" x="106.45" y="22">t</tspan><tspan x="0" y="44">Destin</tspan><tspan class="cls-20" x="57.33" y="44">a</tspan><tspan class="cls-27" x="67.66" y="44">tion</tspan></text><text class="cls-18" transform="translate(108 681.12)"><tspan class="cls-47">D</tspan><tspan class="cls-31" x="13.93" y="0">u</tspan><tspan class="cls-48" x="25.51" y="0">t</tspan><tspan class="cls-49" x="32.91" y="0">y</tspan><tspan x="42.34" y="0">,</tspan><tspan class="cls-44" x="47.51" y="0"> </tspan><tspan class="cls-50" x="50.75" y="0">T</tspan><tspan x="60.33" y="0">a</tspan><tspan class="cls-51" x="70.82" y="0">x</tspan><tspan x="80.7" y="0">es</tspan><tspan x="0" y="22">&amp; </tspan><tspan class="cls-46" x="17.49" y="22">C</tspan><tspan x="28.91" y="22">us</tspan><tspan class="cls-21" x="49.12" y="22">t</tspan><tspan class="cls-31" x="56.31" y="22">oms</tspan><tspan class="cls-32" x="0" y="44">C</tspan><tspan x="11.76" y="44">lea</tspan><tspan class="cls-42" x="38.21" y="44">r</tspan><tspan class="cls-31" x="45.54" y="44">an</tspan><tspan class="cls-22" x="67.68" y="44">c</tspan><tspan x="76.42" y="44">e</tspan></text><text class="cls-52" transform="translate(108 92.1)">SE<tspan class="cls-53" x="23.66" y="0">R</tspan><tspan x="36.6" y="0">VICES</tspan></text><text class="cls-54" transform="translate(246.52 97.1)">Ex<tspan class="cls-55" x="-15.63" y="19">W</tspan><tspan x="0.22" y="19">o</tspan><tspan class="cls-56" x="10.93" y="19">r</tspan><tspan x="17.38" y="19">ks</tspan></text><text class="cls-57" transform="translate(233.25 162.57)">S<tspan class="cls-58" x="9.98" y="0">eller</tspan></text><text class="cls-57" transform="translate(293 162.57)">S<tspan class="cls-58" x="9.98" y="0">eller</tspan></text><text class="cls-57" transform="translate(362.17 162.57)">S<tspan class="cls-58" x="9.98" y="0">eller</tspan></text><text class="cls-57" transform="translate(435 162.57)">S<tspan class="cls-58" x="9.98" y="0">eller</tspan></text><text class="cls-57" transform="translate(513.67 162.57)">S<tspan class="cls-58" x="9.98" y="0">eller</tspan></text><text class="cls-57" transform="translate(597.25 162.57)">S<tspan class="cls-58" x="9.98" y="0">eller</tspan></text><text class="cls-57" transform="translate(682.17 162.57)">S<tspan class="cls-58" x="9.98" y="0">eller</tspan></text><text class="cls-57" transform="translate(765.67 162.57)">S<tspan class="cls-58" x="9.98" y="0">eller</tspan></text><text class="cls-57" transform="translate(846.83 162.57)">S<tspan class="cls-58" x="9.98" y="0">eller</tspan></text><text class="cls-57" transform="translate(233.25 212.91)">S<tspan class="cls-58" x="9.98" y="0">eller</tspan></text><text class="cls-57" transform="translate(293 212.91)">S<tspan class="cls-58" x="9.98" y="0">eller</tspan></text><text class="cls-57" transform="translate(362.17 212.91)">S<tspan class="cls-58" x="9.98" y="0">eller</tspan></text><text class="cls-57" transform="translate(435 212.91)">S<tspan class="cls-58" x="9.98" y="0">eller</tspan></text><text class="cls-57" transform="translate(513.67 212.91)">S<tspan class="cls-58" x="9.98" y="0">eller</tspan></text><text class="cls-57" transform="translate(597.25 212.91)">S<tspan class="cls-58" x="9.98" y="0">eller</tspan></text><text class="cls-57" transform="translate(682.17 212.91)">S<tspan class="cls-58" x="9.98" y="0">eller</tspan></text><text class="cls-57" transform="translate(765.67 212.91)">S<tspan class="cls-58" x="9.98" y="0">eller</tspan></text><text class="cls-57" transform="translate(846.83 212.91)">S<tspan class="cls-58" x="9.98" y="0">eller</tspan></text><text class="cls-57" transform="translate(233.25 263.91)">S<tspan class="cls-58" x="9.98" y="0">eller</tspan></text><text class="cls-57" transform="translate(293 263.91)">S<tspan class="cls-58" x="9.98" y="0">eller</tspan></text><text class="cls-57" transform="translate(362.17 263.91)">S<tspan class="cls-58" x="9.98" y="0">eller</tspan></text><text class="cls-57" transform="translate(435 263.91)">S<tspan class="cls-58" x="9.98" y="0">eller</tspan></text><text class="cls-57" transform="translate(513.67 263.91)">S<tspan class="cls-58" x="9.98" y="0">eller</tspan></text><text class="cls-57" transform="translate(597.25 263.91)">S<tspan class="cls-58" x="9.98" y="0">eller</tspan></text><text class="cls-57" transform="translate(682.17 263.91)">S<tspan class="cls-58" x="9.98" y="0">eller</tspan></text><text class="cls-57" transform="translate(765.67 263.91)">S<tspan class="cls-58" x="9.98" y="0">eller</tspan></text><text class="cls-57" transform="translate(846.83 263.91)">S<tspan class="cls-58" x="9.98" y="0">eller</tspan></text><text class="cls-59" transform="translate(232.43 314.66)">Bu<tspan class="cls-60" x="21.86" y="0">y</tspan><tspan x="31.08" y="0">er</tspan></text><text class="cls-57" transform="translate(293 314.66)">S<tspan class="cls-58" x="9.98" y="0">eller</tspan></text><text class="cls-57" transform="translate(362.17 314.66)">S<tspan class="cls-58" x="9.98" y="0">eller</tspan></text><text class="cls-57" transform="translate(435 314.66)">S<tspan class="cls-58" x="9.98" y="0">eller</tspan></text><text class="cls-57" transform="translate(513.67 314.66)">S<tspan class="cls-58" x="9.98" y="0">eller</tspan></text><text class="cls-57" transform="translate(597.25 314.66)">S<tspan class="cls-58" x="9.98" y="0">eller</tspan></text><text class="cls-57" transform="translate(682.17 314.66)">S<tspan class="cls-58" x="9.98" y="0">eller</tspan></text><text class="cls-57" transform="translate(765.67 314.66)">S<tspan class="cls-58" x="9.98" y="0">eller</tspan></text><text class="cls-57" transform="translate(846.83 314.66)">S<tspan class="cls-58" x="9.98" y="0">eller</tspan></text><text class="cls-59" transform="translate(232.43 416.66)">Bu<tspan class="cls-60" x="21.86" y="0">y</tspan><tspan x="31.08" y="0">er</tspan></text><text class="cls-59" transform="translate(292.18 416.66)">Bu<tspan class="cls-60" x="21.86" y="0">y</tspan><tspan x="31.08" y="0">er</tspan></text><text class="cls-57" transform="translate(362.17 416.66)">S<tspan class="cls-58" x="9.98" y="0">eller</tspan></text><text class="cls-57" transform="translate(435 416.66)">S<tspan class="cls-58" x="9.98" y="0">eller</tspan></text><text class="cls-57" transform="translate(513.67 416.66)">S<tspan class="cls-58" x="9.98" y="0">eller</tspan></text><text class="cls-57" transform="translate(597.25 416.66)">S<tspan class="cls-58" x="9.98" y="0">eller</tspan></text><text class="cls-57" transform="translate(682.17 416.66)">S<tspan class="cls-58" x="9.98" y="0">eller</tspan></text><text class="cls-57" transform="translate(765.67 416.66)">S<tspan class="cls-58" x="9.98" y="0">eller</tspan></text><text class="cls-57" transform="translate(846.83 416.66)">S<tspan class="cls-58" x="9.98" y="0">eller</tspan></text><text class="cls-59" transform="translate(232.43 518.16)">Bu<tspan class="cls-60" x="21.86" y="0">y</tspan><tspan x="31.08" y="0">er</tspan></text><text class="cls-59" transform="translate(292.18 518.16)">Bu<tspan class="cls-60" x="21.86" y="0">y</tspan><tspan x="31.08" y="0">er</tspan></text><text class="cls-57" transform="translate(362.17 518.16)">S<tspan class="cls-58" x="9.98" y="0">eller</tspan></text><text class="cls-57" transform="translate(435 518.16)">S<tspan class="cls-58" x="9.98" y="0">eller</tspan></text><text class="cls-57" transform="translate(513.67 518.16)">S<tspan class="cls-58" x="9.98" y="0">eller</tspan></text><text class="cls-57" transform="translate(597.25 518.16)">S<tspan class="cls-58" x="9.98" y="0">eller</tspan></text><text class="cls-57" transform="translate(682.17 518.16)">S<tspan class="cls-58" x="9.98" y="0">eller</tspan></text><text class="cls-57" transform="translate(765.67 518.16)">S<tspan class="cls-58" x="9.98" y="0">eller</tspan></text><text class="cls-57" transform="translate(846.83 518.16)">S<tspan class="cls-58" x="9.98" y="0">eller</tspan></text><text class="cls-59" transform="translate(232.43 467.66)">Bu<tspan class="cls-60" x="21.86" y="0">y</tspan><tspan x="31.08" y="0">er</tspan></text><text class="cls-59" transform="translate(292.18 467.66)">Bu<tspan class="cls-60" x="21.86" y="0">y</tspan><tspan x="31.08" y="0">er</tspan></text><text class="cls-59" transform="translate(361.35 467.66)">Bu<tspan class="cls-60" x="21.86" y="0">y</tspan><tspan x="31.08" y="0">er</tspan></text><text class="cls-57" transform="translate(435 467.66)">S<tspan class="cls-58" x="9.98" y="0">eller</tspan></text><text class="cls-57" transform="translate(513.67 467.66)">S<tspan class="cls-58" x="9.98" y="0">eller</tspan></text><text class="cls-57" transform="translate(597.25 467.66)">S<tspan class="cls-58" x="9.98" y="0">eller</tspan></text><text class="cls-57" transform="translate(682.17 467.66)">S<tspan class="cls-58" x="9.98" y="0">eller</tspan></text><text class="cls-57" transform="translate(765.67 467.66)">S<tspan class="cls-58" x="9.98" y="0">eller</tspan></text><text class="cls-57" transform="translate(846.83 467.66)">S<tspan class="cls-58" x="9.98" y="0">eller</tspan></text><text class="cls-59" transform="translate(232.43 569.16)">Bu<tspan class="cls-60" x="21.86" y="0">y</tspan><tspan x="31.08" y="0">er</tspan></text><text class="cls-59" transform="translate(292.18 569.16)">Bu<tspan class="cls-60" x="21.86" y="0">y</tspan><tspan x="31.08" y="0">er</tspan></text><text class="cls-59" transform="translate(361.35 569.16)">Bu<tspan class="cls-60" x="21.86" y="0">y</tspan><tspan x="31.08" y="0">er</tspan></text><text class="cls-57" transform="translate(435 569.16)">S<tspan class="cls-58" x="9.98" y="0">eller</tspan></text><text class="cls-57" transform="translate(513.67 569.16)">S<tspan class="cls-58" x="9.98" y="0">eller</tspan></text><text class="cls-57" transform="translate(597.25 569.16)">S<tspan class="cls-58" x="9.98" y="0">eller</tspan></text><text class="cls-57" transform="translate(682.17 569.16)">S<tspan class="cls-58" x="9.98" y="0">eller</tspan></text><text class="cls-57" transform="translate(765.67 569.16)">S<tspan class="cls-58" x="9.98" y="0">eller</tspan></text><text class="cls-57" transform="translate(846.83 569.16)">S<tspan class="cls-58" x="9.98" y="0">eller</tspan></text><text class="cls-59" transform="translate(232.43 630.91)">Bu<tspan class="cls-60" x="21.86" y="0">y</tspan><tspan x="31.08" y="0">er</tspan></text><text class="cls-59" transform="translate(292.18 630.91)">Bu<tspan class="cls-60" x="21.86" y="0">y</tspan><tspan x="31.08" y="0">er</tspan></text><text class="cls-59" transform="translate(361.35 630.91)">Bu<tspan class="cls-60" x="21.86" y="0">y</tspan><tspan x="31.08" y="0">er</tspan></text><text class="cls-59" transform="translate(434.18 630.91)">Bu<tspan class="cls-60" x="21.86" y="0">y</tspan><tspan x="31.08" y="0">er</tspan></text><text class="cls-59" transform="translate(512.85 630.91)">Bu<tspan class="cls-60" x="21.86" y="0">y</tspan><tspan x="31.08" y="0">er</tspan></text><text class="cls-57" transform="translate(597.25 630.91)">S<tspan class="cls-58" x="9.98" y="0">eller</tspan></text><text class="cls-57" transform="translate(682.17 630.91)">S<tspan class="cls-58" x="9.98" y="0">eller</tspan></text><text class="cls-57" transform="translate(765.67 630.91)">S<tspan class="cls-58" x="9.98" y="0">eller</tspan></text><text class="cls-57" transform="translate(846.83 630.91)">S<tspan class="cls-58" x="9.98" y="0">eller</tspan></text><text class="cls-59" transform="translate(232.43 365.41)">Bu<tspan class="cls-60" x="21.86" y="0">y</tspan><tspan x="31.08" y="0">er</tspan></text><text class="cls-59" transform="translate(292.18 355.91)">Bu<tspan class="cls-60" x="21.86" y="0">y</tspan><tspan x="31.08" y="0">er</tspan><tspan class="cls-61"><tspan x="0.82" y="19">S</tspan><tspan class="cls-58" x="10.8" y="19">eller</tspan></tspan></text><text class="cls-57" transform="translate(362.17 365.41)">S<tspan class="cls-58" x="9.98" y="0">eller</tspan></text><text class="cls-57" transform="translate(435 365.41)">S<tspan class="cls-58" x="9.98" y="0">eller</tspan></text><text class="cls-57" transform="translate(513.67 365.41)">S<tspan class="cls-58" x="9.98" y="0">eller</tspan></text><text class="cls-57" transform="translate(597.25 365.41)">S<tspan class="cls-58" x="9.98" y="0">eller</tspan></text><text class="cls-57" transform="translate(682.17 365.41)">S<tspan class="cls-58" x="9.98" y="0">eller</tspan></text><text class="cls-57" transform="translate(765.67 365.41)">S<tspan class="cls-58" x="9.98" y="0">eller</tspan></text><text class="cls-57" transform="translate(846.83 365.41)">S<tspan class="cls-58" x="9.98" y="0">eller</tspan></text><text class="cls-54" transform="translate(298.64 97.1)"><tspan class="cls-62">F</tspan><tspan class="cls-63" x="8.99" y="0">r</tspan><tspan x="15.17" y="0">ee</tspan><tspan class="cls-64" x="-9.74" y="19">C</tspan><tspan x="1.43" y="19">a</tspan><tspan class="cls-65" x="10.83" y="19">rr</tspan><tspan x="23.74" y="19">ier</tspan></text><text class="cls-54" transform="translate(432.05 97.1)"><tspan class="cls-66">C</tspan><tspan x="11.1" y="0">ost &amp;</tspan><tspan class="cls-62" x="-2.85" y="19">F</tspan><tspan class="cls-63" x="6.14" y="19">r</tspan><tspan x="12.32" y="19">eig</tspan><tspan class="cls-67" x="37.56" y="19">h</tspan><tspan x="48.3" y="19">t</tspan></text><text class="cls-54" transform="translate(586.19 97.1)"><tspan class="cls-64">C</tspan><tspan x="11.17" y="0">a</tspan><tspan class="cls-65" x="20.57" y="0">rr</tspan><tspan x="33.48" y="0">iage</tspan><tspan class="cls-68" x="5.47" y="19">P</tspan><tspan class="cls-69" x="15.34" y="19">aid</tspan><tspan class="cls-70" x="40.3" y="19"> </tspan><tspan class="cls-71" x="43.63" y="19">T</tspan><tspan x="51.94" y="19">o</tspan></text><text class="cls-54" transform="translate(830.88 97.1)"><tspan class="cls-65">D</tspan><tspan x="13.06" y="0">eli</tspan><tspan class="cls-63" x="32" y="0">v</tspan><tspan x="41.18" y="0">e</tspan><tspan class="cls-72" x="50.95" y="0">r</tspan><tspan x="57.13" y="0">ed</tspan><tspan class="cls-73" x="-0.33" y="19">D</tspan><tspan x="12.71" y="19">u</tspan><tspan class="cls-74" x="23.46" y="19">t</tspan><tspan x="30.09" y="19">y </tspan><tspan class="cls-68" x="43.41" y="19">P</tspan><tspan x="53.27" y="19">aid</tspan></text><text class="cls-54" transform="translate(353.62 88.1)"><tspan class="cls-62">F</tspan><tspan class="cls-63" x="8.99" y="0">r</tspan><tspan x="15.17" y="0">ee On</tspan><tspan class="cls-65" x="7.59" y="19">B</tspan><tspan class="cls-69" x="18.23" y="19">oa</tspan><tspan class="cls-72" x="38.34" y="19">r</tspan><tspan x="44.52" y="19">d</tspan><tspan class="cls-55" x="6.64" y="38">V</tspan><tspan x="16.88" y="38">essel</tspan></text><text class="cls-54" transform="translate(518.68 88.1)"><tspan class="cls-66">C</tspan><tspan x="11.1" y="0">ost</tspan><tspan class="cls-75" x="-21.53" y="19">I</tspan><tspan x="-16.67" y="19">nsu</tspan><tspan class="cls-76" x="12.62" y="19">r</tspan><tspan class="cls-69" x="18.89" y="19">an</tspan><tspan class="cls-77" x="39.12" y="19">c</tspan><tspan x="47.74" y="19">e</tspan><tspan x="-18.78" y="38">&amp; </tspan><tspan class="cls-68" x="-2.85" y="38">F</tspan><tspan class="cls-72" x="6.14" y="38">r</tspan><tspan x="12.32" y="38">eig</tspan><tspan class="cls-67" x="37.56" y="38">h</tspan><tspan class="cls-69" x="48.3" y="38">t</tspan></text><text class="cls-54" transform="translate(671.11 88.1)"><tspan class="cls-64">C</tspan><tspan x="11.17" y="0">a</tspan><tspan class="cls-65" x="20.57" y="0">rr</tspan><tspan x="33.48" y="0">iage</tspan><tspan class="cls-75" x="-5.46" y="19">I</tspan><tspan x="-0.6" y="19">nsu</tspan><tspan class="cls-76" x="28.68" y="19">r</tspan><tspan class="cls-69" x="34.96" y="19">an</tspan><tspan class="cls-77" x="55.18" y="19">c</tspan><tspan x="63.8" y="19">e</tspan><tspan class="cls-68" x="5.47" y="38">P</tspan><tspan class="cls-69" x="15.34" y="38">aid</tspan><tspan class="cls-70" x="40.3" y="38"> </tspan><tspan class="cls-71" x="43.63" y="38">T</tspan><tspan x="51.94" y="38">o</tspan></text><text class="cls-54" transform="translate(749.72 88.1)"><tspan class="cls-65">D</tspan><tspan x="13.06" y="0">eli</tspan><tspan class="cls-63" x="32" y="0">v</tspan><tspan x="41.18" y="0">e</tspan><tspan class="cls-72" x="50.95" y="0">r</tspan><tspan x="57.13" y="0">ed</tspan><tspan class="cls-73" x="19.15" y="19">D</tspan><tspan x="32.19" y="19">u</tspan><tspan class="cls-74" x="42.94" y="19">t</tspan><tspan x="49.57" y="19">y</tspan><tspan x="9.2" y="38">Unpaid</tspan></text><text class="cls-59" transform="translate(232.43 703.16)">Bu<tspan class="cls-60" x="21.86" y="0">y</tspan><tspan x="31.08" y="0">er</tspan></text><text class="cls-59" transform="translate(292.18 703.16)">Bu<tspan class="cls-60" x="21.86" y="0">y</tspan><tspan x="31.08" y="0">er</tspan></text><text class="cls-59" transform="translate(361.35 703.16)">Bu<tspan class="cls-60" x="21.86" y="0">y</tspan><tspan x="31.08" y="0">er</tspan></text><text class="cls-59" transform="translate(434.18 703.16)">Bu<tspan class="cls-60" x="21.86" y="0">y</tspan><tspan x="31.08" y="0">er</tspan></text><text class="cls-59" transform="translate(512.85 703.16)">Bu<tspan class="cls-60" x="21.86" y="0">y</tspan><tspan x="31.08" y="0">er</tspan></text><text class="cls-59" transform="translate(596.43 703.16)">Bu<tspan class="cls-60" x="21.86" y="0">y</tspan><tspan x="31.08" y="0">er</tspan></text><text class="cls-59" transform="translate(681.35 703.16)">Bu<tspan class="cls-60" x="21.86" y="0">y</tspan><tspan x="31.08" y="0">er</tspan></text><text class="cls-59" transform="translate(764.85 703.16)">Bu<tspan class="cls-60" x="21.86" y="0">y</tspan><tspan x="31.08" y="0">er</tspan></text><text class="cls-57" transform="translate(846.83 703.16)">S<tspan class="cls-58" x="9.98" y="0">eller</tspan></text><text class="cls-59" transform="translate(232.43 764.66)">Bu<tspan class="cls-60" x="21.86" y="0">y</tspan><tspan x="31.08" y="0">er</tspan></text><text class="cls-59" transform="translate(292.18 764.66)">Bu<tspan class="cls-60" x="21.86" y="0">y</tspan><tspan x="31.08" y="0">er</tspan></text><text class="cls-59" transform="translate(361.35 764.66)">Bu<tspan class="cls-60" x="21.86" y="0">y</tspan><tspan x="31.08" y="0">er</tspan></text><text class="cls-59" transform="translate(434.18 764.66)">Bu<tspan class="cls-60" x="21.86" y="0">y</tspan><tspan x="31.08" y="0">er</tspan></text><text class="cls-59" transform="translate(512.85 764.66)">Bu<tspan class="cls-60" x="21.86" y="0">y</tspan><tspan x="31.08" y="0">er</tspan></text><text class="cls-59" transform="translate(596.43 764.66)">Bu<tspan class="cls-60" x="21.86" y="0">y</tspan><tspan x="31.08" y="0">er</tspan></text><text class="cls-59" transform="translate(681.35 764.66)">Bu<tspan class="cls-60" x="21.86" y="0">y</tspan><tspan x="31.08" y="0">er</tspan></text><text class="cls-57" transform="translate(765.67 764.66)">S<tspan class="cls-58" x="9.98" y="0">eller</tspan></text><text class="cls-57" transform="translate(846.83 764.66)">S<tspan class="cls-58" x="9.98" y="0">eller</tspan></text><text class="cls-78" transform="translate(233.32 60.15)">E<tspan class="cls-79" x="11.77" y="0">X</tspan><tspan x="25.47" y="0">W</tspan></text><text class="cls-78" transform="translate(296.3 60.15)">F<tspan class="cls-80" x="11.61" y="0">C</tspan><tspan x="24.94" y="0">A</tspan></text><text class="cls-78" transform="translate(364.81 60.15)">FOB</text><text class="cls-78" transform="translate(439.11 60.15)">CFR</text><text class="cls-78" transform="translate(521.17 60.15)">CIF</text><text class="cls-78" transform="translate(601.26 60.15)">CPT</text><text class="cls-78" transform="translate(689.07 60.15)">CIP</text><text class="cls-78" transform="translate(765.82 60.15)">DDU</text><text class="cls-78" transform="translate(848.1 60.15)">DDP</text></svg>