<svg width="62" height="66" viewBox="0 0 62 66" fill="none" xmlns="http://www.w3.org/2000/svg">
<path d="M0.50001 32.5496C0.500012 14.8256 14.178 0.499614 31 0.499616C47.822 0.499617 61.5 14.8256 61.5 32.5496C61.5 50.2736 47.822 64.5996 31 64.5996C14.178 64.5996 0.500009 50.2736 0.50001 32.5496Z" stroke="#414A50"/>
<path d="M39.3459 32.5488L20.269 32.5488" stroke="#414A50" stroke-width="2" stroke-linecap="round" stroke-linejoin="round"/>
<path d="M32.1922 40.0605L40.3025 33.0618C40.3766 32.9978 40.436 32.919 40.4766 32.8306C40.5173 32.7423 40.5383 32.6466 40.5383 32.5497C40.5383 32.4528 40.5173 32.357 40.4766 32.2687C40.436 32.1804 40.3766 32.1016 40.3025 32.0375L32.1922 25.0375" stroke="#414A50" stroke-width="2" stroke-linecap="round" stroke-linejoin="round"/>
</svg>
