<svg width="62" height="66" viewBox="0 0 62 66" fill="none" xmlns="http://www.w3.org/2000/svg">
<path d="M61.5 32.55C61.5 50.274 47.822 64.6 31 64.6C14.178 64.6 0.499998 50.274 0.499999 32.55C0.499999 14.826 14.178 0.500001 31 0.500001C47.822 0.500002 61.5 14.826 61.5 32.55Z" stroke="#414A50"/>
<path d="M22.6541 32.5508L41.731 32.5508" stroke="#414A50" stroke-width="2" stroke-linecap="round" stroke-linejoin="round"/>
<path d="M29.8078 25.0391L21.6975 32.0378C21.6234 32.1018 21.564 32.1807 21.5234 32.269C21.4827 32.3573 21.4617 32.453 21.4617 32.5499C21.4617 32.6468 21.4827 32.7426 21.5234 32.8309C21.564 32.9192 21.6234 32.998 21.6975 33.0621L29.8078 40.0621" stroke="#414A50" stroke-width="2" stroke-linecap="round" stroke-linejoin="round"/>
</svg>
